<?xml version="1.0" encoding="utf-8"?>
<svg xmlns="http://www.w3.org/2000/svg" xmlns:xlink="http://www.w3.org/1999/xlink" width="600" height="400" viewBox="0 0 2400 1600">
<defs>
  <clipPath id="clip340">
    <rect x="0" y="0" width="2400" height="1600"/>
  </clipPath>
</defs>
<path clip-path="url(#clip340)" d="M0 1600 L2400 1600 L2400 0 L0 0  Z" fill="#ffffff" fill-rule="evenodd" fill-opacity="1"/>
<defs>
  <clipPath id="clip341">
    <rect x="257" y="123" width="2097" height="1301"/>
  </clipPath>
</defs>
<path clip-path="url(#clip340)" d="M257.204 1423.18 L2352.76 1423.18 L2352.76 123.472 L257.204 123.472  Z" fill="#ffffff" fill-rule="evenodd" fill-opacity="1"/>
<polyline clip-path="url(#clip341)" style="stroke:#000000; stroke-linecap:round; stroke-linejoin:round; stroke-width:2; stroke-opacity:0.1; fill:none" points="306.578,1423.18 306.578,123.472 "/>
<polyline clip-path="url(#clip341)" style="stroke:#000000; stroke-linecap:round; stroke-linejoin:round; stroke-width:2; stroke-opacity:0.1; fill:none" points="803.295,1423.18 803.295,123.472 "/>
<polyline clip-path="url(#clip341)" style="stroke:#000000; stroke-linecap:round; stroke-linejoin:round; stroke-width:2; stroke-opacity:0.1; fill:none" points="1300.01,1423.18 1300.01,123.472 "/>
<polyline clip-path="url(#clip341)" style="stroke:#000000; stroke-linecap:round; stroke-linejoin:round; stroke-width:2; stroke-opacity:0.1; fill:none" points="1796.73,1423.18 1796.73,123.472 "/>
<polyline clip-path="url(#clip341)" style="stroke:#000000; stroke-linecap:round; stroke-linejoin:round; stroke-width:2; stroke-opacity:0.1; fill:none" points="2293.45,1423.18 2293.45,123.472 "/>
<polyline clip-path="url(#clip341)" style="stroke:#000000; stroke-linecap:round; stroke-linejoin:round; stroke-width:2; stroke-opacity:0.1; fill:none" points="257.204,1358 2352.76,1358 "/>
<polyline clip-path="url(#clip341)" style="stroke:#000000; stroke-linecap:round; stroke-linejoin:round; stroke-width:2; stroke-opacity:0.1; fill:none" points="257.204,1096.7 2352.76,1096.7 "/>
<polyline clip-path="url(#clip341)" style="stroke:#000000; stroke-linecap:round; stroke-linejoin:round; stroke-width:2; stroke-opacity:0.1; fill:none" points="257.204,835.41 2352.76,835.41 "/>
<polyline clip-path="url(#clip341)" style="stroke:#000000; stroke-linecap:round; stroke-linejoin:round; stroke-width:2; stroke-opacity:0.1; fill:none" points="257.204,574.117 2352.76,574.117 "/>
<polyline clip-path="url(#clip341)" style="stroke:#000000; stroke-linecap:round; stroke-linejoin:round; stroke-width:2; stroke-opacity:0.1; fill:none" points="257.204,312.824 2352.76,312.824 "/>
<polyline clip-path="url(#clip340)" style="stroke:#000000; stroke-linecap:round; stroke-linejoin:round; stroke-width:4; stroke-opacity:1; fill:none" points="257.204,1423.18 2352.76,1423.18 "/>
<polyline clip-path="url(#clip340)" style="stroke:#000000; stroke-linecap:round; stroke-linejoin:round; stroke-width:4; stroke-opacity:1; fill:none" points="306.578,1423.18 306.578,1404.28 "/>
<polyline clip-path="url(#clip340)" style="stroke:#000000; stroke-linecap:round; stroke-linejoin:round; stroke-width:4; stroke-opacity:1; fill:none" points="803.295,1423.18 803.295,1404.28 "/>
<polyline clip-path="url(#clip340)" style="stroke:#000000; stroke-linecap:round; stroke-linejoin:round; stroke-width:4; stroke-opacity:1; fill:none" points="1300.01,1423.18 1300.01,1404.28 "/>
<polyline clip-path="url(#clip340)" style="stroke:#000000; stroke-linecap:round; stroke-linejoin:round; stroke-width:4; stroke-opacity:1; fill:none" points="1796.73,1423.18 1796.73,1404.28 "/>
<polyline clip-path="url(#clip340)" style="stroke:#000000; stroke-linecap:round; stroke-linejoin:round; stroke-width:4; stroke-opacity:1; fill:none" points="2293.45,1423.18 2293.45,1404.28 "/>
<path clip-path="url(#clip340)" d="M306.578 1454.1 Q302.967 1454.1 301.138 1457.66 Q299.332 1461.2 299.332 1468.33 Q299.332 1475.44 301.138 1479.01 Q302.967 1482.55 306.578 1482.55 Q310.212 1482.55 312.018 1479.01 Q313.846 1475.44 313.846 1468.33 Q313.846 1461.2 312.018 1457.66 Q310.212 1454.1 306.578 1454.1 M306.578 1450.39 Q312.388 1450.39 315.443 1455 Q318.522 1459.58 318.522 1468.33 Q318.522 1477.06 315.443 1481.67 Q312.388 1486.25 306.578 1486.25 Q300.768 1486.25 297.689 1481.67 Q294.633 1477.06 294.633 1468.33 Q294.633 1459.58 297.689 1455 Q300.768 1450.39 306.578 1450.39 Z" fill="#000000" fill-rule="nonzero" fill-opacity="1" /><path clip-path="url(#clip340)" d="M777.994 1451.02 L796.351 1451.02 L796.351 1454.96 L782.277 1454.96 L782.277 1463.43 Q783.295 1463.08 784.314 1462.92 Q785.332 1462.73 786.351 1462.73 Q792.138 1462.73 795.518 1465.9 Q798.897 1469.08 798.897 1474.49 Q798.897 1480.07 795.425 1483.17 Q791.953 1486.25 785.633 1486.25 Q783.457 1486.25 781.189 1485.88 Q778.944 1485.51 776.536 1484.77 L776.536 1480.07 Q778.619 1481.2 780.842 1481.76 Q783.064 1482.32 785.541 1482.32 Q789.545 1482.32 791.883 1480.21 Q794.221 1478.1 794.221 1474.49 Q794.221 1470.88 791.883 1468.77 Q789.545 1466.67 785.541 1466.67 Q783.666 1466.67 781.791 1467.08 Q779.939 1467.5 777.994 1468.38 L777.994 1451.02 Z" fill="#000000" fill-rule="nonzero" fill-opacity="1" /><path clip-path="url(#clip340)" d="M818.11 1454.1 Q814.499 1454.1 812.67 1457.66 Q810.865 1461.2 810.865 1468.33 Q810.865 1475.44 812.67 1479.01 Q814.499 1482.55 818.11 1482.55 Q821.744 1482.55 823.55 1479.01 Q825.378 1475.44 825.378 1468.33 Q825.378 1461.2 823.55 1457.66 Q821.744 1454.1 818.11 1454.1 M818.11 1450.39 Q823.92 1450.39 826.976 1455 Q830.054 1459.58 830.054 1468.33 Q830.054 1477.06 826.976 1481.67 Q823.92 1486.25 818.11 1486.25 Q812.3 1486.25 809.221 1481.67 Q806.166 1477.06 806.166 1468.33 Q806.166 1459.58 809.221 1455 Q812.3 1450.39 818.11 1450.39 Z" fill="#000000" fill-rule="nonzero" fill-opacity="1" /><path clip-path="url(#clip340)" d="M1259.62 1481.64 L1267.26 1481.64 L1267.26 1455.28 L1258.95 1456.95 L1258.95 1452.69 L1267.21 1451.02 L1271.89 1451.02 L1271.89 1481.64 L1279.53 1481.64 L1279.53 1485.58 L1259.62 1485.58 L1259.62 1481.64 Z" fill="#000000" fill-rule="nonzero" fill-opacity="1" /><path clip-path="url(#clip340)" d="M1298.97 1454.1 Q1295.36 1454.1 1293.53 1457.66 Q1291.73 1461.2 1291.73 1468.33 Q1291.73 1475.44 1293.53 1479.01 Q1295.36 1482.55 1298.97 1482.55 Q1302.61 1482.55 1304.41 1479.01 Q1306.24 1475.44 1306.24 1468.33 Q1306.24 1461.2 1304.41 1457.66 Q1302.61 1454.1 1298.97 1454.1 M1298.97 1450.39 Q1304.78 1450.39 1307.84 1455 Q1310.92 1459.58 1310.92 1468.33 Q1310.92 1477.06 1307.84 1481.67 Q1304.78 1486.25 1298.97 1486.25 Q1293.16 1486.25 1290.08 1481.67 Q1287.03 1477.06 1287.03 1468.33 Q1287.03 1459.58 1290.08 1455 Q1293.16 1450.39 1298.97 1450.39 Z" fill="#000000" fill-rule="nonzero" fill-opacity="1" /><path clip-path="url(#clip340)" d="M1329.13 1454.1 Q1325.52 1454.1 1323.69 1457.66 Q1321.89 1461.2 1321.89 1468.33 Q1321.89 1475.44 1323.69 1479.01 Q1325.52 1482.55 1329.13 1482.55 Q1332.77 1482.55 1334.57 1479.01 Q1336.4 1475.44 1336.4 1468.33 Q1336.4 1461.2 1334.57 1457.66 Q1332.77 1454.1 1329.13 1454.1 M1329.13 1450.39 Q1334.94 1450.39 1338 1455 Q1341.08 1459.58 1341.08 1468.33 Q1341.08 1477.06 1338 1481.67 Q1334.94 1486.25 1329.13 1486.25 Q1323.32 1486.25 1320.24 1481.67 Q1317.19 1477.06 1317.19 1468.33 Q1317.19 1459.58 1320.24 1455 Q1323.32 1450.39 1329.13 1450.39 Z" fill="#000000" fill-rule="nonzero" fill-opacity="1" /><path clip-path="url(#clip340)" d="M1756.34 1481.64 L1763.98 1481.64 L1763.98 1455.28 L1755.67 1456.95 L1755.67 1452.69 L1763.93 1451.02 L1768.61 1451.02 L1768.61 1481.64 L1776.24 1481.64 L1776.24 1485.58 L1756.34 1485.58 L1756.34 1481.64 Z" fill="#000000" fill-rule="nonzero" fill-opacity="1" /><path clip-path="url(#clip340)" d="M1785.74 1451.02 L1804.09 1451.02 L1804.09 1454.96 L1790.02 1454.96 L1790.02 1463.43 Q1791.04 1463.08 1792.05 1462.92 Q1793.07 1462.73 1794.09 1462.73 Q1799.88 1462.73 1803.26 1465.9 Q1806.64 1469.08 1806.64 1474.49 Q1806.64 1480.07 1803.17 1483.17 Q1799.69 1486.25 1793.37 1486.25 Q1791.2 1486.25 1788.93 1485.88 Q1786.68 1485.51 1784.28 1484.77 L1784.28 1480.07 Q1786.36 1481.2 1788.58 1481.76 Q1790.8 1482.32 1793.28 1482.32 Q1797.29 1482.32 1799.62 1480.21 Q1801.96 1478.1 1801.96 1474.49 Q1801.96 1470.88 1799.62 1468.77 Q1797.29 1466.67 1793.28 1466.67 Q1791.41 1466.67 1789.53 1467.08 Q1787.68 1467.5 1785.74 1468.38 L1785.74 1451.02 Z" fill="#000000" fill-rule="nonzero" fill-opacity="1" /><path clip-path="url(#clip340)" d="M1825.85 1454.1 Q1822.24 1454.1 1820.41 1457.66 Q1818.61 1461.2 1818.61 1468.33 Q1818.61 1475.44 1820.41 1479.01 Q1822.24 1482.55 1825.85 1482.55 Q1829.48 1482.55 1831.29 1479.01 Q1833.12 1475.44 1833.12 1468.33 Q1833.12 1461.2 1831.29 1457.66 Q1829.48 1454.1 1825.85 1454.1 M1825.85 1450.39 Q1831.66 1450.39 1834.72 1455 Q1837.79 1459.58 1837.79 1468.33 Q1837.79 1477.06 1834.72 1481.67 Q1831.66 1486.25 1825.85 1486.25 Q1820.04 1486.25 1816.96 1481.67 Q1813.91 1477.06 1813.91 1468.33 Q1813.91 1459.58 1816.96 1455 Q1820.04 1450.39 1825.85 1450.39 Z" fill="#000000" fill-rule="nonzero" fill-opacity="1" /><path clip-path="url(#clip340)" d="M2257.14 1481.64 L2273.46 1481.64 L2273.46 1485.58 L2251.52 1485.58 L2251.52 1481.64 Q2254.18 1478.89 2258.76 1474.26 Q2263.37 1469.61 2264.55 1468.27 Q2266.79 1465.74 2267.67 1464.01 Q2268.58 1462.25 2268.58 1460.56 Q2268.58 1457.8 2266.63 1456.07 Q2264.71 1454.33 2261.61 1454.33 Q2259.41 1454.33 2256.95 1455.09 Q2254.52 1455.86 2251.75 1457.41 L2251.75 1452.69 Q2254.57 1451.55 2257.02 1450.97 Q2259.48 1450.39 2261.52 1450.39 Q2266.89 1450.39 2270.08 1453.08 Q2273.27 1455.77 2273.27 1460.26 Q2273.27 1462.39 2272.46 1464.31 Q2271.68 1466.2 2269.57 1468.8 Q2268.99 1469.47 2265.89 1472.69 Q2262.79 1475.88 2257.14 1481.64 Z" fill="#000000" fill-rule="nonzero" fill-opacity="1" /><path clip-path="url(#clip340)" d="M2293.27 1454.1 Q2289.66 1454.1 2287.83 1457.66 Q2286.03 1461.2 2286.03 1468.33 Q2286.03 1475.44 2287.83 1479.01 Q2289.66 1482.55 2293.27 1482.55 Q2296.91 1482.55 2298.71 1479.01 Q2300.54 1475.44 2300.54 1468.33 Q2300.54 1461.2 2298.71 1457.66 Q2296.91 1454.1 2293.27 1454.1 M2293.27 1450.39 Q2299.08 1450.39 2302.14 1455 Q2305.22 1459.58 2305.22 1468.33 Q2305.22 1477.06 2302.14 1481.67 Q2299.08 1486.25 2293.27 1486.25 Q2287.46 1486.25 2284.39 1481.67 Q2281.33 1477.06 2281.33 1468.33 Q2281.33 1459.58 2284.39 1455 Q2287.46 1450.39 2293.27 1450.39 Z" fill="#000000" fill-rule="nonzero" fill-opacity="1" /><path clip-path="url(#clip340)" d="M2323.44 1454.1 Q2319.83 1454.1 2318 1457.66 Q2316.19 1461.2 2316.19 1468.33 Q2316.19 1475.44 2318 1479.01 Q2319.83 1482.55 2323.44 1482.55 Q2327.07 1482.55 2328.88 1479.01 Q2330.7 1475.44 2330.7 1468.33 Q2330.7 1461.2 2328.88 1457.66 Q2327.07 1454.1 2323.44 1454.1 M2323.44 1450.39 Q2329.25 1450.39 2332.3 1455 Q2335.38 1459.58 2335.38 1468.33 Q2335.38 1477.06 2332.3 1481.67 Q2329.25 1486.25 2323.44 1486.25 Q2317.63 1486.25 2314.55 1481.67 Q2311.49 1477.06 2311.49 1468.33 Q2311.49 1459.58 2314.55 1455 Q2317.63 1450.39 2323.44 1450.39 Z" fill="#000000" fill-rule="nonzero" fill-opacity="1" /><path clip-path="url(#clip340)" d="M1263.36 1533.45 L1263.36 1538.98 Q1260.88 1537.71 1258.21 1537.07 Q1255.53 1536.44 1252.67 1536.44 Q1248.31 1536.44 1246.11 1537.77 Q1243.95 1539.11 1243.95 1541.79 Q1243.95 1543.82 1245.51 1545 Q1247.07 1546.15 1251.78 1547.2 L1253.78 1547.64 Q1260.02 1548.98 1262.63 1551.43 Q1265.27 1553.85 1265.27 1558.21 Q1265.27 1563.17 1261.33 1566.07 Q1257.41 1568.97 1250.54 1568.97 Q1247.67 1568.97 1244.55 1568.39 Q1241.47 1567.85 1238.03 1566.74 L1238.03 1560.69 Q1241.28 1562.38 1244.43 1563.24 Q1247.58 1564.07 1250.66 1564.07 Q1254.8 1564.07 1257.03 1562.66 Q1259.26 1561.23 1259.26 1558.65 Q1259.26 1556.27 1257.64 1554.99 Q1256.04 1553.72 1250.6 1552.54 L1248.56 1552.07 Q1243.12 1550.92 1240.7 1548.56 Q1238.28 1546.18 1238.28 1542.04 Q1238.28 1537.01 1241.85 1534.27 Q1245.41 1531.54 1251.97 1531.54 Q1255.22 1531.54 1258.08 1532.01 Q1260.95 1532.49 1263.36 1533.45 Z" fill="#000000" fill-rule="nonzero" fill-opacity="1" /><path clip-path="url(#clip340)" d="M1280.39 1522.27 L1280.39 1532.4 L1292.46 1532.4 L1292.46 1536.95 L1280.39 1536.95 L1280.39 1556.3 Q1280.39 1560.66 1281.57 1561.9 Q1282.78 1563.14 1286.44 1563.14 L1292.46 1563.14 L1292.46 1568.04 L1286.44 1568.04 Q1279.66 1568.04 1277.08 1565.53 Q1274.5 1562.98 1274.5 1556.3 L1274.5 1536.95 L1270.21 1536.95 L1270.21 1532.4 L1274.5 1532.4 L1274.5 1522.27 L1280.39 1522.27 Z" fill="#000000" fill-rule="nonzero" fill-opacity="1" /><path clip-path="url(#clip340)" d="M1330.65 1548.76 L1330.65 1551.62 L1303.72 1551.62 Q1304.1 1557.67 1307.35 1560.85 Q1310.63 1564 1316.45 1564 Q1319.83 1564 1322.98 1563.17 Q1326.16 1562.35 1329.28 1560.69 L1329.28 1566.23 Q1326.13 1567.57 1322.82 1568.27 Q1319.51 1568.97 1316.1 1568.97 Q1307.57 1568.97 1302.58 1564 Q1297.61 1559.04 1297.61 1550.57 Q1297.61 1541.82 1302.32 1536.69 Q1307.06 1531.54 1315.09 1531.54 Q1322.28 1531.54 1326.45 1536.18 Q1330.65 1540.8 1330.65 1548.76 M1324.79 1547.04 Q1324.73 1542.23 1322.09 1539.37 Q1319.48 1536.5 1315.15 1536.5 Q1310.25 1536.5 1307.29 1539.27 Q1304.36 1542.04 1303.91 1547.07 L1324.79 1547.04 Z" fill="#000000" fill-rule="nonzero" fill-opacity="1" /><path clip-path="url(#clip340)" d="M1345.93 1562.7 L1345.93 1581.6 L1340.04 1581.6 L1340.04 1532.4 L1345.93 1532.4 L1345.93 1537.81 Q1347.77 1534.62 1350.57 1533.1 Q1353.41 1531.54 1357.32 1531.54 Q1363.82 1531.54 1367.86 1536.69 Q1371.93 1541.85 1371.93 1550.25 Q1371.93 1558.65 1367.86 1563.81 Q1363.82 1568.97 1357.32 1568.97 Q1353.41 1568.97 1350.57 1567.44 Q1347.77 1565.88 1345.93 1562.7 M1365.85 1550.25 Q1365.85 1543.79 1363.18 1540.13 Q1360.54 1536.44 1355.89 1536.44 Q1351.24 1536.44 1348.57 1540.13 Q1345.93 1543.79 1345.93 1550.25 Q1345.93 1556.71 1348.57 1560.4 Q1351.24 1564.07 1355.89 1564.07 Q1360.54 1564.07 1363.18 1560.4 Q1365.85 1556.71 1365.85 1550.25 Z" fill="#000000" fill-rule="nonzero" fill-opacity="1" /><polyline clip-path="url(#clip340)" style="stroke:#000000; stroke-linecap:round; stroke-linejoin:round; stroke-width:4; stroke-opacity:1; fill:none" points="257.204,1423.18 257.204,123.472 "/>
<polyline clip-path="url(#clip340)" style="stroke:#000000; stroke-linecap:round; stroke-linejoin:round; stroke-width:4; stroke-opacity:1; fill:none" points="257.204,1358 276.102,1358 "/>
<polyline clip-path="url(#clip340)" style="stroke:#000000; stroke-linecap:round; stroke-linejoin:round; stroke-width:4; stroke-opacity:1; fill:none" points="257.204,1096.7 276.102,1096.7 "/>
<polyline clip-path="url(#clip340)" style="stroke:#000000; stroke-linecap:round; stroke-linejoin:round; stroke-width:4; stroke-opacity:1; fill:none" points="257.204,835.41 276.102,835.41 "/>
<polyline clip-path="url(#clip340)" style="stroke:#000000; stroke-linecap:round; stroke-linejoin:round; stroke-width:4; stroke-opacity:1; fill:none" points="257.204,574.117 276.102,574.117 "/>
<polyline clip-path="url(#clip340)" style="stroke:#000000; stroke-linecap:round; stroke-linejoin:round; stroke-width:4; stroke-opacity:1; fill:none" points="257.204,312.824 276.102,312.824 "/>
<path clip-path="url(#clip340)" d="M114.26 1358.45 L143.936 1358.45 L143.936 1362.38 L114.26 1362.38 L114.26 1358.45 Z" fill="#000000" fill-rule="nonzero" fill-opacity="1" /><path clip-path="url(#clip340)" d="M154.839 1371.34 L162.477 1371.34 L162.477 1344.98 L154.167 1346.64 L154.167 1342.38 L162.431 1340.72 L167.107 1340.72 L167.107 1371.34 L174.746 1371.34 L174.746 1375.28 L154.839 1375.28 L154.839 1371.34 Z" fill="#000000" fill-rule="nonzero" fill-opacity="1" /><path clip-path="url(#clip340)" d="M184.19 1369.4 L189.075 1369.4 L189.075 1375.28 L184.19 1375.28 L184.19 1369.4 Z" fill="#000000" fill-rule="nonzero" fill-opacity="1" /><path clip-path="url(#clip340)" d="M209.26 1343.79 Q205.649 1343.79 203.82 1347.36 Q202.014 1350.9 202.014 1358.03 Q202.014 1365.14 203.82 1368.7 Q205.649 1372.24 209.26 1372.24 Q212.894 1372.24 214.699 1368.7 Q216.528 1365.14 216.528 1358.03 Q216.528 1350.9 214.699 1347.36 Q212.894 1343.79 209.26 1343.79 M209.26 1340.09 Q215.07 1340.09 218.125 1344.7 Q221.204 1349.28 221.204 1358.03 Q221.204 1366.76 218.125 1371.36 Q215.07 1375.95 209.26 1375.95 Q203.449 1375.95 200.371 1371.36 Q197.315 1366.76 197.315 1358.03 Q197.315 1349.28 200.371 1344.7 Q203.449 1340.09 209.26 1340.09 Z" fill="#000000" fill-rule="nonzero" fill-opacity="1" /><path clip-path="url(#clip340)" d="M115.256 1097.15 L144.931 1097.15 L144.931 1101.09 L115.256 1101.09 L115.256 1097.15 Z" fill="#000000" fill-rule="nonzero" fill-opacity="1" /><path clip-path="url(#clip340)" d="M165.024 1082.5 Q161.413 1082.5 159.584 1086.07 Q157.778 1089.61 157.778 1096.74 Q157.778 1103.84 159.584 1107.41 Q161.413 1110.95 165.024 1110.95 Q168.658 1110.95 170.464 1107.41 Q172.292 1103.84 172.292 1096.74 Q172.292 1089.61 170.464 1086.07 Q168.658 1082.5 165.024 1082.5 M165.024 1078.8 Q170.834 1078.8 173.889 1083.4 Q176.968 1087.99 176.968 1096.74 Q176.968 1105.46 173.889 1110.07 Q170.834 1114.65 165.024 1114.65 Q159.214 1114.65 156.135 1110.07 Q153.079 1105.46 153.079 1096.74 Q153.079 1087.99 156.135 1083.4 Q159.214 1078.8 165.024 1078.8 Z" fill="#000000" fill-rule="nonzero" fill-opacity="1" /><path clip-path="url(#clip340)" d="M185.186 1108.1 L190.07 1108.1 L190.07 1113.98 L185.186 1113.98 L185.186 1108.1 Z" fill="#000000" fill-rule="nonzero" fill-opacity="1" /><path clip-path="url(#clip340)" d="M200.301 1079.42 L218.658 1079.42 L218.658 1083.36 L204.584 1083.36 L204.584 1091.83 Q205.602 1091.48 206.621 1091.32 Q207.639 1091.14 208.658 1091.14 Q214.445 1091.14 217.824 1094.31 Q221.204 1097.48 221.204 1102.9 Q221.204 1108.47 217.732 1111.58 Q214.26 1114.65 207.94 1114.65 Q205.764 1114.65 203.496 1114.28 Q201.25 1113.91 198.843 1113.17 L198.843 1108.47 Q200.926 1109.61 203.149 1110.16 Q205.371 1110.72 207.848 1110.72 Q211.852 1110.72 214.19 1108.61 Q216.528 1106.51 216.528 1102.9 Q216.528 1099.28 214.19 1097.18 Q211.852 1095.07 207.848 1095.07 Q205.973 1095.07 204.098 1095.49 Q202.246 1095.9 200.301 1096.78 L200.301 1079.42 Z" fill="#000000" fill-rule="nonzero" fill-opacity="1" /><path clip-path="url(#clip340)" d="M164.028 821.209 Q160.417 821.209 158.589 824.774 Q156.783 828.315 156.783 835.445 Q156.783 842.551 158.589 846.116 Q160.417 849.658 164.028 849.658 Q167.663 849.658 169.468 846.116 Q171.297 842.551 171.297 835.445 Q171.297 828.315 169.468 824.774 Q167.663 821.209 164.028 821.209 M164.028 817.505 Q169.839 817.505 172.894 822.112 Q175.973 826.695 175.973 835.445 Q175.973 844.172 172.894 848.778 Q169.839 853.361 164.028 853.361 Q158.218 853.361 155.14 848.778 Q152.084 844.172 152.084 835.445 Q152.084 826.695 155.14 822.112 Q158.218 817.505 164.028 817.505 Z" fill="#000000" fill-rule="nonzero" fill-opacity="1" /><path clip-path="url(#clip340)" d="M184.19 846.81 L189.075 846.81 L189.075 852.69 L184.19 852.69 L184.19 846.81 Z" fill="#000000" fill-rule="nonzero" fill-opacity="1" /><path clip-path="url(#clip340)" d="M209.26 821.209 Q205.649 821.209 203.82 824.774 Q202.014 828.315 202.014 835.445 Q202.014 842.551 203.82 846.116 Q205.649 849.658 209.26 849.658 Q212.894 849.658 214.699 846.116 Q216.528 842.551 216.528 835.445 Q216.528 828.315 214.699 824.774 Q212.894 821.209 209.26 821.209 M209.26 817.505 Q215.07 817.505 218.125 822.112 Q221.204 826.695 221.204 835.445 Q221.204 844.172 218.125 848.778 Q215.07 853.361 209.26 853.361 Q203.449 853.361 200.371 848.778 Q197.315 844.172 197.315 835.445 Q197.315 826.695 200.371 822.112 Q203.449 817.505 209.26 817.505 Z" fill="#000000" fill-rule="nonzero" fill-opacity="1" /><path clip-path="url(#clip340)" d="M165.024 559.916 Q161.413 559.916 159.584 563.481 Q157.778 567.022 157.778 574.152 Q157.778 581.258 159.584 584.823 Q161.413 588.365 165.024 588.365 Q168.658 588.365 170.464 584.823 Q172.292 581.258 172.292 574.152 Q172.292 567.022 170.464 563.481 Q168.658 559.916 165.024 559.916 M165.024 556.212 Q170.834 556.212 173.889 560.819 Q176.968 565.402 176.968 574.152 Q176.968 582.879 173.889 587.485 Q170.834 592.068 165.024 592.068 Q159.214 592.068 156.135 587.485 Q153.079 582.879 153.079 574.152 Q153.079 565.402 156.135 560.819 Q159.214 556.212 165.024 556.212 Z" fill="#000000" fill-rule="nonzero" fill-opacity="1" /><path clip-path="url(#clip340)" d="M185.186 585.517 L190.07 585.517 L190.07 591.397 L185.186 591.397 L185.186 585.517 Z" fill="#000000" fill-rule="nonzero" fill-opacity="1" /><path clip-path="url(#clip340)" d="M200.301 556.837 L218.658 556.837 L218.658 560.772 L204.584 560.772 L204.584 569.244 Q205.602 568.897 206.621 568.735 Q207.639 568.55 208.658 568.55 Q214.445 568.55 217.824 571.721 Q221.204 574.893 221.204 580.309 Q221.204 585.888 217.732 588.99 Q214.26 592.068 207.94 592.068 Q205.764 592.068 203.496 591.698 Q201.25 591.328 198.843 590.587 L198.843 585.888 Q200.926 587.022 203.149 587.578 Q205.371 588.133 207.848 588.133 Q211.852 588.133 214.19 586.027 Q216.528 583.92 216.528 580.309 Q216.528 576.698 214.19 574.592 Q211.852 572.485 207.848 572.485 Q205.973 572.485 204.098 572.902 Q202.246 573.318 200.301 574.198 L200.301 556.837 Z" fill="#000000" fill-rule="nonzero" fill-opacity="1" /><path clip-path="url(#clip340)" d="M154.839 326.169 L162.477 326.169 L162.477 299.803 L154.167 301.47 L154.167 297.211 L162.431 295.544 L167.107 295.544 L167.107 326.169 L174.746 326.169 L174.746 330.104 L154.839 330.104 L154.839 326.169 Z" fill="#000000" fill-rule="nonzero" fill-opacity="1" /><path clip-path="url(#clip340)" d="M184.19 324.224 L189.075 324.224 L189.075 330.104 L184.19 330.104 L184.19 324.224 Z" fill="#000000" fill-rule="nonzero" fill-opacity="1" /><path clip-path="url(#clip340)" d="M209.26 298.623 Q205.649 298.623 203.82 302.188 Q202.014 305.729 202.014 312.859 Q202.014 319.965 203.82 323.53 Q205.649 327.072 209.26 327.072 Q212.894 327.072 214.699 323.53 Q216.528 319.965 216.528 312.859 Q216.528 305.729 214.699 302.188 Q212.894 298.623 209.26 298.623 M209.26 294.919 Q215.07 294.919 218.125 299.526 Q221.204 304.109 221.204 312.859 Q221.204 321.586 218.125 326.192 Q215.07 330.775 209.26 330.775 Q203.449 330.775 200.371 326.192 Q197.315 321.586 197.315 312.859 Q197.315 304.109 200.371 299.526 Q203.449 294.919 209.26 294.919 Z" fill="#000000" fill-rule="nonzero" fill-opacity="1" /><path clip-path="url(#clip340)" d="M28.3562 793.187 L45.7028 806.078 L64.0042 792.519 L64.0042 799.425 L49.9996 809.801 L64.0042 820.178 L64.0042 827.084 L45.3526 813.239 L28.3562 825.907 L28.3562 819 L41.0558 809.547 L28.3562 800.094 L28.3562 793.187 Z" fill="#000000" fill-rule="nonzero" fill-opacity="1" /><path clip-path="url(#clip340)" d="M14.5426 770.175 Q21.8632 774.44 29.0246 776.509 Q36.186 778.578 43.5384 778.578 Q50.8908 778.578 58.1159 776.509 Q65.3091 774.408 72.5979 770.175 L72.5979 775.268 Q65.1182 780.042 57.8931 782.429 Q50.668 784.784 43.5384 784.784 Q36.4406 784.784 29.2474 782.429 Q22.0542 780.074 14.5426 775.268 L14.5426 770.175 Z" fill="#000000" fill-rule="nonzero" fill-opacity="1" /><path clip-path="url(#clip340)" d="M18.2347 753.019 L28.3562 753.019 L28.3562 740.956 L32.9077 740.956 L32.9077 753.019 L52.2594 753.019 Q56.6199 753.019 57.8613 751.842 Q59.1026 750.632 59.1026 746.972 L59.1026 740.956 L64.0042 740.956 L64.0042 746.972 Q64.0042 753.751 61.4897 756.33 Q58.9434 758.908 52.2594 758.908 L32.9077 758.908 L32.9077 763.205 L28.3562 763.205 L28.3562 758.908 L18.2347 758.908 L18.2347 753.019 Z" fill="#000000" fill-rule="nonzero" fill-opacity="1" /><path clip-path="url(#clip340)" d="M14.5426 734.177 L14.5426 729.084 Q22.0542 724.31 29.2474 721.955 Q36.4406 719.568 43.5384 719.568 Q50.668 719.568 57.8931 721.955 Q65.1182 724.31 72.5979 729.084 L72.5979 734.177 Q65.3091 729.944 58.1159 727.875 Q50.8908 725.774 43.5384 725.774 Q36.186 725.774 29.0246 727.875 Q21.8632 729.944 14.5426 734.177 Z" fill="#000000" fill-rule="nonzero" fill-opacity="1" /><path clip-path="url(#clip340)" d="M328.854 12.096 L341.047 12.096 L356.481 53.2532 L371.996 12.096 L384.189 12.096 L384.189 72.576 L376.209 72.576 L376.209 19.4686 L360.613 60.9499 L352.39 60.9499 L336.794 19.4686 L336.794 72.576 L328.854 72.576 L328.854 12.096 Z" fill="#000000" fill-rule="nonzero" fill-opacity="1" /><path clip-path="url(#clip340)" d="M420.728 49.7694 Q411.695 49.7694 408.211 51.8354 Q404.727 53.9013 404.727 58.8839 Q404.727 62.8538 407.32 65.2034 Q409.953 67.5124 414.449 67.5124 Q420.647 67.5124 424.374 63.1374 Q428.141 58.7219 428.141 51.4303 L428.141 49.7694 L420.728 49.7694 M435.595 46.6907 L435.595 72.576 L428.141 72.576 L428.141 65.6895 Q425.589 69.8214 421.782 71.8063 Q417.974 73.7508 412.464 73.7508 Q405.497 73.7508 401.365 69.8619 Q397.274 65.9325 397.274 59.3701 Q397.274 51.7138 402.378 47.825 Q407.522 43.9361 417.69 43.9361 L428.141 43.9361 L428.141 43.2069 Q428.141 38.0623 424.739 35.2672 Q421.376 32.4315 415.26 32.4315 Q411.371 32.4315 407.684 33.3632 Q403.998 34.295 400.595 36.1584 L400.595 29.2718 Q404.687 27.692 408.535 26.9223 Q412.383 26.1121 416.029 26.1121 Q425.873 26.1121 430.734 31.2163 Q435.595 36.3204 435.595 46.6907 Z" fill="#000000" fill-rule="nonzero" fill-opacity="1" /><path clip-path="url(#clip340)" d="M483.598 28.9478 L483.598 35.9153 Q480.439 34.1734 477.238 33.3227 Q474.079 32.4315 470.838 32.4315 Q463.587 32.4315 459.577 37.0496 Q455.566 41.6271 455.566 49.9314 Q455.566 58.2358 459.577 62.8538 Q463.587 67.4314 470.838 67.4314 Q474.079 67.4314 477.238 66.5807 Q480.439 65.6895 483.598 63.9476 L483.598 70.8341 Q480.479 72.2924 477.117 73.0216 Q473.795 73.7508 470.028 73.7508 Q459.779 73.7508 453.743 67.3098 Q447.707 60.8689 447.707 49.9314 Q447.707 38.832 453.784 32.472 Q459.901 26.1121 470.514 26.1121 Q473.957 26.1121 477.238 26.8413 Q480.52 27.5299 483.598 28.9478 Z" fill="#000000" fill-rule="nonzero" fill-opacity="1" /><path clip-path="url(#clip340)" d="M496.278 9.54393 L503.772 9.54393 L503.772 46.7717 L526.011 27.2059 L535.531 27.2059 L511.469 48.4326 L536.544 72.576 L526.822 72.576 L503.772 50.4176 L503.772 72.576 L496.278 72.576 L496.278 9.54393 Z" fill="#000000" fill-rule="nonzero" fill-opacity="1" /><path clip-path="url(#clip340)" d="M580.455 48.0275 L580.455 51.6733 L546.185 51.6733 Q546.671 59.3701 550.803 63.421 Q554.975 67.4314 562.388 67.4314 Q566.682 67.4314 570.693 66.3781 Q574.744 65.3249 578.714 63.2184 L578.714 70.267 Q574.703 71.9684 570.49 72.8596 Q566.277 73.7508 561.943 73.7508 Q551.086 73.7508 544.727 67.4314 Q538.407 61.1119 538.407 50.3365 Q538.407 39.1965 544.402 32.6746 Q550.438 26.1121 560.647 26.1121 Q569.802 26.1121 575.108 32.0264 Q580.455 37.9003 580.455 48.0275 M573.002 45.84 Q572.921 39.7232 569.559 36.0774 Q566.237 32.4315 560.728 32.4315 Q554.489 32.4315 550.722 35.9558 Q546.995 39.4801 546.428 45.8805 L573.002 45.84 Z" fill="#000000" fill-rule="nonzero" fill-opacity="1" /><path clip-path="url(#clip340)" d="M611.566 76.7889 Q608.407 84.8907 605.409 87.3618 Q602.411 89.8329 597.388 89.8329 L591.433 89.8329 L591.433 83.5945 L595.808 83.5945 Q598.887 83.5945 600.588 82.1361 Q602.29 80.6778 604.356 75.2496 L605.693 71.8468 L587.342 27.2059 L595.241 27.2059 L609.419 62.6918 L623.598 27.2059 L631.497 27.2059 L611.566 76.7889 Z" fill="#000000" fill-rule="nonzero" fill-opacity="1" /><path clip-path="url(#clip340)" d="M636.561 46.5287 L658.395 46.5287 L658.395 53.1722 L636.561 53.1722 L636.561 46.5287 Z" fill="#000000" fill-rule="nonzero" fill-opacity="1" /><path clip-path="url(#clip340)" d="M714.864 63.9476 L714.864 47.7034 L701.497 47.7034 L701.497 40.9789 L722.966 40.9789 L722.966 66.9452 Q718.227 70.3075 712.515 72.0494 Q706.803 73.7508 700.322 73.7508 Q686.144 73.7508 678.123 65.4869 Q670.143 57.1826 670.143 42.3968 Q670.143 27.5705 678.123 19.3066 Q686.144 11.0023 700.322 11.0023 Q706.236 11.0023 711.543 12.4606 Q716.89 13.9189 721.386 16.7545 L721.386 25.464 Q716.849 21.6156 711.745 19.6712 Q706.641 17.7268 701.01 17.7268 Q689.911 17.7268 684.321 23.9246 Q678.771 30.1225 678.771 42.3968 Q678.771 54.6305 684.321 60.8284 Q689.911 67.0263 701.01 67.0263 Q705.345 67.0263 708.748 66.2971 Q712.15 65.5274 714.864 63.9476 Z" fill="#000000" fill-rule="nonzero" fill-opacity="1" /><path clip-path="url(#clip340)" d="M737.59 9.54393 L745.044 9.54393 L745.044 72.576 L737.59 72.576 L737.59 9.54393 Z" fill="#000000" fill-rule="nonzero" fill-opacity="1" /><path clip-path="url(#clip340)" d="M781.259 49.7694 Q772.225 49.7694 768.742 51.8354 Q765.258 53.9013 765.258 58.8839 Q765.258 62.8538 767.85 65.2034 Q770.483 67.5124 774.98 67.5124 Q781.178 67.5124 784.905 63.1374 Q788.672 58.7219 788.672 51.4303 L788.672 49.7694 L781.259 49.7694 M796.126 46.6907 L796.126 72.576 L788.672 72.576 L788.672 65.6895 Q786.12 69.8214 782.312 71.8063 Q778.504 73.7508 772.995 73.7508 Q766.027 73.7508 761.895 69.8619 Q757.804 65.9325 757.804 59.3701 Q757.804 51.7138 762.908 47.825 Q768.053 43.9361 778.221 43.9361 L788.672 43.9361 L788.672 43.2069 Q788.672 38.0623 785.269 35.2672 Q781.907 32.4315 775.79 32.4315 Q771.901 32.4315 768.215 33.3632 Q764.529 34.295 761.126 36.1584 L761.126 29.2718 Q765.217 27.692 769.066 26.9223 Q772.914 26.1121 776.56 26.1121 Q786.403 26.1121 791.265 31.2163 Q796.126 36.3204 796.126 46.6907 Z" fill="#000000" fill-rule="nonzero" fill-opacity="1" /><path clip-path="url(#clip340)" d="M840.402 28.5427 L840.402 35.5912 Q837.242 33.9709 833.84 33.1607 Q830.437 32.3505 826.791 32.3505 Q821.241 32.3505 818.446 34.0519 Q815.692 35.7533 815.692 39.156 Q815.692 41.7486 817.676 43.2475 Q819.661 44.7058 825.657 46.0426 L828.209 46.6097 Q836.149 48.3111 839.47 51.4303 Q842.833 54.509 842.833 60.0587 Q842.833 66.3781 837.809 70.0644 Q832.827 73.7508 824.077 73.7508 Q820.431 73.7508 816.461 73.0216 Q812.532 72.3329 808.157 70.9151 L808.157 63.2184 Q812.289 65.3654 816.299 66.4591 Q820.31 67.5124 824.239 67.5124 Q829.505 67.5124 832.341 65.73 Q835.176 63.9071 835.176 60.6258 Q835.176 57.5877 833.11 55.9673 Q831.085 54.3469 824.158 52.8481 L821.565 52.2405 Q814.638 50.7821 811.56 47.7845 Q808.481 44.7463 808.481 39.4801 Q808.481 33.0797 813.018 29.5959 Q817.555 26.1121 825.9 26.1121 Q830.032 26.1121 833.678 26.7198 Q837.323 27.3274 840.402 28.5427 Z" fill="#000000" fill-rule="nonzero" fill-opacity="1" /><path clip-path="url(#clip340)" d="M883.625 28.5427 L883.625 35.5912 Q880.465 33.9709 877.063 33.1607 Q873.66 32.3505 870.014 32.3505 Q864.464 32.3505 861.669 34.0519 Q858.915 35.7533 858.915 39.156 Q858.915 41.7486 860.9 43.2475 Q862.885 44.7058 868.88 46.0426 L871.432 46.6097 Q879.372 48.3111 882.693 51.4303 Q886.056 54.509 886.056 60.0587 Q886.056 66.3781 881.033 70.0644 Q876.05 73.7508 867.3 73.7508 Q863.654 73.7508 859.684 73.0216 Q855.755 72.3329 851.38 70.9151 L851.38 63.2184 Q855.512 65.3654 859.522 66.4591 Q863.533 67.5124 867.462 67.5124 Q872.728 67.5124 875.564 65.73 Q878.399 63.9071 878.399 60.6258 Q878.399 57.5877 876.334 55.9673 Q874.308 54.3469 867.381 52.8481 L864.788 52.2405 Q857.861 50.7821 854.783 47.7845 Q851.704 44.7463 851.704 39.4801 Q851.704 33.0797 856.241 29.5959 Q860.778 26.1121 869.123 26.1121 Q873.255 26.1121 876.901 26.7198 Q880.546 27.3274 883.625 28.5427 Z" fill="#000000" fill-rule="nonzero" fill-opacity="1" /><path clip-path="url(#clip340)" d="M942.201 9.62495 Q936.773 18.942 934.14 28.0566 Q931.507 37.1711 931.507 46.5287 Q931.507 55.8863 934.14 65.0818 Q936.814 74.2369 942.201 83.5134 L935.72 83.5134 Q929.643 73.9938 926.605 64.7983 Q923.608 55.6027 923.608 46.5287 Q923.608 37.4952 926.605 28.3401 Q929.603 19.1851 935.72 9.62495 L942.201 9.62495 Z" fill="#000000" fill-rule="nonzero" fill-opacity="1" /><path clip-path="url(#clip340)" d="M978.902 64.3122 Q980.361 66.2566 984.736 66.2566 L988.341 66.2566 L988.341 72.576 L983.845 72.576 Q976.553 72.576 973.231 68.6871 Q969.909 64.7172 969.909 56.1293 L969.909 34.6595 L952.896 34.6595 L952.896 27.2059 L994.741 27.2059 L994.741 34.6595 L977.525 34.6595 L977.525 56.5749 Q977.525 62.4487 978.902 64.3122 Z" fill="#000000" fill-rule="nonzero" fill-opacity="1" /><path clip-path="url(#clip340)" d="M1007.58 34.9026 L1059.52 34.9026 L1059.52 41.7081 L1007.58 41.7081 L1007.58 34.9026 M1007.58 51.4303 L1059.52 51.4303 L1059.52 58.3168 L1007.58 58.3168 L1007.58 51.4303 Z" fill="#000000" fill-rule="nonzero" fill-opacity="1" /><path clip-path="url(#clip340)" d="M1078.6 65.6895 L1091.96 65.6895 L1091.96 19.5497 L1077.42 22.4663 L1077.42 15.0127 L1091.88 12.096 L1100.06 12.096 L1100.06 65.6895 L1113.43 65.6895 L1113.43 72.576 L1078.6 72.576 L1078.6 65.6895 Z" fill="#000000" fill-rule="nonzero" fill-opacity="1" /><path clip-path="url(#clip340)" d="M1127.89 12.096 L1166.78 12.096 L1166.78 15.5798 L1144.83 72.576 L1136.28 72.576 L1156.94 18.9825 L1127.89 18.9825 L1127.89 12.096 Z" fill="#000000" fill-rule="nonzero" fill-opacity="1" /><path clip-path="url(#clip340)" d="M1180.52 9.62495 L1187 9.62495 Q1193.07 19.1851 1196.07 28.3401 Q1199.11 37.4952 1199.11 46.5287 Q1199.11 55.6027 1196.07 64.7983 Q1193.07 73.9938 1187 83.5134 L1180.52 83.5134 Q1185.9 74.2369 1188.54 65.0818 Q1191.21 55.8863 1191.21 46.5287 Q1191.21 37.1711 1188.54 28.0566 Q1185.9 18.942 1180.52 9.62495 Z" fill="#000000" fill-rule="nonzero" fill-opacity="1" /><path clip-path="url(#clip340)" d="M1236.66 46.9338 L1311.52 46.9338 L1311.52 52.7671 L1236.66 52.7671 L1236.66 46.9338 Z" fill="#000000" fill-rule="nonzero" fill-opacity="1" /><path clip-path="url(#clip340)" d="M1382.41 28.9478 L1382.41 35.9153 Q1379.25 34.1734 1376.05 33.3227 Q1372.89 32.4315 1369.65 32.4315 Q1362.4 32.4315 1358.39 37.0496 Q1354.38 41.6271 1354.38 49.9314 Q1354.38 58.2358 1358.39 62.8538 Q1362.4 67.4314 1369.65 67.4314 Q1372.89 67.4314 1376.05 66.5807 Q1379.25 65.6895 1382.41 63.9476 L1382.41 70.8341 Q1379.29 72.2924 1375.93 73.0216 Q1372.61 73.7508 1368.84 73.7508 Q1358.59 73.7508 1352.56 67.3098 Q1346.52 60.8689 1346.52 49.9314 Q1346.52 38.832 1352.6 32.472 Q1358.72 26.1121 1369.33 26.1121 Q1372.77 26.1121 1376.05 26.8413 Q1379.33 27.5299 1382.41 28.9478 Z" fill="#000000" fill-rule="nonzero" fill-opacity="1" /><path clip-path="url(#clip340)" d="M1412.96 32.4315 Q1406.96 32.4315 1403.48 37.1306 Q1399.99 41.7891 1399.99 49.9314 Q1399.99 58.0738 1403.44 62.7728 Q1406.92 67.4314 1412.96 67.4314 Q1418.91 67.4314 1422.4 62.7323 Q1425.88 58.0333 1425.88 49.9314 Q1425.88 41.8701 1422.4 37.1711 Q1418.91 32.4315 1412.96 32.4315 M1412.96 26.1121 Q1422.68 26.1121 1428.23 32.4315 Q1433.78 38.7509 1433.78 49.9314 Q1433.78 61.0714 1428.23 67.4314 Q1422.68 73.7508 1412.96 73.7508 Q1403.19 73.7508 1397.64 67.4314 Q1392.14 61.0714 1392.14 49.9314 Q1392.14 38.7509 1397.64 32.4315 Q1403.19 26.1121 1412.96 26.1121 Z" fill="#000000" fill-rule="nonzero" fill-opacity="1" /><path clip-path="url(#clip340)" d="M1483.85 45.1919 L1483.85 72.576 L1476.39 72.576 L1476.39 45.4349 Q1476.39 38.994 1473.88 35.7938 Q1471.37 32.5936 1466.35 32.5936 Q1460.31 32.5936 1456.83 36.4419 Q1453.34 40.2903 1453.34 46.9338 L1453.34 72.576 L1445.85 72.576 L1445.85 27.2059 L1453.34 27.2059 L1453.34 34.2544 Q1456.02 30.163 1459.62 28.1376 Q1463.27 26.1121 1468.01 26.1121 Q1475.83 26.1121 1479.84 30.9732 Q1483.85 35.7938 1483.85 45.1919 Z" fill="#000000" fill-rule="nonzero" fill-opacity="1" /><path clip-path="url(#clip340)" d="M1506.09 14.324 L1506.09 27.2059 L1521.44 27.2059 L1521.44 32.9987 L1506.09 32.9987 L1506.09 57.6282 Q1506.09 63.1779 1507.59 64.7578 Q1509.13 66.3376 1513.78 66.3376 L1521.44 66.3376 L1521.44 72.576 L1513.78 72.576 Q1505.16 72.576 1501.87 69.3758 Q1498.59 66.1351 1498.59 57.6282 L1498.59 32.9987 L1493.12 32.9987 L1493.12 27.2059 L1498.59 27.2059 L1498.59 14.324 L1506.09 14.324 Z" fill="#000000" fill-rule="nonzero" fill-opacity="1" /><path clip-path="url(#clip340)" d="M1531.24 27.2059 L1538.7 27.2059 L1538.7 72.576 L1531.24 72.576 L1531.24 27.2059 M1531.24 9.54393 L1538.7 9.54393 L1538.7 18.9825 L1531.24 18.9825 L1531.24 9.54393 Z" fill="#000000" fill-rule="nonzero" fill-opacity="1" /><path clip-path="url(#clip340)" d="M1592.01 45.1919 L1592.01 72.576 L1584.55 72.576 L1584.55 45.4349 Q1584.55 38.994 1582.04 35.7938 Q1579.53 32.5936 1574.51 32.5936 Q1568.47 32.5936 1564.99 36.4419 Q1561.5 40.2903 1561.5 46.9338 L1561.5 72.576 L1554.01 72.576 L1554.01 27.2059 L1561.5 27.2059 L1561.5 34.2544 Q1564.18 30.163 1567.78 28.1376 Q1571.43 26.1121 1576.17 26.1121 Q1583.99 26.1121 1588 30.9732 Q1592.01 35.7938 1592.01 45.1919 Z" fill="#000000" fill-rule="nonzero" fill-opacity="1" /><path clip-path="url(#clip340)" d="M1606.1 54.671 L1606.1 27.2059 L1613.56 27.2059 L1613.56 54.3874 Q1613.56 60.8284 1616.07 64.0691 Q1618.58 67.2693 1623.6 67.2693 Q1629.64 67.2693 1633.12 63.421 Q1636.65 59.5726 1636.65 52.9291 L1636.65 27.2059 L1644.1 27.2059 L1644.1 72.576 L1636.65 72.576 L1636.65 65.6084 Q1633.93 69.7404 1630.33 71.7658 Q1626.76 73.7508 1622.02 73.7508 Q1614.21 73.7508 1610.15 68.8897 Q1606.1 64.0286 1606.1 54.671 M1624.86 26.1121 L1624.86 26.1121 Z" fill="#000000" fill-rule="nonzero" fill-opacity="1" /><path clip-path="url(#clip340)" d="M1677.04 32.4315 Q1671.04 32.4315 1667.56 37.1306 Q1664.07 41.7891 1664.07 49.9314 Q1664.07 58.0738 1667.52 62.7728 Q1671 67.4314 1677.04 67.4314 Q1682.99 67.4314 1686.47 62.7323 Q1689.96 58.0333 1689.96 49.9314 Q1689.96 41.8701 1686.47 37.1711 Q1682.99 32.4315 1677.04 32.4315 M1677.04 26.1121 Q1686.76 26.1121 1692.31 32.4315 Q1697.86 38.7509 1697.86 49.9314 Q1697.86 61.0714 1692.31 67.4314 Q1686.76 73.7508 1677.04 73.7508 Q1667.27 73.7508 1661.72 67.4314 Q1656.21 61.0714 1656.21 49.9314 Q1656.21 38.7509 1661.72 32.4315 Q1667.27 26.1121 1677.04 26.1121 Z" fill="#000000" fill-rule="nonzero" fill-opacity="1" /><path clip-path="url(#clip340)" d="M1709.44 54.671 L1709.44 27.2059 L1716.9 27.2059 L1716.9 54.3874 Q1716.9 60.8284 1719.41 64.0691 Q1721.92 67.2693 1726.94 67.2693 Q1732.98 67.2693 1736.46 63.421 Q1739.99 59.5726 1739.99 52.9291 L1739.99 27.2059 L1747.44 27.2059 L1747.44 72.576 L1739.99 72.576 L1739.99 65.6084 Q1737.27 69.7404 1733.67 71.7658 Q1730.1 73.7508 1725.36 73.7508 Q1717.54 73.7508 1713.49 68.8897 Q1709.44 64.0286 1709.44 54.671 M1728.2 26.1121 L1728.2 26.1121 Z" fill="#000000" fill-rule="nonzero" fill-opacity="1" /><path clip-path="url(#clip340)" d="M1791.72 28.5427 L1791.72 35.5912 Q1788.56 33.9709 1785.15 33.1607 Q1781.75 32.3505 1778.11 32.3505 Q1772.56 32.3505 1769.76 34.0519 Q1767.01 35.7533 1767.01 39.156 Q1767.01 41.7486 1768.99 43.2475 Q1770.98 44.7058 1776.97 46.0426 L1779.52 46.6097 Q1787.46 48.3111 1790.78 51.4303 Q1794.15 54.509 1794.15 60.0587 Q1794.15 66.3781 1789.12 70.0644 Q1784.14 73.7508 1775.39 73.7508 Q1771.75 73.7508 1767.78 73.0216 Q1763.85 72.3329 1759.47 70.9151 L1759.47 63.2184 Q1763.6 65.3654 1767.61 66.4591 Q1771.62 67.5124 1775.55 67.5124 Q1780.82 67.5124 1783.66 65.73 Q1786.49 63.9071 1786.49 60.6258 Q1786.49 57.5877 1784.42 55.9673 Q1782.4 54.3469 1775.47 52.8481 L1772.88 52.2405 Q1765.95 50.7821 1762.87 47.7845 Q1759.8 44.7463 1759.8 39.4801 Q1759.8 33.0797 1764.33 29.5959 Q1768.87 26.1121 1777.21 26.1121 Q1781.35 26.1121 1784.99 26.7198 Q1788.64 27.3274 1791.72 28.5427 Z" fill="#000000" fill-rule="nonzero" fill-opacity="1" /><path clip-path="url(#clip340)" d="M1832.71 12.096 L1870.95 12.096 L1870.95 18.9825 L1840.89 18.9825 L1840.89 36.8875 L1869.7 36.8875 L1869.7 43.7741 L1840.89 43.7741 L1840.89 65.6895 L1871.68 65.6895 L1871.68 72.576 L1832.71 72.576 L1832.71 12.096 Z" fill="#000000" fill-rule="nonzero" fill-opacity="1" /><path clip-path="url(#clip340)" d="M1921.39 14.0809 L1921.39 22.0612 Q1916.73 19.8332 1912.6 18.7395 Q1908.46 17.6457 1904.62 17.6457 Q1897.93 17.6457 1894.29 20.2383 Q1890.68 22.8309 1890.68 27.611 Q1890.68 31.6214 1893.07 33.6873 Q1895.5 35.7128 1902.23 36.9686 L1907.17 37.9813 Q1916.32 39.7232 1920.66 44.1387 Q1925.03 48.5136 1925.03 55.8863 Q1925.03 64.6767 1919.12 69.2137 Q1913.24 73.7508 1901.86 73.7508 Q1897.57 73.7508 1892.71 72.7785 Q1887.88 71.8063 1882.7 69.9024 L1882.7 61.4765 Q1887.68 64.2716 1892.46 65.6895 Q1897.24 67.1073 1901.86 67.1073 Q1908.87 67.1073 1912.68 64.3527 Q1916.48 61.598 1916.48 56.4939 Q1916.48 52.0379 1913.73 49.5264 Q1911.02 47.0148 1904.78 45.759 L1899.79 44.7868 Q1890.64 42.9639 1886.55 39.075 Q1882.46 35.1862 1882.46 28.2591 Q1882.46 20.2383 1888.09 15.6203 Q1893.76 11.0023 1903.68 11.0023 Q1907.94 11.0023 1912.35 11.7719 Q1916.77 12.5416 1921.39 14.0809 Z" fill="#000000" fill-rule="nonzero" fill-opacity="1" /><path clip-path="url(#clip340)" d="M1937.79 12.096 L1948.81 12.096 L1975.63 62.6918 L1975.63 12.096 L1983.57 12.096 L1983.57 72.576 L1972.55 72.576 L1945.73 21.9802 L1945.73 72.576 L1937.79 72.576 L1937.79 12.096 Z" fill="#000000" fill-rule="nonzero" fill-opacity="1" /><path clip-path="url(#clip340)" d="M2052.19 34.1734 Q2050.93 33.4443 2049.43 33.1202 Q2047.98 32.7556 2046.19 32.7556 Q2039.87 32.7556 2036.47 36.8875 Q2033.11 40.9789 2033.11 48.6757 L2033.11 72.576 L2025.62 72.576 L2025.62 27.2059 L2033.11 27.2059 L2033.11 34.2544 Q2035.46 30.1225 2039.23 28.1376 Q2042.99 26.1121 2048.38 26.1121 Q2049.15 26.1121 2050.08 26.2337 Q2051.01 26.3147 2052.15 26.5172 L2052.19 34.1734 Z" fill="#000000" fill-rule="nonzero" fill-opacity="1" /><path clip-path="url(#clip340)" d="M2075.77 32.4315 Q2069.77 32.4315 2066.29 37.1306 Q2062.8 41.7891 2062.8 49.9314 Q2062.8 58.0738 2066.25 62.7728 Q2069.73 67.4314 2075.77 67.4314 Q2081.72 67.4314 2085.2 62.7323 Q2088.69 58.0333 2088.69 49.9314 Q2088.69 41.8701 2085.2 37.1711 Q2081.72 32.4315 2075.77 32.4315 M2075.77 26.1121 Q2085.49 26.1121 2091.04 32.4315 Q2096.59 38.7509 2096.59 49.9314 Q2096.59 61.0714 2091.04 67.4314 Q2085.49 73.7508 2075.77 73.7508 Q2066 73.7508 2060.45 67.4314 Q2054.94 61.0714 2054.94 49.9314 Q2054.94 38.7509 2060.45 32.4315 Q2066 26.1121 2075.77 26.1121 Z" fill="#000000" fill-rule="nonzero" fill-opacity="1" /><path clip-path="url(#clip340)" d="M2108.94 9.54393 L2116.4 9.54393 L2116.4 72.576 L2108.94 72.576 L2108.94 9.54393 Z" fill="#000000" fill-rule="nonzero" fill-opacity="1" /><path clip-path="url(#clip340)" d="M2131.99 9.54393 L2139.45 9.54393 L2139.45 72.576 L2131.99 72.576 L2131.99 9.54393 Z" fill="#000000" fill-rule="nonzero" fill-opacity="1" /><path clip-path="url(#clip340)" d="M2172.62 32.4315 Q2166.63 32.4315 2163.14 37.1306 Q2159.66 41.7891 2159.66 49.9314 Q2159.66 58.0738 2163.1 62.7728 Q2166.59 67.4314 2172.62 67.4314 Q2178.58 67.4314 2182.06 62.7323 Q2185.55 58.0333 2185.55 49.9314 Q2185.55 41.8701 2182.06 37.1711 Q2178.58 32.4315 2172.62 32.4315 M2172.62 26.1121 Q2182.35 26.1121 2187.89 32.4315 Q2193.44 38.7509 2193.44 49.9314 Q2193.44 61.0714 2187.89 67.4314 Q2182.35 73.7508 2172.62 73.7508 Q2162.86 73.7508 2157.31 67.4314 Q2151.8 61.0714 2151.8 49.9314 Q2151.8 38.7509 2157.31 32.4315 Q2162.86 26.1121 2172.62 26.1121 Z" fill="#000000" fill-rule="nonzero" fill-opacity="1" /><path clip-path="url(#clip340)" d="M2205.03 54.671 L2205.03 27.2059 L2212.48 27.2059 L2212.48 54.3874 Q2212.48 60.8284 2215 64.0691 Q2217.51 67.2693 2222.53 67.2693 Q2228.57 67.2693 2232.05 63.421 Q2235.57 59.5726 2235.57 52.9291 L2235.57 27.2059 L2243.03 27.2059 L2243.03 72.576 L2235.57 72.576 L2235.57 65.6084 Q2232.86 69.7404 2229.25 71.7658 Q2225.69 73.7508 2220.95 73.7508 Q2213.13 73.7508 2209.08 68.8897 Q2205.03 64.0286 2205.03 54.671 M2223.79 26.1121 L2223.79 26.1121 Z" fill="#000000" fill-rule="nonzero" fill-opacity="1" /><path clip-path="url(#clip340)" d="M2265.75 14.324 L2265.75 27.2059 L2281.11 27.2059 L2281.11 32.9987 L2265.75 32.9987 L2265.75 57.6282 Q2265.75 63.1779 2267.25 64.7578 Q2268.79 66.3376 2273.45 66.3376 L2281.11 66.3376 L2281.11 72.576 L2273.45 72.576 Q2264.82 72.576 2261.54 69.3758 Q2258.26 66.1351 2258.26 57.6282 L2258.26 32.9987 L2252.79 32.9987 L2252.79 27.2059 L2258.26 27.2059 L2258.26 14.324 L2265.75 14.324 Z" fill="#000000" fill-rule="nonzero" fill-opacity="1" /><polyline clip-path="url(#clip341)" style="stroke:#009af9; stroke-linecap:round; stroke-linejoin:round; stroke-width:8; stroke-opacity:1; fill:none" points="316.512,392.029 326.446,419.911 336.381,446.682 346.315,472.289 356.25,496.664 366.184,519.146 376.118,540.005 386.053,559.482 395.987,577.396 405.921,593.139 415.856,605.683 425.79,613.572 435.724,614.93 445.659,607.456 455.593,588.557 465.527,559.197 475.462,523.574 485.396,485.429 495.33,447.929 505.265,413.668 515.199,384.664 525.133,362.064 535.068,345.433 545.002,334.19 554.937,327.718 564.871,325.349 574.805,326.361 584.74,330.026 594.674,335.512 604.608,341.097 614.543,345.118 624.477,346.125 634.411,342.88 644.346,334.359 654.28,319.781 664.214,300.463 674.149,280.257 684.083,262.356 694.017,249.016 703.952,241.472 713.886,238.88 723.82,239.367 733.755,241.303 743.689,243.321 753.624,244.317 763.558,243.479 773.492,240.835 783.427,236.925 793.361,232.599 803.295,229.016 813.23,227.645 823.164,230.628 833.098,239.749 843.033,255.014 852.967,275.626 862.901,300.011 872.836,325.811 882.77,350.244 892.704,372.499 902.639,392.334 912.573,409.726 922.507,424.955 932.442,438.599 942.376,451.482 952.311,464.022 962.245,476.518 972.179,488.961 982.114,500.932 992.048,511.603 1001.98,519.741 1011.92,523.704 1021.85,521.412 1031.79,510.417 1041.72,491.324 1051.65,465.917 1061.59,436.271 1071.52,404.754 1081.46,374.029 1091.39,346.165 1101.33,321.366 1111.26,299.809 1121.19,281.578 1131.13,266.67 1141.06,254.985 1151,246.338 1160.93,240.356 1170.87,236.435 1180.8,233.82 1190.73,231.609 1200.67,228.754 1210.6,224.06 1220.54,216.183 1230.47,204.714 1240.41,193.015 1250.34,184.552 1260.28,181.912 1270.21,186.807 1280.14,199.844 1290.08,219.288 1300.01,242.907 1309.95,268.83 1319.88,295.54 1329.82,321.871 1339.75,347.069 1349.68,370.757 1359.62,392.793 1369.55,413.313 1379.49,432.728 1389.42,451.728 1399.36,471.171 1409.29,491.066 1419.22,510.805 1429.16,529.597 1439.09,546.471 1449.03,560.273 1458.96,569.669 1468.9,573.142 1478.83,568.612 1488.77,555.229 1498.7,533.927 1508.63,506.107 1518.57,473.634 1528.5,438.837 1538.44,404.509 1548.37,373.623 1558.31,346.885 1568.24,324.658 1578.17,307.228 1588.11,294.604 1598.04,286.516 1607.98,282.446 1617.91,281.718 1627.85,283.079 1637.78,285.224 1647.72,286.906 1657.65,286.934 1667.58,284.174 1677.52,277.547 1687.45,265.993 1697.39,250.072 1707.32,234.15 1717.26,221.926 1727.19,215.812 1737.12,216.93 1747.06,225.061 1756.99,238.212 1766.93,253.991 1776.86,270.499 1786.8,286.317 1796.73,300.514 1806.66,312.655 1816.6,322.947 1826.53,332.029 1836.47,340.76 1846.4,350.214 1856.34,361.688 1866.27,376.695 1876.21,395.665 1886.14,416.595 1896.07,437.719 1906.01,457.409 1915.94,474.171 1925.88,486.65 1935.81,493.825 1945.75,495.298 1955.68,491.107 1965.61,481.693 1975.55,467.902 1985.48,450.987 1995.42,432.5 2005.35,412.894 2015.29,391.905 2025.22,369.581 2035.15,346.295 2045.09,322.748 2055.02,299.968 2064.96,279.514 2074.89,262.33 2084.83,248.581 2094.76,238.06 2104.7,230.183 2114.63,223.989 2124.56,218.158 2134.5,211.847 2144.43,204.572 2154.37,196.074 2164.3,186.581 2174.24,176.808 2184.17,167.957 2194.1,161.715 2204.04,160.256 2213.97,166.242 2223.91,181.132 2233.84,202.758 2243.78,228.961 2253.71,257.847 2263.64,287.788 2273.58,317.42 2283.51,345.867 2293.45,373.075 "/>
<polyline clip-path="url(#clip341)" style="stroke:#e26f46; stroke-linecap:round; stroke-linejoin:round; stroke-width:8; stroke-opacity:1; fill:none" points="316.512,397.32 326.446,411.951 336.381,438.37 346.315,466.157 356.25,496.728 366.184,532.438 376.118,575.8 386.053,629.223 395.987,694.204 405.921,770.601 415.856,856.265 425.79,946.688 435.724,1034.14 445.659,1106.27 455.593,1145.89 465.527,1136.07 475.462,1072.89 485.396,977.013 495.33,883.664 505.265,813.23 515.199,759.917 525.133,709.956 535.068,657.504 545.002,604.661 554.937,556.472 564.871,518.165 574.805,494.505 584.74,489.719 594.674,507.271 604.608,549.504 614.543,617.363 624.477,710.315 634.411,826.336 644.346,961.471 654.28,1107.88 664.214,1248.92 674.149,1352.03 684.083,1369.8 694.017,1271.69 703.952,1101.84 713.886,968.854 723.82,919.011 733.755,896.74 743.689,852.7 753.624,786.222 763.558,714.224 773.492,648.633 783.427,593.845 793.361,551.638 803.295,524.501 813.23,516.013 823.164,530.078 833.098,570.088 843.033,638.215 852.967,734.871 862.901,858.192 872.836,1003.01 882.77,1158.02 892.704,1299.79 902.639,1386.4 912.573,1367.09 922.507,1231.07 932.442,1060.05 942.376,963.149 952.311,939.349 962.245,915.808 972.179,862.049 982.114,790.867 992.048,720.546 1001.98,659.707 1011.92,610.099 1021.85,572.675 1031.79,549.941 1041.72,545.56 1051.65,563.428 1061.59,606.84 1071.52,677.758 1081.46,776.129 1091.39,899.087 1101.33,1039.42 1111.26,1182.2 1121.19,1299.45 1131.13,1348.88 1141.06,1293.99 1151,1152.63 1160.93,1013.85 1170.87,947.023 1180.8,924.279 1190.73,891.305 1200.67,834.908 1210.6,768.315 1220.54,705.09 1230.47,651.322 1240.41,608.856 1250.34,579.386 1260.28,565.717 1270.21,571.316 1280.14,599.536 1290.08,652.862 1300.01,732.191 1309.95,836.073 1319.88,959.601 1329.82,1092.26 1339.75,1214.23 1349.68,1293.36 1359.62,1292.65 1369.55,1200.71 1379.49,1065.99 1389.42,966.668 1399.36,923.787 1409.29,896.616 1419.22,853.885 1429.16,795.885 1439.09,734.68 1449.03,679.398 1458.96,634.127 1468.9,600.96 1478.83,582.257 1488.77,581.017 1498.7,600.367 1508.63,642.867 1518.57,709.816 1528.5,800.517 1538.44,911.336 1548.37,1034.09 1558.31,1153.27 1568.24,1243.15 1578.17,1270.71 1588.11,1215.11 1598.04,1099.6 1607.98,989.62 1617.91,928.211 1627.85,896.775 1637.78,860.891 1647.72,810.441 1657.65,753.001 1667.58,698.166 1677.52,651.659 1687.45,616.406 1697.39,594.779 1707.32,589.516 1717.26,603.528 1727.19,639.327 1737.12,698.363 1747.06,780.33 1756.99,882.307 1766.93,997.408 1776.86,1112.53 1786.8,1205.77 1796.73,1247.6 1806.66,1214.69 1816.6,1117.1 1826.53,1007.34 1836.47,934.803 1846.4,897.084 1856.34,863.404 1866.27,817.957 1876.21,764.041 1886.14,710.453 1896.07,663.688 1906.01,627.37 1915.94,604.062 1925.88,596.402 1935.81,607.157 1945.75,638.763 1955.68,692.721 1965.61,768.922 1975.55,864.849 1985.48,974.365 1995.42,1085.76 2005.35,1179.44 2015.29,1228.42 2025.22,1209.08 2035.15,1124.75 2045.09,1018.69 2055.02,940.589 2064.96,897.73 2074.89,864.18 2084.83,821.713 2094.76,770.519 2104.7,718.301 2114.63,671.785 2124.56,635.051 2134.5,610.866 2144.43,601.844 2154.37,610.662 2164.3,639.688 2174.24,690.422 2184.17,762.848 2194.1,854.665 2204.04,960.166 2213.97,1068.46 2223.91,1161.38 2233.84,1213.67 2243.78,1202.16 2253.71,1126.82 2263.64,1024.86 2273.58,944.482 2283.51,898.17 2293.45,864.076 "/>
<path clip-path="url(#clip340)" d="M327.056 1379.86 L752.883 1379.86 L752.883 1224.34 L327.056 1224.34  Z" fill="#ffffff" fill-rule="evenodd" fill-opacity="1"/>
<polyline clip-path="url(#clip340)" style="stroke:#000000; stroke-linecap:round; stroke-linejoin:round; stroke-width:4; stroke-opacity:1; fill:none" points="327.056,1379.86 752.883,1379.86 752.883,1224.34 327.056,1224.34 327.056,1379.86 "/>
<polyline clip-path="url(#clip340)" style="stroke:#009af9; stroke-linecap:round; stroke-linejoin:round; stroke-width:8; stroke-opacity:1; fill:none" points="350.34,1276.18 490.043,1276.18 "/>
<path clip-path="url(#clip340)" d="M526.73 1280.42 Q521.568 1280.42 519.577 1281.6 Q517.586 1282.79 517.586 1285.63 Q517.586 1287.9 519.068 1289.24 Q520.572 1290.56 523.142 1290.56 Q526.683 1290.56 528.813 1288.06 Q530.966 1285.54 530.966 1281.37 L530.966 1280.42 L526.73 1280.42 M535.225 1278.66 L535.225 1293.46 L530.966 1293.46 L530.966 1289.52 Q529.508 1291.88 527.332 1293.02 Q525.156 1294.13 522.008 1294.13 Q518.026 1294.13 515.665 1291.91 Q513.327 1289.66 513.327 1285.91 Q513.327 1281.54 516.244 1279.31 Q519.183 1277.09 524.994 1277.09 L530.966 1277.09 L530.966 1276.67 Q530.966 1273.73 529.021 1272.14 Q527.1 1270.52 523.605 1270.52 Q521.383 1270.52 519.276 1271.05 Q517.17 1271.58 515.225 1272.65 L515.225 1268.71 Q517.563 1267.81 519.762 1267.37 Q521.961 1266.91 524.045 1266.91 Q529.67 1266.91 532.447 1269.82 Q535.225 1272.74 535.225 1278.66 Z" fill="#000000" fill-rule="nonzero" fill-opacity="1" /><path clip-path="url(#clip340)" d="M562.655 1268.53 L562.655 1272.51 Q560.85 1271.51 559.021 1271.03 Q557.216 1270.52 555.364 1270.52 Q551.22 1270.52 548.929 1273.16 Q546.637 1275.77 546.637 1280.52 Q546.637 1285.26 548.929 1287.9 Q551.22 1290.52 555.364 1290.52 Q557.216 1290.52 559.021 1290.03 Q560.85 1289.52 562.655 1288.53 L562.655 1292.46 Q560.873 1293.29 558.952 1293.71 Q557.054 1294.13 554.901 1294.13 Q549.044 1294.13 545.595 1290.45 Q542.146 1286.77 542.146 1280.52 Q542.146 1274.17 545.619 1270.54 Q549.114 1266.91 555.179 1266.91 Q557.146 1266.91 559.021 1267.32 Q560.896 1267.72 562.655 1268.53 Z" fill="#000000" fill-rule="nonzero" fill-opacity="1" /><path clip-path="url(#clip340)" d="M574.276 1260.17 L574.276 1267.53 L583.049 1267.53 L583.049 1270.84 L574.276 1270.84 L574.276 1284.91 Q574.276 1288.09 575.132 1288.99 Q576.012 1289.89 578.674 1289.89 L583.049 1289.89 L583.049 1293.46 L578.674 1293.46 Q573.743 1293.46 571.868 1291.63 Q569.993 1289.78 569.993 1284.91 L569.993 1270.84 L566.868 1270.84 L566.868 1267.53 L569.993 1267.53 L569.993 1260.17 L574.276 1260.17 Z" fill="#000000" fill-rule="nonzero" fill-opacity="1" /><path clip-path="url(#clip340)" d="M588.211 1283.22 L588.211 1267.53 L592.47 1267.53 L592.47 1283.06 Q592.47 1286.74 593.905 1288.6 Q595.34 1290.42 598.211 1290.42 Q601.66 1290.42 603.651 1288.22 Q605.665 1286.03 605.665 1282.23 L605.665 1267.53 L609.924 1267.53 L609.924 1293.46 L605.665 1293.46 L605.665 1289.47 Q604.114 1291.84 602.053 1292.99 Q600.016 1294.13 597.308 1294.13 Q592.84 1294.13 590.526 1291.35 Q588.211 1288.57 588.211 1283.22 M598.928 1266.91 L598.928 1266.91 Z" fill="#000000" fill-rule="nonzero" fill-opacity="1" /><path clip-path="url(#clip340)" d="M630.479 1280.42 Q625.317 1280.42 623.326 1281.6 Q621.336 1282.79 621.336 1285.63 Q621.336 1287.9 622.817 1289.24 Q624.322 1290.56 626.891 1290.56 Q630.433 1290.56 632.563 1288.06 Q634.715 1285.54 634.715 1281.37 L634.715 1280.42 L630.479 1280.42 M638.975 1278.66 L638.975 1293.46 L634.715 1293.46 L634.715 1289.52 Q633.257 1291.88 631.081 1293.02 Q628.905 1294.13 625.757 1294.13 Q621.776 1294.13 619.414 1291.91 Q617.076 1289.66 617.076 1285.91 Q617.076 1281.54 619.993 1279.31 Q622.933 1277.09 628.743 1277.09 L634.715 1277.09 L634.715 1276.67 Q634.715 1273.73 632.771 1272.14 Q630.85 1270.52 627.354 1270.52 Q625.132 1270.52 623.026 1271.05 Q620.919 1271.58 618.975 1272.65 L618.975 1268.71 Q621.313 1267.81 623.512 1267.37 Q625.711 1266.91 627.794 1266.91 Q633.419 1266.91 636.197 1269.82 Q638.975 1272.74 638.975 1278.66 Z" fill="#000000" fill-rule="nonzero" fill-opacity="1" /><path clip-path="url(#clip340)" d="M647.748 1257.44 L652.007 1257.44 L652.007 1293.46 L647.748 1293.46 L647.748 1257.44 Z" fill="#000000" fill-rule="nonzero" fill-opacity="1" /><polyline clip-path="url(#clip340)" style="stroke:#e26f46; stroke-linecap:round; stroke-linejoin:round; stroke-width:8; stroke-opacity:1; fill:none" points="350.34,1328.02 490.043,1328.02 "/>
<path clip-path="url(#clip340)" d="M517.609 1341.41 L517.609 1355.16 L513.327 1355.16 L513.327 1319.37 L517.609 1319.37 L517.609 1323.31 Q518.952 1320.99 520.989 1319.88 Q523.049 1318.75 525.896 1318.75 Q530.619 1318.75 533.558 1322.5 Q536.521 1326.25 536.521 1332.36 Q536.521 1338.47 533.558 1342.22 Q530.619 1345.97 525.896 1345.97 Q523.049 1345.97 520.989 1344.86 Q518.952 1343.72 517.609 1341.41 M532.1 1332.36 Q532.1 1327.66 530.156 1325 Q528.234 1322.31 524.855 1322.31 Q521.475 1322.31 519.531 1325 Q517.609 1327.66 517.609 1332.36 Q517.609 1337.06 519.531 1339.74 Q521.475 1342.4 524.855 1342.4 Q528.234 1342.4 530.156 1339.74 Q532.1 1337.06 532.1 1332.36 Z" fill="#000000" fill-rule="nonzero" fill-opacity="1" /><path clip-path="url(#clip340)" d="M558.605 1323.35 Q557.887 1322.94 557.031 1322.75 Q556.197 1322.54 555.179 1322.54 Q551.568 1322.54 549.623 1324.9 Q547.702 1327.24 547.702 1331.64 L547.702 1345.3 L543.419 1345.3 L543.419 1319.37 L547.702 1319.37 L547.702 1323.4 Q549.044 1321.04 551.197 1319.9 Q553.35 1318.75 556.429 1318.75 Q556.868 1318.75 557.401 1318.81 Q557.933 1318.86 558.581 1318.98 L558.605 1323.35 Z" fill="#000000" fill-rule="nonzero" fill-opacity="1" /><path clip-path="url(#clip340)" d="M584.206 1331.27 L584.206 1333.35 L564.623 1333.35 Q564.901 1337.75 567.262 1340.06 Q569.646 1342.36 573.882 1342.36 Q576.336 1342.36 578.628 1341.75 Q580.942 1341.15 583.211 1339.95 L583.211 1343.98 Q580.919 1344.95 578.512 1345.46 Q576.104 1345.97 573.628 1345.97 Q567.424 1345.97 563.79 1342.36 Q560.179 1338.75 560.179 1332.59 Q560.179 1326.22 563.605 1322.5 Q567.054 1318.75 572.887 1318.75 Q578.118 1318.75 581.151 1322.13 Q584.206 1325.48 584.206 1331.27 M579.947 1330.02 Q579.901 1326.52 577.979 1324.44 Q576.081 1322.36 572.933 1322.36 Q569.368 1322.36 567.216 1324.37 Q565.086 1326.38 564.762 1330.04 L579.947 1330.02 Z" fill="#000000" fill-rule="nonzero" fill-opacity="1" /><path clip-path="url(#clip340)" d="M608.257 1323.31 L608.257 1309.28 L612.516 1309.28 L612.516 1345.3 L608.257 1345.3 L608.257 1341.41 Q606.914 1343.72 604.854 1344.86 Q602.817 1345.97 599.947 1345.97 Q595.248 1345.97 592.285 1342.22 Q589.345 1338.47 589.345 1332.36 Q589.345 1326.25 592.285 1322.5 Q595.248 1318.75 599.947 1318.75 Q602.817 1318.75 604.854 1319.88 Q606.914 1320.99 608.257 1323.31 M593.743 1332.36 Q593.743 1337.06 595.665 1339.74 Q597.609 1342.4 600.989 1342.4 Q604.368 1342.4 606.313 1339.74 Q608.257 1337.06 608.257 1332.36 Q608.257 1327.66 606.313 1325 Q604.368 1322.31 600.989 1322.31 Q597.609 1322.31 595.665 1325 Q593.743 1327.66 593.743 1332.36 Z" fill="#000000" fill-rule="nonzero" fill-opacity="1" /><path clip-path="url(#clip340)" d="M621.289 1319.37 L625.549 1319.37 L625.549 1345.3 L621.289 1345.3 L621.289 1319.37 M621.289 1309.28 L625.549 1309.28 L625.549 1314.67 L621.289 1314.67 L621.289 1309.28 Z" fill="#000000" fill-rule="nonzero" fill-opacity="1" /><path clip-path="url(#clip340)" d="M653.118 1320.37 L653.118 1324.35 Q651.312 1323.35 649.484 1322.87 Q647.678 1322.36 645.826 1322.36 Q641.683 1322.36 639.391 1325 Q637.1 1327.61 637.1 1332.36 Q637.1 1337.1 639.391 1339.74 Q641.683 1342.36 645.826 1342.36 Q647.678 1342.36 649.484 1341.87 Q651.312 1341.36 653.118 1340.37 L653.118 1344.3 Q651.336 1345.13 649.414 1345.55 Q647.516 1345.97 645.363 1345.97 Q639.507 1345.97 636.058 1342.29 Q632.609 1338.61 632.609 1332.36 Q632.609 1326.01 636.081 1322.38 Q639.576 1318.75 645.641 1318.75 Q647.609 1318.75 649.484 1319.16 Q651.359 1319.56 653.118 1320.37 Z" fill="#000000" fill-rule="nonzero" fill-opacity="1" /><path clip-path="url(#clip340)" d="M664.738 1312.01 L664.738 1319.37 L673.511 1319.37 L673.511 1322.68 L664.738 1322.68 L664.738 1336.75 Q664.738 1339.93 665.595 1340.83 Q666.474 1341.73 669.136 1341.73 L673.511 1341.73 L673.511 1345.3 L669.136 1345.3 Q664.206 1345.3 662.331 1343.47 Q660.456 1341.62 660.456 1336.75 L660.456 1322.68 L657.331 1322.68 L657.331 1319.37 L660.456 1319.37 L660.456 1312.01 L664.738 1312.01 Z" fill="#000000" fill-rule="nonzero" fill-opacity="1" /><path clip-path="url(#clip340)" d="M701.289 1331.27 L701.289 1333.35 L681.706 1333.35 Q681.984 1337.75 684.345 1340.06 Q686.729 1342.36 690.965 1342.36 Q693.419 1342.36 695.71 1341.75 Q698.025 1341.15 700.294 1339.95 L700.294 1343.98 Q698.002 1344.95 695.595 1345.46 Q693.187 1345.97 690.71 1345.97 Q684.507 1345.97 680.872 1342.36 Q677.261 1338.75 677.261 1332.59 Q677.261 1326.22 680.687 1322.5 Q684.136 1318.75 689.97 1318.75 Q695.201 1318.75 698.233 1322.13 Q701.289 1325.48 701.289 1331.27 M697.03 1330.02 Q696.983 1326.52 695.062 1324.44 Q693.164 1322.36 690.016 1322.36 Q686.451 1322.36 684.298 1324.37 Q682.169 1326.38 681.845 1330.04 L697.03 1330.02 Z" fill="#000000" fill-rule="nonzero" fill-opacity="1" /><path clip-path="url(#clip340)" d="M725.34 1323.31 L725.34 1309.28 L729.599 1309.28 L729.599 1345.3 L725.34 1345.3 L725.34 1341.41 Q723.997 1343.72 721.937 1344.86 Q719.9 1345.97 717.03 1345.97 Q712.331 1345.97 709.368 1342.22 Q706.428 1338.47 706.428 1332.36 Q706.428 1326.25 709.368 1322.5 Q712.331 1318.75 717.03 1318.75 Q719.9 1318.75 721.937 1319.88 Q723.997 1320.99 725.34 1323.31 M710.826 1332.36 Q710.826 1337.06 712.747 1339.74 Q714.692 1342.4 718.071 1342.4 Q721.451 1342.4 723.395 1339.74 Q725.34 1337.06 725.34 1332.36 Q725.34 1327.66 723.395 1325 Q721.451 1322.31 718.071 1322.31 Q714.692 1322.31 712.747 1325 Q710.826 1327.66 710.826 1332.36 Z" fill="#000000" fill-rule="nonzero" fill-opacity="1" /></svg>
