<?xml version="1.0" encoding="utf-8"?>
<svg xmlns="http://www.w3.org/2000/svg" xmlns:xlink="http://www.w3.org/1999/xlink" width="600" height="400" viewBox="0 0 2400 1600">
<defs>
  <clipPath id="clip660">
    <rect x="0" y="0" width="2400" height="1600"/>
  </clipPath>
</defs>
<path clip-path="url(#clip660)" d="M0 1600 L2400 1600 L2400 0 L0 0  Z" fill="#ffffff" fill-rule="evenodd" fill-opacity="1"/>
<defs>
  <clipPath id="clip661">
    <rect x="141" y="47" width="2212" height="1440"/>
  </clipPath>
</defs>
<path clip-path="url(#clip661)" d="M1222.74 779.37 L1222.74 750.105 L1245.17 735.473 L1284 743.921 L1284 773.186 L1261.58 787.818 L1222.74 779.37  Z" fill="#ffffff" fill-rule="evenodd" fill-opacity="1"/>
<polyline clip-path="url(#clip661)" style="stroke:#000000; stroke-linecap:round; stroke-linejoin:round; stroke-width:2; stroke-opacity:0.1; fill:none" points="750.254,1223.03 1165.72,863.227 1165.72,143.625 "/>
<polyline clip-path="url(#clip661)" style="stroke:#000000; stroke-linecap:round; stroke-linejoin:round; stroke-width:2; stroke-opacity:0.1; fill:none" points="847.352,1251.06 1262.81,891.257 1262.81,171.655 "/>
<polyline clip-path="url(#clip661)" style="stroke:#000000; stroke-linecap:round; stroke-linejoin:round; stroke-width:2; stroke-opacity:0.1; fill:none" points="944.45,1279.09 1359.91,919.287 1359.91,199.685 "/>
<polyline clip-path="url(#clip661)" style="stroke:#000000; stroke-linecap:round; stroke-linejoin:round; stroke-width:2; stroke-opacity:0.1; fill:none" points="1041.55,1307.12 1457.01,947.317 1457.01,227.715 "/>
<polyline clip-path="url(#clip661)" style="stroke:#000000; stroke-linecap:round; stroke-linejoin:round; stroke-width:2; stroke-opacity:0.1; fill:none" points="1138.65,1335.15 1554.11,975.346 1554.11,255.745 "/>
<polyline clip-path="url(#clip661)" style="stroke:#000000; stroke-linecap:round; stroke-linejoin:round; stroke-width:2; stroke-opacity:0.1; fill:none" points="1235.74,1363.18 1651.21,1003.38 1651.21,283.774 "/>
<polyline clip-path="url(#clip661)" style="stroke:#000000; stroke-linecap:round; stroke-linejoin:round; stroke-width:2; stroke-opacity:0.1; fill:none" points="1332.84,1391.21 1748.31,1031.41 1748.31,311.804 "/>
<polyline clip-path="url(#clip661)" style="stroke:#000000; stroke-linecap:round; stroke-linejoin:round; stroke-width:2; stroke-opacity:0.1; fill:none" points="1439.64,1375.54 720.043,1167.81 720.043,448.204 "/>
<polyline clip-path="url(#clip661)" style="stroke:#000000; stroke-linecap:round; stroke-linejoin:round; stroke-width:2; stroke-opacity:0.1; fill:none" points="1524.13,1302.37 804.524,1094.64 804.524,375.042 "/>
<polyline clip-path="url(#clip661)" style="stroke:#000000; stroke-linecap:round; stroke-linejoin:round; stroke-width:2; stroke-opacity:0.1; fill:none" points="1608.61,1229.21 889.005,1021.48 889.005,301.879 "/>
<polyline clip-path="url(#clip661)" style="stroke:#000000; stroke-linecap:round; stroke-linejoin:round; stroke-width:2; stroke-opacity:0.1; fill:none" points="1693.09,1156.05 973.486,948.319 973.486,228.717 "/>
<polyline clip-path="url(#clip661)" style="stroke:#000000; stroke-linecap:round; stroke-linejoin:round; stroke-width:2; stroke-opacity:0.1; fill:none" points="1777.57,1082.89 1057.97,875.156 1057.97,155.554 "/>
<polyline clip-path="url(#clip661)" style="stroke:#000000; stroke-linecap:round; stroke-linejoin:round; stroke-width:2; stroke-opacity:0.1; fill:none" points="679.772,1121.56 1095.23,761.763 1814.84,969.494 "/>
<polyline clip-path="url(#clip661)" style="stroke:#000000; stroke-linecap:round; stroke-linejoin:round; stroke-width:2; stroke-opacity:0.1; fill:none" points="679.772,939.977 1095.23,580.176 1814.84,787.907 "/>
<polyline clip-path="url(#clip661)" style="stroke:#000000; stroke-linecap:round; stroke-linejoin:round; stroke-width:2; stroke-opacity:0.1; fill:none" points="679.772,758.391 1095.23,398.59 1814.84,606.321 "/>
<polyline clip-path="url(#clip661)" style="stroke:#000000; stroke-linecap:round; stroke-linejoin:round; stroke-width:2; stroke-opacity:0.1; fill:none" points="679.772,576.804 1095.23,217.003 1814.84,424.734 "/>
<polyline clip-path="url(#clip660)" style="stroke:#000000; stroke-linecap:round; stroke-linejoin:round; stroke-width:4; stroke-opacity:1; fill:none" points="679.772,1202.68 1399.37,1410.41 "/>
<polyline clip-path="url(#clip660)" style="stroke:#000000; stroke-linecap:round; stroke-linejoin:round; stroke-width:4; stroke-opacity:1; fill:none" points="750.254,1223.03 755.239,1218.71 "/>
<polyline clip-path="url(#clip660)" style="stroke:#000000; stroke-linecap:round; stroke-linejoin:round; stroke-width:4; stroke-opacity:1; fill:none" points="847.352,1251.06 852.338,1246.74 "/>
<polyline clip-path="url(#clip660)" style="stroke:#000000; stroke-linecap:round; stroke-linejoin:round; stroke-width:4; stroke-opacity:1; fill:none" points="944.45,1279.09 949.436,1274.77 "/>
<polyline clip-path="url(#clip660)" style="stroke:#000000; stroke-linecap:round; stroke-linejoin:round; stroke-width:4; stroke-opacity:1; fill:none" points="1041.55,1307.12 1046.53,1302.8 "/>
<polyline clip-path="url(#clip660)" style="stroke:#000000; stroke-linecap:round; stroke-linejoin:round; stroke-width:4; stroke-opacity:1; fill:none" points="1138.65,1335.15 1143.63,1330.83 "/>
<polyline clip-path="url(#clip660)" style="stroke:#000000; stroke-linecap:round; stroke-linejoin:round; stroke-width:4; stroke-opacity:1; fill:none" points="1235.74,1363.18 1240.73,1358.86 "/>
<polyline clip-path="url(#clip660)" style="stroke:#000000; stroke-linecap:round; stroke-linejoin:round; stroke-width:4; stroke-opacity:1; fill:none" points="1332.84,1391.21 1337.83,1386.89 "/>
<path clip-path="url(#clip660)" d="M653.254 1251.62 L682.929 1251.62 L682.929 1255.56 L653.254 1255.56 L653.254 1251.62 Z" fill="#000000" fill-rule="nonzero" fill-opacity="1" /><path clip-path="url(#clip660)" d="M693.832 1264.51 L701.471 1264.51 L701.471 1238.15 L693.161 1239.82 L693.161 1235.56 L701.425 1233.89 L706.1 1233.89 L706.1 1264.51 L713.739 1264.51 L713.739 1268.45 L693.832 1268.45 L693.832 1264.51 Z" fill="#000000" fill-rule="nonzero" fill-opacity="1" /><path clip-path="url(#clip660)" d="M723.23 1233.89 L741.586 1233.89 L741.586 1237.83 L727.512 1237.83 L727.512 1246.3 Q728.531 1245.95 729.549 1245.79 Q730.568 1245.6 731.586 1245.6 Q737.373 1245.6 740.753 1248.77 Q744.133 1251.95 744.133 1257.36 Q744.133 1262.94 740.66 1266.04 Q737.188 1269.12 730.869 1269.12 Q728.693 1269.12 726.424 1268.75 Q724.179 1268.38 721.772 1267.64 L721.772 1262.94 Q723.855 1264.08 726.077 1264.63 Q728.299 1265.19 730.776 1265.19 Q734.781 1265.19 737.119 1263.08 Q739.457 1260.97 739.457 1257.36 Q739.457 1253.75 737.119 1251.64 Q734.781 1249.54 730.776 1249.54 Q728.901 1249.54 727.026 1249.95 Q725.174 1250.37 723.23 1251.25 L723.23 1233.89 Z" fill="#000000" fill-rule="nonzero" fill-opacity="1" /><path clip-path="url(#clip660)" d="M749.356 1279.65 L779.032 1279.65 L779.032 1283.59 L749.356 1283.59 L749.356 1279.65 Z" fill="#000000" fill-rule="nonzero" fill-opacity="1" /><path clip-path="url(#clip660)" d="M789.935 1292.54 L797.574 1292.54 L797.574 1266.18 L789.264 1267.85 L789.264 1263.59 L797.527 1261.92 L802.203 1261.92 L802.203 1292.54 L809.842 1292.54 L809.842 1296.48 L789.935 1296.48 L789.935 1292.54 Z" fill="#000000" fill-rule="nonzero" fill-opacity="1" /><path clip-path="url(#clip660)" d="M829.286 1265 Q825.675 1265 823.847 1268.56 Q822.041 1272.11 822.041 1279.23 Q822.041 1286.34 823.847 1289.91 Q825.675 1293.45 829.286 1293.45 Q832.921 1293.45 834.726 1289.91 Q836.555 1286.34 836.555 1279.23 Q836.555 1272.11 834.726 1268.56 Q832.921 1265 829.286 1265 M829.286 1261.29 Q835.097 1261.29 838.152 1265.9 Q841.231 1270.48 841.231 1279.23 Q841.231 1287.96 838.152 1292.57 Q835.097 1297.15 829.286 1297.15 Q823.476 1297.15 820.398 1292.57 Q817.342 1287.96 817.342 1279.23 Q817.342 1270.48 820.398 1265.9 Q823.476 1261.29 829.286 1261.29 Z" fill="#000000" fill-rule="nonzero" fill-opacity="1" /><path clip-path="url(#clip660)" d="M877.612 1307.68 L907.288 1307.68 L907.288 1311.62 L877.612 1311.62 L877.612 1307.68 Z" fill="#000000" fill-rule="nonzero" fill-opacity="1" /><path clip-path="url(#clip660)" d="M917.426 1289.95 L935.783 1289.95 L935.783 1293.88 L921.709 1293.88 L921.709 1302.36 Q922.727 1302.01 923.746 1301.85 Q924.764 1301.66 925.783 1301.66 Q931.57 1301.66 934.949 1304.83 Q938.329 1308.01 938.329 1313.42 Q938.329 1319 934.857 1322.1 Q931.385 1325.18 925.065 1325.18 Q922.889 1325.18 920.621 1324.81 Q918.375 1324.44 915.968 1323.7 L915.968 1319 Q918.051 1320.13 920.274 1320.69 Q922.496 1321.25 924.973 1321.25 Q928.977 1321.25 931.315 1319.14 Q933.653 1317.03 933.653 1313.42 Q933.653 1309.81 931.315 1307.7 Q928.977 1305.6 924.973 1305.6 Q923.098 1305.6 921.223 1306.01 Q919.371 1306.43 917.426 1307.31 L917.426 1289.95 Z" fill="#000000" fill-rule="nonzero" fill-opacity="1" /><path clip-path="url(#clip660)" d="M1023.48 1321.06 Q1019.87 1321.06 1018.04 1324.62 Q1016.24 1328.16 1016.24 1335.29 Q1016.24 1342.4 1018.04 1345.97 Q1019.87 1349.51 1023.48 1349.51 Q1027.12 1349.51 1028.92 1345.97 Q1030.75 1342.4 1030.75 1335.29 Q1030.75 1328.16 1028.92 1324.62 Q1027.12 1321.06 1023.48 1321.06 M1023.48 1317.35 Q1029.29 1317.35 1032.35 1321.96 Q1035.43 1326.54 1035.43 1335.29 Q1035.43 1344.02 1032.35 1348.63 Q1029.29 1353.21 1023.48 1353.21 Q1017.67 1353.21 1014.59 1348.63 Q1011.54 1344.02 1011.54 1335.29 Q1011.54 1326.54 1014.59 1321.96 Q1017.67 1317.35 1023.48 1317.35 Z" fill="#000000" fill-rule="nonzero" fill-opacity="1" /><path clip-path="url(#clip660)" d="M1111.62 1346.01 L1129.98 1346.01 L1129.98 1349.94 L1115.91 1349.94 L1115.91 1358.42 Q1116.92 1358.07 1117.94 1357.91 Q1118.96 1357.72 1119.98 1357.72 Q1125.77 1357.72 1129.15 1360.89 Q1132.53 1364.06 1132.53 1369.48 Q1132.53 1375.06 1129.05 1378.16 Q1125.58 1381.24 1119.26 1381.24 Q1117.09 1381.24 1114.82 1380.87 Q1112.57 1380.5 1110.16 1379.76 L1110.16 1375.06 Q1112.25 1376.19 1114.47 1376.75 Q1116.69 1377.31 1119.17 1377.31 Q1123.17 1377.31 1125.51 1375.2 Q1127.85 1373.09 1127.85 1369.48 Q1127.85 1365.87 1125.51 1363.76 Q1123.17 1361.66 1119.17 1361.66 Q1117.29 1361.66 1115.42 1362.07 Q1113.57 1362.49 1111.62 1363.37 L1111.62 1346.01 Z" fill="#000000" fill-rule="nonzero" fill-opacity="1" /><path clip-path="url(#clip660)" d="M1178.33 1404.66 L1185.97 1404.66 L1185.97 1378.3 L1177.66 1379.97 L1177.66 1375.71 L1185.92 1374.04 L1190.6 1374.04 L1190.6 1404.66 L1198.23 1404.66 L1198.23 1408.6 L1178.33 1408.6 L1178.33 1404.66 Z" fill="#000000" fill-rule="nonzero" fill-opacity="1" /><path clip-path="url(#clip660)" d="M1217.68 1377.12 Q1214.07 1377.12 1212.24 1380.68 Q1210.43 1384.22 1210.43 1391.35 Q1210.43 1398.46 1212.24 1402.03 Q1214.07 1405.57 1217.68 1405.57 Q1221.31 1405.57 1223.12 1402.03 Q1224.95 1398.46 1224.95 1391.35 Q1224.95 1384.22 1223.12 1380.68 Q1221.31 1377.12 1217.68 1377.12 M1217.68 1373.41 Q1223.49 1373.41 1226.54 1378.02 Q1229.62 1382.6 1229.62 1391.35 Q1229.62 1400.08 1226.54 1404.69 Q1223.49 1409.27 1217.68 1409.27 Q1211.87 1409.27 1208.79 1404.69 Q1205.73 1400.08 1205.73 1391.35 Q1205.73 1382.6 1208.79 1378.02 Q1211.87 1373.41 1217.68 1373.41 Z" fill="#000000" fill-rule="nonzero" fill-opacity="1" /><path clip-path="url(#clip660)" d="M1276.42 1432.69 L1284.06 1432.69 L1284.06 1406.33 L1275.75 1407.99 L1275.75 1403.74 L1284.01 1402.07 L1288.69 1402.07 L1288.69 1432.69 L1296.33 1432.69 L1296.33 1436.63 L1276.42 1436.63 L1276.42 1432.69 Z" fill="#000000" fill-rule="nonzero" fill-opacity="1" /><path clip-path="url(#clip660)" d="M1305.82 1402.07 L1324.18 1402.07 L1324.18 1406 L1310.1 1406 L1310.1 1414.48 Q1311.12 1414.13 1312.14 1413.97 Q1313.16 1413.78 1314.18 1413.78 Q1319.96 1413.78 1323.34 1416.95 Q1326.72 1420.12 1326.72 1425.54 Q1326.72 1431.12 1323.25 1434.22 Q1319.78 1437.3 1313.46 1437.3 Q1311.28 1437.3 1309.01 1436.93 Q1306.77 1436.56 1304.36 1435.82 L1304.36 1431.12 Q1306.44 1432.25 1308.67 1432.81 Q1310.89 1433.37 1313.37 1433.37 Q1317.37 1433.37 1319.71 1431.26 Q1322.05 1429.15 1322.05 1425.54 Q1322.05 1421.93 1319.71 1419.82 Q1317.37 1417.72 1313.37 1417.72 Q1311.49 1417.72 1309.62 1418.13 Q1307.76 1418.55 1305.82 1419.43 L1305.82 1402.07 Z" fill="#000000" fill-rule="nonzero" fill-opacity="1" /><polyline clip-path="url(#clip660)" style="stroke:#000000; stroke-linecap:round; stroke-linejoin:round; stroke-width:4; stroke-opacity:1; fill:none" points="1399.37,1410.41 1814.84,1050.61 "/>
<polyline clip-path="url(#clip660)" style="stroke:#000000; stroke-linecap:round; stroke-linejoin:round; stroke-width:4; stroke-opacity:1; fill:none" points="1439.64,1375.54 1431.01,1373.04 "/>
<polyline clip-path="url(#clip660)" style="stroke:#000000; stroke-linecap:round; stroke-linejoin:round; stroke-width:4; stroke-opacity:1; fill:none" points="1524.13,1302.37 1515.49,1299.88 "/>
<polyline clip-path="url(#clip660)" style="stroke:#000000; stroke-linecap:round; stroke-linejoin:round; stroke-width:4; stroke-opacity:1; fill:none" points="1608.61,1229.21 1599.97,1226.72 "/>
<polyline clip-path="url(#clip660)" style="stroke:#000000; stroke-linecap:round; stroke-linejoin:round; stroke-width:4; stroke-opacity:1; fill:none" points="1693.09,1156.05 1684.45,1153.56 "/>
<polyline clip-path="url(#clip660)" style="stroke:#000000; stroke-linecap:round; stroke-linejoin:round; stroke-width:4; stroke-opacity:1; fill:none" points="1777.57,1082.89 1768.93,1080.39 "/>
<path clip-path="url(#clip660)" d="M1455.38 1400.11 L1485.06 1400.11 L1485.06 1404.04 L1455.38 1404.04 L1455.38 1400.11 Z" fill="#000000" fill-rule="nonzero" fill-opacity="1" /><path clip-path="url(#clip660)" d="M1499.18 1413 L1515.5 1413 L1515.5 1416.94 L1493.55 1416.94 L1493.55 1413 Q1496.22 1410.25 1500.8 1405.62 Q1505.41 1400.96 1506.59 1399.62 Q1508.83 1397.1 1509.71 1395.36 Q1510.61 1393.6 1510.61 1391.91 Q1510.61 1389.16 1508.67 1387.42 Q1506.75 1385.69 1503.65 1385.69 Q1501.45 1385.69 1498.99 1386.45 Q1496.56 1387.21 1493.79 1388.77 L1493.79 1384.04 Q1496.61 1382.91 1499.06 1382.33 Q1501.52 1381.75 1503.55 1381.75 Q1508.93 1381.75 1512.12 1384.44 Q1515.31 1387.12 1515.31 1391.61 Q1515.31 1393.74 1514.5 1395.66 Q1513.72 1397.56 1511.61 1400.15 Q1511.03 1400.83 1507.93 1404.04 Q1504.83 1407.24 1499.18 1413 Z" fill="#000000" fill-rule="nonzero" fill-opacity="1" /><path clip-path="url(#clip660)" d="M1535.31 1385.46 Q1531.7 1385.46 1529.87 1389.02 Q1528.07 1392.56 1528.07 1399.69 Q1528.07 1406.8 1529.87 1410.36 Q1531.7 1413.9 1535.31 1413.9 Q1538.95 1413.9 1540.75 1410.36 Q1542.58 1406.8 1542.58 1399.69 Q1542.58 1392.56 1540.75 1389.02 Q1538.95 1385.46 1535.31 1385.46 M1535.31 1381.75 Q1541.12 1381.75 1544.18 1386.36 Q1547.26 1390.94 1547.26 1399.69 Q1547.26 1408.42 1544.18 1413.02 Q1541.12 1417.61 1535.31 1417.61 Q1529.5 1417.61 1526.42 1413.02 Q1523.37 1408.42 1523.37 1399.69 Q1523.37 1390.94 1526.42 1386.36 Q1529.5 1381.75 1535.31 1381.75 Z" fill="#000000" fill-rule="nonzero" fill-opacity="1" /><path clip-path="url(#clip660)" d="M1539.86 1326.95 L1569.54 1326.95 L1569.54 1330.88 L1539.86 1330.88 L1539.86 1326.95 Z" fill="#000000" fill-rule="nonzero" fill-opacity="1" /><path clip-path="url(#clip660)" d="M1580.44 1339.84 L1588.08 1339.84 L1588.08 1313.47 L1579.77 1315.14 L1579.77 1310.88 L1588.04 1309.21 L1592.71 1309.21 L1592.71 1339.84 L1600.35 1339.84 L1600.35 1343.77 L1580.44 1343.77 L1580.44 1339.84 Z" fill="#000000" fill-rule="nonzero" fill-opacity="1" /><path clip-path="url(#clip660)" d="M1619.79 1312.29 Q1616.18 1312.29 1614.35 1315.86 Q1612.55 1319.4 1612.55 1326.53 Q1612.55 1333.64 1614.35 1337.2 Q1616.18 1340.74 1619.79 1340.74 Q1623.43 1340.74 1625.23 1337.2 Q1627.06 1333.64 1627.06 1326.53 Q1627.06 1319.4 1625.23 1315.86 Q1623.43 1312.29 1619.79 1312.29 M1619.79 1308.59 Q1625.6 1308.59 1628.66 1313.2 Q1631.74 1317.78 1631.74 1326.53 Q1631.74 1335.26 1628.66 1339.86 Q1625.6 1344.45 1619.79 1344.45 Q1613.98 1344.45 1610.91 1339.86 Q1607.85 1335.26 1607.85 1326.53 Q1607.85 1317.78 1610.91 1313.2 Q1613.98 1308.59 1619.79 1308.59 Z" fill="#000000" fill-rule="nonzero" fill-opacity="1" /><path clip-path="url(#clip660)" d="M1636.29 1239.13 Q1632.68 1239.13 1630.85 1242.7 Q1629.04 1246.24 1629.04 1253.37 Q1629.04 1260.47 1630.85 1264.04 Q1632.68 1267.58 1636.29 1267.58 Q1639.92 1267.58 1641.73 1264.04 Q1643.56 1260.47 1643.56 1253.37 Q1643.56 1246.24 1641.73 1242.7 Q1639.92 1239.13 1636.29 1239.13 M1636.29 1235.43 Q1642.1 1235.43 1645.16 1240.03 Q1648.23 1244.62 1648.23 1253.37 Q1648.23 1262.09 1645.16 1266.7 Q1642.1 1271.28 1636.29 1271.28 Q1630.48 1271.28 1627.4 1266.7 Q1624.35 1262.09 1624.35 1253.37 Q1624.35 1244.62 1627.4 1240.03 Q1630.48 1235.43 1636.29 1235.43 Z" fill="#000000" fill-rule="nonzero" fill-opacity="1" /><path clip-path="url(#clip660)" d="M1709.5 1193.51 L1717.14 1193.51 L1717.14 1167.15 L1708.83 1168.81 L1708.83 1164.56 L1717.09 1162.89 L1721.77 1162.89 L1721.77 1193.51 L1729.4 1193.51 L1729.4 1197.45 L1709.5 1197.45 L1709.5 1193.51 Z" fill="#000000" fill-rule="nonzero" fill-opacity="1" /><path clip-path="url(#clip660)" d="M1748.85 1165.97 Q1745.24 1165.97 1743.41 1169.53 Q1741.6 1173.07 1741.6 1180.2 Q1741.6 1187.31 1743.41 1190.87 Q1745.24 1194.42 1748.85 1194.42 Q1752.48 1194.42 1754.29 1190.87 Q1756.12 1187.31 1756.12 1180.2 Q1756.12 1173.07 1754.29 1169.53 Q1752.48 1165.97 1748.85 1165.97 M1748.85 1162.26 Q1754.66 1162.26 1757.71 1166.87 Q1760.79 1171.45 1760.79 1180.2 Q1760.79 1188.93 1757.71 1193.54 Q1754.66 1198.12 1748.85 1198.12 Q1743.04 1198.12 1739.96 1193.54 Q1736.9 1188.93 1736.9 1180.2 Q1736.9 1171.45 1739.96 1166.87 Q1743.04 1162.26 1748.85 1162.26 Z" fill="#000000" fill-rule="nonzero" fill-opacity="1" /><path clip-path="url(#clip660)" d="M1798.93 1120.35 L1815.25 1120.35 L1815.25 1124.29 L1793.31 1124.29 L1793.31 1120.35 Q1795.97 1117.6 1800.55 1112.97 Q1805.16 1108.31 1806.34 1106.97 Q1808.58 1104.45 1809.46 1102.71 Q1810.37 1100.95 1810.37 1099.26 Q1810.37 1096.51 1808.42 1094.77 Q1806.5 1093.04 1803.4 1093.04 Q1801.2 1093.04 1798.75 1093.8 Q1796.32 1094.56 1793.54 1096.12 L1793.54 1091.39 Q1796.36 1090.26 1798.82 1089.68 Q1801.27 1089.1 1803.31 1089.1 Q1808.68 1089.1 1811.87 1091.79 Q1815.07 1094.47 1815.07 1098.96 Q1815.07 1101.09 1814.26 1103.01 Q1813.47 1104.91 1811.36 1107.5 Q1810.78 1108.18 1807.68 1111.39 Q1804.58 1114.59 1798.93 1120.35 Z" fill="#000000" fill-rule="nonzero" fill-opacity="1" /><path clip-path="url(#clip660)" d="M1835.07 1092.81 Q1831.45 1092.81 1829.63 1096.37 Q1827.82 1099.91 1827.82 1107.04 Q1827.82 1114.15 1829.63 1117.71 Q1831.45 1121.25 1835.07 1121.25 Q1838.7 1121.25 1840.51 1117.71 Q1842.33 1114.15 1842.33 1107.04 Q1842.33 1099.91 1840.51 1096.37 Q1838.7 1092.81 1835.07 1092.81 M1835.07 1089.1 Q1840.88 1089.1 1843.93 1093.71 Q1847.01 1098.29 1847.01 1107.04 Q1847.01 1115.77 1843.93 1120.37 Q1840.88 1124.96 1835.07 1124.96 Q1829.26 1124.96 1826.18 1120.37 Q1823.12 1115.77 1823.12 1107.04 Q1823.12 1098.29 1826.18 1093.71 Q1829.26 1089.1 1835.07 1089.1 Z" fill="#000000" fill-rule="nonzero" fill-opacity="1" /><polyline clip-path="url(#clip660)" style="stroke:#000000; stroke-linecap:round; stroke-linejoin:round; stroke-width:4; stroke-opacity:1; fill:none" points="679.772,1202.68 679.772,483.08 "/>
<polyline clip-path="url(#clip660)" style="stroke:#000000; stroke-linecap:round; stroke-linejoin:round; stroke-width:4; stroke-opacity:1; fill:none" points="679.772,1121.56 684.758,1117.25 "/>
<polyline clip-path="url(#clip660)" style="stroke:#000000; stroke-linecap:round; stroke-linejoin:round; stroke-width:4; stroke-opacity:1; fill:none" points="679.772,939.977 684.758,935.66 "/>
<polyline clip-path="url(#clip660)" style="stroke:#000000; stroke-linecap:round; stroke-linejoin:round; stroke-width:4; stroke-opacity:1; fill:none" points="679.772,758.391 684.758,754.073 "/>
<polyline clip-path="url(#clip660)" style="stroke:#000000; stroke-linecap:round; stroke-linejoin:round; stroke-width:4; stroke-opacity:1; fill:none" points="679.772,576.804 684.758,572.486 "/>
<path clip-path="url(#clip660)" d="M599.676 1134.91 L607.315 1134.91 L607.315 1108.54 L599.005 1110.21 L599.005 1105.95 L607.269 1104.28 L611.945 1104.28 L611.945 1134.91 L619.584 1134.91 L619.584 1138.84 L599.676 1138.84 L599.676 1134.91 Z" fill="#000000" fill-rule="nonzero" fill-opacity="1" /><path clip-path="url(#clip660)" d="M639.028 1107.36 Q635.417 1107.36 633.588 1110.93 Q631.783 1114.47 631.783 1121.6 Q631.783 1128.7 633.588 1132.27 Q635.417 1135.81 639.028 1135.81 Q642.662 1135.81 644.468 1132.27 Q646.296 1128.7 646.296 1121.6 Q646.296 1114.47 644.468 1110.93 Q642.662 1107.36 639.028 1107.36 M639.028 1103.66 Q644.838 1103.66 647.894 1108.27 Q650.972 1112.85 650.972 1121.6 Q650.972 1130.33 647.894 1134.93 Q644.838 1139.52 639.028 1139.52 Q633.218 1139.52 630.139 1134.93 Q627.084 1130.33 627.084 1121.6 Q627.084 1112.85 630.139 1108.27 Q633.218 1103.66 639.028 1103.66 Z" fill="#000000" fill-rule="nonzero" fill-opacity="1" /><path clip-path="url(#clip660)" d="M602.894 953.322 L619.213 953.322 L619.213 957.257 L597.269 957.257 L597.269 953.322 Q599.931 950.567 604.514 945.938 Q609.121 941.285 610.301 939.942 Q612.547 937.419 613.426 935.683 Q614.329 933.924 614.329 932.234 Q614.329 929.48 612.385 927.743 Q610.463 926.007 607.361 926.007 Q605.162 926.007 602.709 926.771 Q600.278 927.535 597.5 929.086 L597.5 924.364 Q600.324 923.23 602.778 922.651 Q605.232 922.072 607.269 922.072 Q612.639 922.072 615.834 924.757 Q619.028 927.443 619.028 931.933 Q619.028 934.063 618.218 935.984 Q617.431 937.882 615.324 940.475 Q614.746 941.146 611.644 944.364 Q608.542 947.558 602.894 953.322 Z" fill="#000000" fill-rule="nonzero" fill-opacity="1" /><path clip-path="url(#clip660)" d="M639.028 925.776 Q635.417 925.776 633.588 929.341 Q631.783 932.882 631.783 940.012 Q631.783 947.118 633.588 950.683 Q635.417 954.225 639.028 954.225 Q642.662 954.225 644.468 950.683 Q646.296 947.118 646.296 940.012 Q646.296 932.882 644.468 929.341 Q642.662 925.776 639.028 925.776 M639.028 922.072 Q644.838 922.072 647.894 926.679 Q650.972 931.262 650.972 940.012 Q650.972 948.739 647.894 953.345 Q644.838 957.928 639.028 957.928 Q633.218 957.928 630.139 953.345 Q627.084 948.739 627.084 940.012 Q627.084 931.262 630.139 926.679 Q633.218 922.072 639.028 922.072 Z" fill="#000000" fill-rule="nonzero" fill-opacity="1" /><path clip-path="url(#clip660)" d="M613.033 757.036 Q616.389 757.754 618.264 760.023 Q620.162 762.291 620.162 765.624 Q620.162 770.74 616.644 773.541 Q613.125 776.342 606.644 776.342 Q604.468 776.342 602.153 775.902 Q599.861 775.485 597.408 774.629 L597.408 770.115 Q599.352 771.249 601.667 771.828 Q603.982 772.407 606.505 772.407 Q610.903 772.407 613.195 770.671 Q615.51 768.934 615.51 765.624 Q615.51 762.569 613.357 760.856 Q611.227 759.12 607.408 759.12 L603.38 759.12 L603.38 755.277 L607.593 755.277 Q611.042 755.277 612.871 753.911 Q614.699 752.523 614.699 749.93 Q614.699 747.268 612.801 745.856 Q610.926 744.421 607.408 744.421 Q605.486 744.421 603.287 744.837 Q601.088 745.254 598.449 746.134 L598.449 741.967 Q601.111 741.226 603.426 740.856 Q605.764 740.486 607.824 740.486 Q613.148 740.486 616.25 742.916 Q619.352 745.324 619.352 749.444 Q619.352 752.314 617.709 754.305 Q616.065 756.273 613.033 757.036 Z" fill="#000000" fill-rule="nonzero" fill-opacity="1" /><path clip-path="url(#clip660)" d="M639.028 744.189 Q635.417 744.189 633.588 747.754 Q631.783 751.296 631.783 758.425 Q631.783 765.532 633.588 769.097 Q635.417 772.638 639.028 772.638 Q642.662 772.638 644.468 769.097 Q646.296 765.532 646.296 758.425 Q646.296 751.296 644.468 747.754 Q642.662 744.189 639.028 744.189 M639.028 740.486 Q644.838 740.486 647.894 745.092 Q650.972 749.675 650.972 758.425 Q650.972 767.152 647.894 771.759 Q644.838 776.342 639.028 776.342 Q633.218 776.342 630.139 771.759 Q627.084 767.152 627.084 758.425 Q627.084 749.675 630.139 745.092 Q633.218 740.486 639.028 740.486 Z" fill="#000000" fill-rule="nonzero" fill-opacity="1" /><path clip-path="url(#clip660)" d="M611.713 563.598 L599.908 582.047 L611.713 582.047 L611.713 563.598 M610.486 559.524 L616.366 559.524 L616.366 582.047 L621.297 582.047 L621.297 585.936 L616.366 585.936 L616.366 594.084 L611.713 594.084 L611.713 585.936 L596.111 585.936 L596.111 581.422 L610.486 559.524 Z" fill="#000000" fill-rule="nonzero" fill-opacity="1" /><path clip-path="url(#clip660)" d="M639.028 562.603 Q635.417 562.603 633.588 566.167 Q631.783 569.709 631.783 576.839 Q631.783 583.945 633.588 587.51 Q635.417 591.052 639.028 591.052 Q642.662 591.052 644.468 587.51 Q646.296 583.945 646.296 576.839 Q646.296 569.709 644.468 566.167 Q642.662 562.603 639.028 562.603 M639.028 558.899 Q644.838 558.899 647.894 563.505 Q650.972 568.089 650.972 576.839 Q650.972 585.565 647.894 590.172 Q644.838 594.755 639.028 594.755 Q633.218 594.755 630.139 590.172 Q627.084 585.565 627.084 576.839 Q627.084 568.089 630.139 563.505 Q633.218 558.899 639.028 558.899 Z" fill="#000000" fill-rule="nonzero" fill-opacity="1" /><polyline clip-path="url(#clip661)" style="stroke:#009af9; stroke-linecap:round; stroke-linejoin:round; stroke-width:4; stroke-opacity:1; fill:none" points="1155.12,854.087 1141.95,872.695 1127.53,889.418 1111.13,903.749 1092.15,915.004 1070.17,922.267 1044.99,924.333 1016.79,919.683 986.316,906.552 955.106,883.193 925.715,848.448 901.657,802.646 886.928,748.605 884.948,692.115 897.245,641.096 922.566,603.27 957.121,583.417 995.91,582.005 1034.29,595.937 1068.94,620.516 1098.06,651.193 1121.05,684.457 1138.09,717.99 1149.76,750.442 1156.73,781.119 1159.62,809.714 1158.93,836.12 1154.97,860.304 1147.9,882.226 1137.7,901.774 1124.24,918.707 1107.27,932.595 1086.52,942.736 1061.75,948.075 1032.96,947.121 1000.57,937.923 965.768,918.208 930.857,885.831 899.472,839.709 876.376,781.202 866.5,715.402 873.24,651.177 896.762,598.963 933.511,566.861 977.508,557.554 1022.59,568.252 1064.12,593.178 1099.49,626.311 1127.78,662.933 1149.19,699.974 1164.46,735.723 1174.52,769.377 1180.24,800.658 1182.33,829.558 1181.3,856.178 1177.47,880.644 1170.95,903.049 1161.68,923.411 1149.46,941.639 1133.92,957.477 1114.63,970.43 1091.08,979.67 1062.85,983.902 1029.74,981.231 992.126,969.077 951.385,944.308 910.439,903.837 874.125,846.003 848.894,772.714 841.279,691.442 855.215,615 889.629,557.48 938.364,527.997 992.886,527.04 1045.67,548.233 1092,582.95 1129.88,623.821 1159.25,665.924 1181.01,706.559 1196.46,744.527 1206.9,779.485 1213.45,811.509 1217.01,840.846 1218.22,867.79 1217.52,892.628 1215.14,915.614 1211.17,936.96 1205.55,956.832 1198.09,975.344 1188.49,992.541 1176.3,1008.38 1160.96,1022.69 1141.75,1035.08 1117.84,1044.84 1088.33,1050.74 1052.42,1050.79 1009.68,1041.95 960.647,1019.87 907.701,979.178 856.118,914.738 814.629,824.845 794.16,715.861 803.678,605.103 844.637,516.54 908.734,468.641 982.159,464.164 1052.69,492.087 1113.37,537.556 1162,588.952 1199.19,639.452 1226.81,685.978 1247.07,727.635 1262.03,764.542 1273.44,797.167 1282.69,826.026 1290.89,851.556 1298.91,874.081 1307.47,893.794 1317.23,910.753 1328.77,924.867 1342.73,935.873 1359.75,943.293 1380.54,946.384 1405.82,944.068 1436.25,934.864 1472.21,916.882 1513.45,887.963 1558.56,846.166 1604.21,790.819 1644.69,724.221 1672.12,653.409 1678.57,590.283 1659.55,548.112 1617.16,534.99 1559.72,549.229 1497.74,581.396 1439.63,620.806 1390.01,660.19 1350.31,696.342 1320.01,728.745 1297.69,758.046 1281.7,785.101 1270.47,810.568 1262.7,834.833 1257.36,858.07 1253.68,880.33 1251.09,901.605 1249.17,921.876 1247.64,941.128 1246.27,959.366 1244.92,976.611 1243.44,992.9 1241.71,1008.28 1239.62,1022.81 1237.02,1036.57 1233.74,1049.6 1229.59,1062 1224.3,1073.82 1217.54,1085.12 1208.86,1095.94 1197.7,1106.27 1183.35,1116.01 1164.89,1124.88 1141.19,1132.33 1110.9,1137.25 1072.57,1137.69 1024.87,1130.22 967.256,1109.39 901.221,1067.23 832.216,994.111 771.673,882.799 736.699,736.977 744.03,580.23 798.795,452.76 887.903,388.052 987.915,389.184 1079.98,433.517 1155.83,495.636 1214.49,559.218 1258.26,616.602 1290.54,665.593 1314.63,706.492 1333.33,740.344 1348.87,768.176 1362.98,790.752 1376.98,808.537 1391.85,821.71 1408.33,830.201 1426.95,833.724 1447.96,831.818 1471.34,823.931 1496.66,809.559 1522.93,788.485 1548.49,761.121 1570.98,728.904 1587.56,694.582 1595.44,662.115 1592.69,635.954 1579,619.784 1556.01,615.296 1526.82,621.755 1495.13,636.624 1464.22,656.755 1436.47,679.4 1413.22,702.65 1394.99,725.403 1381.76,747.107 1373.21,767.494 1368.91,786.391 1368.47,803.611 1371.58,818.901 1378.05,831.928 1387.81,842.255 1400.85,849.341 1417.26,852.523 1437.05,851.018 1460.13,843.954 1486.13,830.458 1514.2,809.851 1542.8,781.983 1569.57,747.707 1591.37,709.357 1604.71,670.943 1606.68,637.659 1595.96,614.519 1573.56,604.617 1542.65,608.04 1507.53,622.203 1472.32,643.3 1440.12,667.786 1412.73,693.156 1390.89,717.998 1374.6,741.674 1363.46,763.956 1356.92,784.757 1354.46,803.984 1355.66,821.475 1360.24,836.978 1368.05,850.141 1379.12,860.505 1393.54,867.482 1411.48,870.341 1433.09,868.189 1458.37,859.995 1487.03,844.675 1518.21,821.316 1550.23,789.578 1580.33,750.306 1604.77,706.204 1619.31,662.143 1620.39,624.543 1606.53,599.521 1579.27,590.533 1542.79,597.047 1502.41,615.29 1462.91,640.368 1427.6,668.152 1398.18,696.033 1375.11,722.759 1358.11,747.928 1346.53,771.516 1339.64,793.581 1336.77,814.128 1337.42,833.066 1341.26,850.201 1348.13,865.245 1358.06,877.807 1371.2,887.375 1387.81,893.286 1408.23,894.686 1432.75,890.503 1461.49,879.452 1494.19,860.143 1529.84,831.36 1566.36,792.628 1600.22,745.087 1626.55,692.45 1639.98,641.382 1636.34,600.347 1614.68,576.657 1578.14,573.188 1532.86,587.3 1485.57,612.91 1441.5,643.762 1403.69,675.48 1373.26,705.854 1350.05,734.192 1333.3,760.551 1322,785.205 1315.17,808.379 1312.03,830.173 1311.97,850.564 1314.61,869.432 1319.77,886.581 1327.45,901.745 1337.82,914.571 1351.18,924.59 1367.99,931.168 1388.76,933.445 1414.07,930.267 1444.41,920.134 1479.95,901.223 1520.18,871.577 1563.4,829.65 1606.07,775.372 1642.47,711.707 1665.28,645.992 1667.66,589.493 1646.44,553.736 1604.47,544.825 1549.71,560.214 1491.6,591.192 1437.49,628.452 1391.39,665.751 1354.52,700.312 1326.44,731.636 1305.86,760.224 1291.3,786.764 1281.37,811.789 1274.91,835.604 1271.02,858.335 1269.03,880.002 1268.5,900.572 1269.14,919.993 1270.79,938.211 1273.42,955.175 1277.08,970.828 1281.9,985.098 1288.12,997.882 1296.06,1009.03 1306.15,1018.3 1318.94,1025.33 1335.14,1029.58 1355.63,1030.23 1381.42,1026.04 1413.65,1015.23 1453.4,995.292 1501.27,962.923 1556.71,914.314 1616.75,846.288 1674.53,758.91 1718.61,659.481 1735.06,565.361 1713.84,500.103 1656.29,480.47 1576.12,504.11 1491.21,552.655 1414.42,606.873 1351.25,656.062 1302.25,697.236 1265.52,731.392 1238.38,760.66 1218.15,786.874 1202.52,811.193 1189.63,834.182 1178,856.006 1166.44,876.595 1154,895.73 1139.9,913.08 1123.44,928.181 1103.98,940.383 1081.03,948.77 1054.22,952.059 1023.55,948.525 989.566,935.997 953.754,912.072 918.851,874.713 888.987,823.383 869.261,760.548 864.459,692.772 877.161,630.092 906.237,582.953 946.956,558.072 992.833,556.114 1037.93,572.76 1078.21,601.673 1111.7,637.013 1137.95,674.549 1157.44,711.696 1171.04,747.109 1179.72,780.221 1184.34,810.889 1185.55,839.177 1183.83,865.222 1179.43,889.162 1172.42,911.091 1162.7,931.026 1150,948.861 1133.95,964.322 1114.07,976.885 1089.81,985.671 1060.74,989.31 1026.65,985.796 987.973,972.397 946.2,945.815 904.49,902.851 868.023,841.927 843.606,765.412 837.936,681.643 854.697,604.384 892.154,548.132 943.413,521.48 999.526,523.832 1052.99,547.89 1099.34,584.643 1136.88,626.739 1165.78,669.457 1187.08,710.308 1202.18,748.26 1212.41,783.076 1218.92,814.896 1222.6,844.004 1224.11,870.715 1223.89,895.329 1222.2,918.109 1219.15,939.28 1214.71,959.022 1208.76,977.479 1201.04,994.742 1191.18,1010.85 1178.71,1025.74 1162.99,1039.23 1143.25,1050.91 1118.58,1060.04 1088.02,1065.33 1050.64,1064.62 1005.98,1054.63 954.579,1030.61 899.043,986.595 845.215,916.95 802.789,819.978 783.753,703.282 797.486,586.763 844.515,496.913 914.63,452.466 992.475,453.867 1065.48,487.394 1127.17,536.864 1175.95,590.542 1212.94,641.993 1240.33,688.598 1260.52,729.804 1275.67,765.934 1287.59,797.557 1297.7,825.222 1307.16,849.35 1316.87,870.214 1327.61,887.922 1340.07,902.409 1354.91,913.415 1372.79,920.453 1394.37,922.765 1420.25,919.271 1450.89,908.551 1486.36,888.898 1525.98,858.565 1567.82,816.366 1608.16,762.75 1641.3,701.235 1660.34,639.418 1659.3,588.083 1636.05,557.433 1594.02,552.055 1540.99,568.719 1485.62,599.162 1434.48,635.035 1391.09,670.859 1356.49,704.216 1330.21,734.664 1311.06,762.624 1297.7,788.675 1288.83,813.258 1283.42,836.616 1280.65,858.834 1279.95,879.901 1280.95,899.751 1283.46,918.297 1287.44,935.431 1292.95,951.025 1300.21,964.916 1309.53,976.874 1321.35,986.575 1336.25,993.539 1354.95,997.064 1378.31,996.129 1407.25,989.266 1442.67,974.447 1485.14,949.016 1534.37,909.881 1588.31,854.259 1642.03,781.44 1686.94,695.659 1711.71,608.767 1706.22,539.205 1667.61,504.151 1603.46,508.665 1528.05,542.665 1454.68,589.717 1391.14,637.301 1340.05,679.726 1300.92,716.068 1271.8,747.523 1250.39,775.659 1234.5,801.682 1222.3,826.306 1212.3,849.858 1203.32,872.427 1194.43,893.973 1184.86,914.384 1173.91,933.502 1160.95,951.104 1145.33,966.86 1126.38,980.262 1103.42,990.524 1075.81,996.435 1043.13,996.197 1005.38,987.275 963.478,966.392 919.83,929.925 878.88,875.071 847.176,802.03 832.208,716.618 839.693,631.293 870.408,562.03 919.021,521.36 976.394,512.558 1033.63,529.959 1084.76,564.027 1127.06,606.045 1160.15,650.018 1184.93,692.606 1202.82,732.321 1215.3,768.732 1223.67,801.917 1228.98,832.162 1232.04,859.807 1233.42,885.183 1233.5,908.583 1232.51,930.261 1230.55,950.432 1227.64,969.276 1223.68,986.945 1218.52,1003.56 1211.88,1019.22 1203.44,1033.98 1192.71,1047.83 1179.1,1060.69 1161.86,1072.31 1140.07,1082.19 1112.66,1089.4 1078.48,1092.32 1036.52,1088.25 986.349,1072.99 929.03,1040.55 868.417,983.692 812.625,896.386 774.241,779.291 767.08,646.376 798.869,525.711 864.609,447.177 948.251,423.721 1032.41,445.772 1106.19,493.647 1165.72,550.636 1211.36,606.808 1245.35,657.751 1270.48,702.301 1289.35,740.721 1304.16,773.707 1316.68,801.946 1328.31,825.959 1340.15,846.064 1353.12,862.361 1367.98,874.734 1385.39,882.833 1405.95,886.059 1430.12,883.555 1458.13,874.226 1489.82,856.843 1524.35,830.304 1559.84,794.145 1593.08,749.329 1619.59,699.141 1634.29,649.603 1633.06,608.591 1614.54,583.284 1581.19,577.085 1538.52,588.263 1492.91,611.471 1449.65,640.727 1411.98,671.548 1381.31,701.477 1357.69,729.598 1340.5,755.82 1328.84,780.34 1321.78,803.351 1318.55,824.94 1318.55,845.072 1321.43,863.615 1326.98,880.352 1335.22,894.984 1346.31,907.119 1360.55,916.232 1378.37,921.626 1400.27,922.368 1426.73,917.233 1458.07,904.69 1494.21,882.973 1534.22,850.383 1575.85,805.966 1614.99,750.668 1645.64,688.754 1660.95,628.534 1655.53,580.94 1628.32,555.319 1583.75,554.702 1529.98,574.581 1475.37,606.422 1425.83,642.388 1384.34,677.678 1351.58,710.354 1326.91,740.202 1309.08,767.695 1296.76,793.387 1288.73,817.672 1283.99,840.752 1281.78,862.686 1281.59,883.444 1283.1,902.952 1286.15,921.11 1290.73,937.799 1296.96,952.873 1305.08,966.137 1315.46,977.323 1328.58,986.039 1345.09,991.717 1365.73,993.527 1391.41,990.269 1423.04,980.254 1461.37,961.199 1506.65,930.261 1557.9,884.423 1611.93,821.641 1662.26,743.096 1698.98,656.165 1710.9,575.866 1690.63,520.958 1639.95,504.009 1569.98,523.003 1495.15,563.971 1426.34,611.711 1368.81,656.938 1323.58,696.403 1289.43,730.331 1264.2,760.16 1245.66,787.301 1231.8,812.716 1220.96,836.923 1211.82,860.13 1203.34,882.364 1194.68,903.562 1185.12,923.611 1174.02,942.354 1160.76,959.569 1144.69,974.916 1125.13,987.864 1101.38,997.577 1072.79,1002.76 1038.93,1001.5 999.874,991.055 956.68,967.949 912.033,928.379 870.816,869.589 840.078,792.291 827.604,703.41 838.87,616.775 873.779,549.125 925.913,512.422 985.462,508.377 1043.53,529.894 1094.53,566.815 1136.19,610.461 1168.47,655.16 1192.49,697.906 1209.78,737.464 1221.86,773.557 1230.07,806.353 1235.45,836.18 1238.8,863.399 1240.72,888.346 1241.58,911.315 1241.66,932.556 1241.09,952.278 1239.97,970.659 1238.28,987.849 1235.99,1003.98 1232.99,1019.17 1229.12,1033.51 1224.17,1047.11 1217.85,1060.03 1209.77,1072.32 1199.43,1083.99 1186.21,1094.98 1169.29,1105.07 1147.67,1113.82 1120.14,1120.33 1085.37,1123.02 1042.05,1119.14 989.418,1104.21 928.162,1071.57 862.009,1012.64 799.634,919.484 755.379,791.156 745.835,642.472 780.874,506.341 854.833,419.032 948.345,395.741 1040.93,423.43 1120.69,477.82 1184.12,539.812 1232.21,598.896 1267.85,650.934 1294.24,695.254 1314.27,732.525 1330.33,763.699 1344.3,789.586 1357.64,810.742 1371.47,827.449 1386.68,839.738 1403.94,847.396 1423.76,849.987 1446.42,846.886 1471.9,837.347 1499.74,820.659 1528.85,796.429 1557.31,765 1582.32,727.983 1600.45,688.656 1608.34,651.854 1603.72,623.001 1586.45,606.406 1558.79,603.678 1524.74,613.338 1488.72,631.878 1454.44,655.408 1424.33,680.84 1399.6,706.255 1380.55,730.701 1366.91,753.807 1358.16,775.458 1353.74,795.585 1353.17,814.073 1356.08,830.718 1362.26,845.224 1371.67,857.19 1384.36,866.097 1400.49,871.292 1420.23,871.96 1443.71,867.128 1470.83,855.704 1501.08,836.617 1533.25,809.122 1565.18,773.311 1593.59,730.807 1614.31,685.359 1623.16,642.808 1617.3,609.873 1596.58,591.832 1563.95,590.375 1524.45,603.18 1483.43,625.545 1445.13,652.657 1412.08,681.013 1385.36,708.681 1364.99,734.884 1350.47,759.466 1341.05,782.484 1335.99,803.997 1334.7,823.975 1336.72,842.288 1341.82,858.706 1349.9,872.905 1361.07,884.454 1375.53,892.788 1393.59,897.176 1415.61,896.679 1441.85,890.125 1472.35,876.145 1506.64,853.325 1543.39,820.578 1579.98,777.849 1612.32,727.089 1635.07,673.16 1642.91,623.785 1632.53,587.666 1604.43,571.012 1563.19,574.66 1515.64,594.189 1468.3,622.891 1425.69,654.915 1390.09,686.662 1362.04,716.578 1341.08,744.36 1326.25,770.224 1316.53,794.469 1310.96,817.297 1308.79,838.771 1309.5,858.84 1312.75,877.368 1318.44,894.15 1326.59,908.912 1337.43,921.291 1351.3,930.804 1368.68,936.792 1390.13,938.352 1416.27,934.274 1447.58,922.979 1484.22,902.551 1525.6,870.96 1569.83,826.663 1613.04,769.788 1649.09,703.795 1670.3,636.814 1669.82,580.857 1645.01,547.575 1599.65,542.238 1542.5,561.007 1483.22,594.302 1428.93,632.72 1383.24,670.37 1347.06,704.881 1319.67,736.028 1299.69,764.448 1285.55,790.875 1275.86,815.841 1269.44,839.641 1265.39,862.394 1263.05,884.118 1261.95,904.786 1261.8,924.363 1262.4,942.814 1263.66,960.118 1265.59,976.257 1268.22,991.215 1271.67,1004.97 1276.12,1017.47 1281.81,1028.66 1289.06,1038.4 1298.32,1046.49 1310.12,1052.62 1325.19,1056.29 1344.41,1056.77 1368.85,1052.91 1399.76,1043.03 1438.43,1024.68 1485.9,994.463 1542.24,948.157 1605.41,881.52 1669.45,792.678 1723.06,686.529 1750.61,579.338 1738.32,497.437 1683.7,464.147 1599.76,482.361 1507.16,532.902 1422.06,592.022 1351.68,645.662 1297.03,689.652 1256.09,725.026 1225.83,754.391 1203.26,780.041 1185.77,803.435 1171.29,825.286 1158.17,845.794 1145.13,864.849 1131.16,882.144 1115.47,897.219 1097.43,909.447 1076.54,917.996 1052.55,921.765 1025.51,919.354 995.958,909.093 965.172,889.239 935.352,858.434 909.679,816.488 891.994,765.361 885.928,709.851 893.655,657.222 914.821,615.348 946.411,590.012 983.752,583.026 1022.06,592.327 1057.62,613.644 1088.19,642.363 1112.83,674.677 1131.49,707.934 1144.62,740.514 1152.87,771.538 1156.86,800.585 1157.12,827.485 "/>
<polyline clip-path="url(#clip661)" style="stroke:#e26f46; stroke-linecap:round; stroke-linejoin:round; stroke-width:4; stroke-opacity:1; fill:none" points="1141.95,872.652 1127.57,889.31 1111.23,903.581 1092.33,914.776 1070.45,921.982 1045.41,924.02 1017.37,919.382 987.063,906.313 956.038,883.094 926.818,848.581 902.892,803.092 888.222,749.424 886.195,693.3 898.335,642.545 923.421,604.83 957.699,584.936 996.207,583.357 1034.33,597.057 1068.76,621.393 1097.71,651.842 1120.58,684.908 1137.53,718.28 1149.14,750.606 1156.05,781.181 1158.89,809.692 1158.15,836.024 1154.14,860.137 1147,881.982 1136.73,901.442 1123.18,918.271 1106.12,932.026 1085.26,941.999 1060.4,947.124 1031.53,945.899 999.114,936.371 964.362,916.277 929.617,883.513 898.551,837.076 875.933,778.45 866.637,712.85 873.94,649.184 897.877,597.788 934.814,566.572 978.764,558.025 1023.62,569.232 1064.83,594.406 1099.86,627.611 1127.85,664.194 1148.99,701.121 1164.04,736.737 1173.92,770.279 1179.47,801.454 1181.39,830.242 1180.21,856.759 1176.21,881.128 1169.49,903.42 1160,923.649 1147.51,941.716 1131.67,957.342 1112.03,970.005 1088.1,978.842 1059.48,982.516 1026.01,979.075 988.141,965.898 947.376,939.851 906.793,897.943 871.39,838.783 847.667,764.75 841.973,683.83 857.804,609.042 893.606,554.126 942.947,527.45 997.305,528.778 1049.41,551.37 1094.86,586.708 1131.88,627.727 1160.43,669.679 1181.51,709.989 1196.44,747.637 1206.45,782.341 1212.62,814.119 1215.84,843.213 1216.76,869.963 1215.73,894.65 1212.98,917.488 1208.6,938.686 1202.49,958.417 1194.43,976.775 1184.1,993.772 1171.03,1009.34 1154.62,1023.24 1134.12,1035 1108.7,1043.77 1077.5,1048.13 1039.8,1045.81 995.438,1033.44 945.414,1006.39 892.876,959.267 844.088,887.726 808.547,792.159 796.863,682.131 815.976,577.4 864.358,501.024 931.684,467.087 1004.18,473.608 1071.2,507.489 1127.68,554.849 1172.37,606.045 1206.03,655.268 1230.83,699.952 1249.2,739.94 1262.81,775.668 1273.07,807.322 1281.49,835.214 1289.24,859.925 1296.96,881.901 1305.21,901.239 1314.67,917.868 1326.01,931.703 1339.79,942.546 1356.63,949.94 1377.24,953.115 1402.38,950.966 1432.78,942.003 1468.89,924.311 1510.55,895.644 1556.49,853.868 1603.49,798.006 1645.82,730.029 1675.37,656.838 1683.62,590.641 1665.5,545.472 1622.85,530.34 1564.18,544.061 1500.37,576.925 1440.26,617.556 1388.9,657.98 1347.97,694.708 1316.84,727.451 1293.8,757.108 1277.09,784.489 1265.2,810.155 1256.82,834.557 1250.82,857.967 1246.33,880.436 1242.74,901.93 1239.61,922.446 1236.57,941.995 1233.32,960.579 1229.59,978.215 1225.14,994.944 1219.68,1010.81 1212.87,1025.86 1204.34,1040.09 1193.57,1053.49 1179.96,1065.94 1162.75,1077.19 1141,1086.72 1113.64,1093.59 1079.52,1096.16 1037.63,1091.72 987.562,1076.02 930.388,1043.01 870.049,985.366 814.824,897.052 777.492,778.977 771.846,645.682 805.218,525.689 872.159,448.787 956.24,427.459 1039.74,451.048 1112.24,498.923 1170.88,555.4 1215.73,611.535 1248.47,661.968 1272.73,705.287 1291.62,742.902 1306.43,775.844 1318.48,803.987 1329.83,827.342 1341.99,846.623 1355.45,862.457 1370.54,874.64 1388.05,882.369 1408.89,884.835 1433.56,881.368 1462.08,871.155 1494.03,853.019 1528.47,825.687 1563.54,788.586 1596.09,742.957 1621.47,692.733 1634.38,644.436 1630.74,605.653 1610.03,582.648 1575.8,578.153 1533.55,590.553 1488.39,615.063 1444.97,645.425 1407.64,675.963 1378.64,704.328 1357.03,731.506 1340.72,758.234 1328.9,783.359 1321.93,805.957 1319.49,826.672 1320.35,846.413 1323.61,864.971 1329.36,881.51 1338.01,895.551 1349.79,906.968 1364.77,915.423 1383.3,920.099 1405.93,919.842 1433.22,913.325 1465.45,899.057 1502.31,875.386 1542.59,840.752 1583.7,794.424 1621.2,737.827 1648.96,676.02 1660.27,618.1 1650.37,574.987 1619.27,554.769 1572.52,558.684 1518.74,581.143 1465.58,613.857 1417.86,649.906 1378.08,684.835 1347.1,716.643 1324.3,745.504 1308.06,772.457 1296.77,798.009 1289.41,822.112 1285.32,844.821 1283.8,866.361 1284.23,886.778 1286.32,905.901 1290.03,923.561 1295.43,939.657 1302.63,954.046 1311.93,966.48 1323.74,976.607 1338.63,983.943 1357.29,987.798 1380.52,987.166 1409.21,980.61 1444.19,966.155 1485.95,941.249 1534.13,902.963 1586.67,848.733 1638.74,778.06 1682.05,695.208 1705.77,611.605 1700.4,544.633 1663.41,510.323 1602.01,513.649 1529.41,545.643 1458,591.033 1395.67,637.526 1345.58,679.066 1307.34,714.888 1278.79,746.411 1257.62,774.915 1241.98,801.214 1230.21,826.012 1220.82,849.78 1212.57,872.602 1204.63,894.41 1196.28,915.166 1186.86,934.791 1175.75,953.118 1162.37,969.928 1146.05,984.904 1126.11,997.512 1101.82,1006.88 1072.49,1011.67 1037.65,1009.87 997.354,998.58 952.715,974.078 906.589,932.286 864.219,870.258 833.178,788.878 821.723,695.859 835.401,606.285 873.623,537.948 929.106,502.927 991.252,501.965 1050.87,526.611 1102.64,565.975 1144.56,611.34 1176.76,657.044 1200.61,700.157 1217.87,739.774 1230.07,775.836 1238.47,808.455 1244.29,837.936 1248.39,864.749 1251.32,889.281 1253.5,911.767 1255.3,932.417 1256.98,951.448 1258.69,969.028 1260.58,985.256 1262.82,1000.2 1265.56,1013.93 1268.97,1026.46 1273.28,1037.79 1278.74,1047.86 1285.7,1056.57 1294.6,1063.73 1305.99,1069.05 1320.6,1072.06 1339.31,1072.05 1363.22,1067.92 1393.63,1058.04 1431.93,1039.98 1479.31,1010.32 1536.16,964.641 1600.85,898.217 1667.85,808.279 1725.89,698.652 1758.47,585.208 1749.89,495.515 1696.14,455.687 1610.23,471.452 1513.75,523.579 1423.87,586.047 1349.32,642.487 1292.04,687.212 1249.7,722.282 1218.39,751.362 1194.74,776.688 1176.4,799.406 1161.33,820.405 1147.67,840.001 1134.09,857.949 1119.69,873.932 1103.67,887.537 1085.39,898.028 1064.53,904.501 1041,905.923 1015.01,900.956 987.356,888.108 959.547,866.107 933.855,834.281 913.295,793.254 901.142,745.783 900.039,696.862 911.077,652.935 933.156,620.236 963.156,602.653 997,600.698 1030.82,612.154 1061.69,633.341 1087.89,660.433 1108.77,690.397 1124.29,721.123 1134.78,751.2 1140.78,779.832 1142.78,806.645 1141.12,831.397 1136.08,853.89 1127.79,873.974 1116.22,891.413 1101.27,905.783 1082.82,916.467 1060.78,922.594 1035.22,922.936 1006.61,915.935 975.972,899.85 945.211,873.072 917.224,834.815 895.773,786.113 884.8,730.708 887.267,675.187 903.886,627.684 932.532,595.238 968.882,581.319 1007.9,585.135 1045.31,602.872 1078.29,629.739 1105.46,661.483 1126.51,694.976 1141.77,728.223 1151.89,760.129 1157.5,790.148 1159.2,818.036 1157.44,843.715 1152.47,867.166 1144.38,888.324 1133.13,907.034 1118.55,923.004 1100.36,935.723 1078.29,944.381 1052.18,947.784 1022.14,944.295 988.797,931.833 953.684,908.106 919.534,871.208 890.41,820.722 871.271,759.149 866.723,692.928 879.219,631.766 907.653,585.722 947.464,561.301 992.369,559.21 1036.59,575.325 1076.19,603.56 1109.19,638.261 1135.09,675.248 1154.34,711.946 1167.77,747.027 1176.27,779.9 1180.68,810.37 1181.65,838.479 1179.63,864.358 1174.84,888.116 1167.34,909.811 1157.02,929.435 1143.62,946.846 1126.75,961.701 1105.94,973.397 1080.72,980.951 1050.7,982.864 1015.87,976.994 976.919,960.536 935.731,930.285 895.918,883.496 863.002,819.584 843.691,742.373 843.85,661.499 865.724,590.819 906.235,543.206 957.979,524.738 1012.46,532.923 1063.12,560.008 1106.37,597.646 1141.02,639.386 1167.39,681.114 1186.64,720.775 1200.11,757.639 1208.96,791.53 1214.25,822.533 1216.82,850.942 1217.21,877.093 1215.75,901.243 1212.63,923.604 1207.88,944.382 1201.39,963.733 1192.9,981.731 1182.06,998.377 1168.37,1013.57 1151.19,1027.04 1129.77,1038.25 1103.23,1046.26 1070.72,1049.48 1031.6,1045.47 985.844,1030.55 934.808,999.858 882.197,947.959 834.997,871.051 803.258,771.012 797.382,659.641 822.964,558.35 876.5,489.572 946.309,464.43 1018.69,477.866 1084.07,515.703 1138.35,564.678 1180.81,615.99 1212.53,664.495 1235.91,708.23 1253.26,747.328 1266.14,782.202 1275.98,813.019 1284.28,840.152 1292.11,864.196 1300.04,885.532 1308.68,904.196 1318.71,920.094 1330.79,933.114 1345.5,943.001 1363.46,949.215 1385.42,950.886 1412.12,946.794 1444.21,935.324 1481.99,914.459 1524.99,881.962 1571.39,835.972 1617.23,776.283 1656,706.268 1679.24,634.556 1679.24,574.349 1652.94,538.644 1604.52,533.372 1543.66,554.161 1480.83,590.192 1423.62,631.013 1375.88,670.203 1338.43,705.479 1310.22,737.062 1289.51,765.865 1274.61,792.611 1264.11,817.811 1256.75,841.855 1251.5,864.93 1247.6,887.048 1244.53,908.179 1241.87,928.325 1239.3,947.494 1236.57,965.69 1233.45,982.94 1229.74,999.293 1225.17,1014.8 1219.49,1029.51 1212.35,1043.47 1203.32,1056.69 1191.88,1069.13 1177.37,1080.65 1158.94,1090.94 1135.6,1099.4 1106.2,1104.91 1069.54,1105.52 1024.64,1098.07 971.338,1077.62 911.381,1037.32 849.971,969.399 797.213,868.72 767.452,739.663 774.105,602.465 821.142,489.75 898.348,429.098 986.56,425.135 1069.07,460.523 1138.34,513.954 1193.23,572.144 1234.27,627.495 1263.96,675.63 1286.45,716.514 1304.34,752.081 1318.46,783.026 1330.39,808.928 1342.41,829.903 1355.74,846.84 1370.58,860.282 1387.25,869.724 1406.63,874.101 1429.54,872.53 1456.25,864.416 1486.32,849.081 1518.74,825.552 1551.89,793.024 1583.26,751.983 1609.12,705.426 1624.77,659.15 1625.76,620.298 1610.31,594.833 1581,585.652 1543.34,592.2 1502.17,611.492 1460.74,639.128 1422.63,669.316 1391.81,697.353 1369.53,722.844 1353.54,748.195 1341.4,773.643 1333.05,797.054 1329.54,817.488 1330.47,836.11 1334.35,853.911 1340.48,870.233 1349.34,883.854 1361.64,894.2 1377.6,901.152 1397.23,904.227 1420.77,902.247 1448.63,893.61 1481,876.71 1517.28,850.23 1555.69,813.425 1592.92,766.668 1624.2,712.447 1643.89,656.468 1646.96,607.624 1630.79,575.349 1596.69,565.05 1550.28,575.33 1499.84,599.504 1452.53,630.166 1411.52,662.991 1377.18,695.864 1349.75,726.585 1329.82,753.897 1316.73,778.755 1308.51,802.745 1303.52,825.993 1301.37,847.722 1302.11,867.696 1305.41,886.204 1310.84,903.267 1318.4,918.47 1328.44,931.347 1341.4,941.519 1357.73,948.496 1377.96,951.48 1402.78,949.302 1432.85,940.414 1468.61,922.89 1509.91,894.52 1555.45,853.223 1602.05,798.044 1644.07,730.884 1673.55,658.458 1682.12,592.714 1664.71,547.51 1622.96,531.881 1565.07,544.864 1501.85,577.013 1442.16,617.07 1391.08,657.171 1350.21,693.874 1318.97,726.709 1295.85,756.375 1279.16,783.7 1267.35,809.348 1259.06,833.768 1253.19,857.174 1248.9,879.611 1245.62,901.075 1242.87,921.558 1240.32,941.058 1237.69,959.577 1234.76,977.14 1231.31,993.79 1227.11,1009.58 1221.9,1024.55 1215.37,1038.76 1207.13,1052.23 1196.7,1064.94 1183.46,1076.82 1166.65,1087.61 1145.34,1096.85 1118.42,1103.66 1084.68,1106.45 1043.01,1102.57 992.852,1087.83 935.029,1056.07 873.214,999.621 815.539,911.649 775.066,791.922 766.529,654.234 798.521,527.9 866.238,445.096 952.689,420.508 1038.89,443.581 1113.65,492.205 1174.08,549.695 1220.32,606.887 1253.91,658.047 1278.71,701.482 1298.25,738.886 1313.73,771.613 1326.24,799.475 1338.01,822.226 1350.8,840.556 1365.09,855.292 1381.02,866.333 1399.26,872.719 1420.78,873.435 1446.07,867.805 1474.96,855.243 1506.62,834.892 1539.66,805.792 1571.96,767.792 1600.28,722.843 1620.21,675.773 1626.99,633.496 1617.57,602.679 1592.87,587.435 1557.7,588.404 1517.53,603.338 1475.99,628.414 1436.24,658.318 1402.39,687.445 1377.1,713.58 1359.22,738.67 1345.87,764.235 1336,788.646 1330.64,810.123 1330.1,829.18 1333.09,847.213 1338.44,864.191 1346.23,878.887 1357.24,890.405 1371.91,898.542 1390.25,903.041 1412.38,902.981 1438.66,896.86 1469.42,883.018 1504.4,860.009 1542.28,826.866 1580.28,783.517 1614.11,731.598 1638.33,675.58 1647.54,623.34 1638.13,584.546 1609.95,566.489 1567.09,570.197 1517.22,590.411 1468.36,619.386 1425.22,651.569 1388.75,684.546 1358.91,716.257 1336.34,744.78 1321.06,770.234 1311.46,794.333 1305.52,817.876 1302.42,840.197 1302.21,860.728 1304.75,879.65 1309.57,897.171 1316.47,913.002 1325.73,926.637 1337.8,937.657 1353.1,945.632 1372.15,949.878 1395.56,949.341 1424.01,942.581 1458.06,927.777 1497.73,902.793 1542.13,865.469 1588.69,814.42 1632.5,750.545 1666.22,679.012 1681.36,610.343 1671.57,558.328 1636.38,534.002 1582.32,539.425 1519.89,567.087 1458.81,605.635 1405.22,646.044 1361.59,683.748 1327.82,717.613 1302.6,748.08 1284.31,775.964 1271.33,802.008 1262.23,826.736 1255.85,850.409 1251.29,873.099 1247.93,894.812 1245.26,915.544 1242.93,935.286 1240.65,954.035 1238.22,971.811 1235.43,988.652 1232.09,1004.61 1227.98,1019.73 1222.85,1034.08 1216.38,1047.71 1208.21,1060.64 1197.83,1072.86 1184.63,1084.3 1167.83,1094.71 1146.48,1103.63 1119.45,1110.17 1085.51,1112.74 1043.5,1108.65 992.813,1093.61 934.266,1061.32 871.59,1003.84 813.132,914.059 772.368,791.705 764.48,651.13 798.167,522.822 868.113,439.936 956.477,416.932 1043.76,441.973 1118.91,491.958 1179.44,550.192 1225.59,607.732 1258.95,658.799 1283.62,701.8 1303.24,738.704 1318.87,770.985 1331.51,798.352 1343.5,820.427 1356.71,837.916 1371.55,851.758 1388.02,861.878 1406.77,867.19 1428.75,866.556 1454.47,859.322 1483.57,845.076 1514.93,823.194 1546.89,792.935 1577.16,754.436 1602.53,710.126 1618.81,665.387 1621.61,627.258 1608.54,601.623 1581.47,591.131 1545.98,595.227 1507.32,611.534 1468.03,637.023 1430.43,666.772 1398.71,695.004 1375.83,719.673 1360.34,743.502 1348.81,768.45 1340.12,792.405 1335.8,813.047 1336.54,830.918 1340.96,847.786 1347.63,863.7 1356.69,877.131 1369.15,886.885 1385.58,892.725 1405.91,894.504 1430.03,891.3 1458.09,881.427 1490.19,863.075 1525.7,835.011 1562.59,797.071 1597.18,750.54 1624.42,698.621 1639.08,647.021 1637.39,603.862 1618.3,577.436 1583.59,572.08 1538.05,585.601 1489.36,610.786 1445.08,640.072 1408.31,670.262 1377.84,701.488 1352.58,732.015 1333.71,759.042 1322.06,782.564 1315.86,805.023 1312.66,827.473 1311.72,848.7 1313.67,867.682 1318.7,884.651 1326.33,899.999 1336.33,913.351 1349.13,923.884 1365.4,930.864 1385.7,933.622 1410.48,931.205 1440.16,922.158 1474.99,904.581 1514.68,876.417 1557.75,836.019 1600.92,783.141 1638.66,720.346 1663.65,654.333 1668.81,595.843 1650.56,556.638 1611.07,544.013 1557.51,556.781 1498.97,586.74 1443.55,623.877 1396.38,660.998 1358.85,695.482 1329.91,727.385 1308.12,756.812 1292.52,783.734 1282.06,808.732 1275.33,832.607 1271.12,855.58 1268.78,877.452 1267.99,898.137 1268.45,917.7 1269.9,936.122 1272.26,953.299 1275.63,969.157 1280.14,983.658 1285.95,996.721 1293.39,1008.2 1302.84,1017.88 1314.83,1025.44 1330.04,1030.39 1349.28,1032.01 1373.54,1029.18 1403.95,1020.29 1441.61,1003.04 1487.35,974.319 1541.03,930.369 1600.53,867.596 1660.17,784.775 1709.64,686.861 1735,588.635 1724.23,513.016 1675.29,480.101 1599.35,493.402 1513.91,537.716 1433.39,592.566 1365.68,644.11 1312.93,687.072 1273.49,722.433 "/>
<path clip-path="url(#clip660)" d="M215.55 250.738 L652.912 250.738 L652.912 95.2176 L215.55 95.2176  Z" fill="#ffffff" fill-rule="evenodd" fill-opacity="1"/>
<polyline clip-path="url(#clip660)" style="stroke:#000000; stroke-linecap:round; stroke-linejoin:round; stroke-width:4; stroke-opacity:1; fill:none" points="215.55,250.738 652.912,250.738 652.912,95.2176 215.55,95.2176 215.55,250.738 "/>
<polyline clip-path="url(#clip660)" style="stroke:#009af9; stroke-linecap:round; stroke-linejoin:round; stroke-width:4; stroke-opacity:1; fill:none" points="240.115,147.058 387.509,147.058 "/>
<path clip-path="url(#clip660)" d="M425.477 151.305 Q420.315 151.305 418.324 152.486 Q416.334 153.666 416.334 156.514 Q416.334 158.782 417.815 160.125 Q419.32 161.444 421.889 161.444 Q425.431 161.444 427.56 158.944 Q429.713 156.421 429.713 152.254 L429.713 151.305 L425.477 151.305 M433.972 149.546 L433.972 164.338 L429.713 164.338 L429.713 160.402 Q428.255 162.763 426.079 163.898 Q423.903 165.009 420.755 165.009 Q416.773 165.009 414.412 162.787 Q412.074 160.541 412.074 156.791 Q412.074 152.416 414.991 150.194 Q417.931 147.972 423.741 147.972 L429.713 147.972 L429.713 147.555 Q429.713 144.615 427.769 143.018 Q425.847 141.398 422.352 141.398 Q420.13 141.398 418.023 141.93 Q415.917 142.463 413.973 143.527 L413.973 139.592 Q416.311 138.69 418.51 138.25 Q420.709 137.787 422.792 137.787 Q428.417 137.787 431.195 140.703 Q433.972 143.62 433.972 149.546 Z" fill="#000000" fill-rule="nonzero" fill-opacity="1" /><path clip-path="url(#clip660)" d="M461.403 139.407 L461.403 143.389 Q459.597 142.393 457.769 141.907 Q455.963 141.398 454.111 141.398 Q449.968 141.398 447.676 144.037 Q445.384 146.652 445.384 151.398 Q445.384 156.143 447.676 158.782 Q449.968 161.398 454.111 161.398 Q455.963 161.398 457.769 160.912 Q459.597 160.402 461.403 159.407 L461.403 163.342 Q459.62 164.176 457.699 164.592 Q455.801 165.009 453.648 165.009 Q447.792 165.009 444.343 161.328 Q440.894 157.648 440.894 151.398 Q440.894 145.055 444.366 141.421 Q447.861 137.787 453.926 137.787 Q455.894 137.787 457.769 138.203 Q459.644 138.597 461.403 139.407 Z" fill="#000000" fill-rule="nonzero" fill-opacity="1" /><path clip-path="url(#clip660)" d="M473.023 131.051 L473.023 138.412 L481.796 138.412 L481.796 141.722 L473.023 141.722 L473.023 155.796 Q473.023 158.967 473.88 159.87 Q474.759 160.773 477.421 160.773 L481.796 160.773 L481.796 164.338 L477.421 164.338 Q472.491 164.338 470.616 162.509 Q468.741 160.657 468.741 155.796 L468.741 141.722 L465.616 141.722 L465.616 138.412 L468.741 138.412 L468.741 131.051 L473.023 131.051 Z" fill="#000000" fill-rule="nonzero" fill-opacity="1" /><path clip-path="url(#clip660)" d="M486.958 154.106 L486.958 138.412 L491.218 138.412 L491.218 153.944 Q491.218 157.625 492.653 159.476 Q494.088 161.305 496.958 161.305 Q500.407 161.305 502.398 159.106 Q504.412 156.907 504.412 153.111 L504.412 138.412 L508.671 138.412 L508.671 164.338 L504.412 164.338 L504.412 160.356 Q502.861 162.717 500.801 163.875 Q498.764 165.009 496.055 165.009 Q491.588 165.009 489.273 162.231 Q486.958 159.453 486.958 154.106 M497.676 137.787 L497.676 137.787 Z" fill="#000000" fill-rule="nonzero" fill-opacity="1" /><path clip-path="url(#clip660)" d="M529.227 151.305 Q524.065 151.305 522.074 152.486 Q520.083 153.666 520.083 156.514 Q520.083 158.782 521.565 160.125 Q523.069 161.444 525.639 161.444 Q529.18 161.444 531.31 158.944 Q533.463 156.421 533.463 152.254 L533.463 151.305 L529.227 151.305 M537.722 149.546 L537.722 164.338 L533.463 164.338 L533.463 160.402 Q532.004 162.763 529.828 163.898 Q527.653 165.009 524.504 165.009 Q520.523 165.009 518.162 162.787 Q515.824 160.541 515.824 156.791 Q515.824 152.416 518.741 150.194 Q521.68 147.972 527.49 147.972 L533.463 147.972 L533.463 147.555 Q533.463 144.615 531.518 143.018 Q529.597 141.398 526.102 141.398 Q523.879 141.398 521.773 141.93 Q519.666 142.463 517.722 143.527 L517.722 139.592 Q520.06 138.69 522.259 138.25 Q524.458 137.787 526.541 137.787 Q532.166 137.787 534.944 140.703 Q537.722 143.62 537.722 149.546 Z" fill="#000000" fill-rule="nonzero" fill-opacity="1" /><path clip-path="url(#clip660)" d="M546.495 128.319 L550.754 128.319 L550.754 164.338 L546.495 164.338 L546.495 128.319 Z" fill="#000000" fill-rule="nonzero" fill-opacity="1" /><polyline clip-path="url(#clip660)" style="stroke:#e26f46; stroke-linecap:round; stroke-linejoin:round; stroke-width:4; stroke-opacity:1; fill:none" points="240.115,198.898 387.509,198.898 "/>
<path clip-path="url(#clip660)" d="M416.357 212.289 L416.357 226.039 L412.074 226.039 L412.074 190.252 L416.357 190.252 L416.357 194.187 Q417.699 191.872 419.736 190.761 Q421.797 189.627 424.644 189.627 Q429.366 189.627 432.306 193.377 Q435.269 197.127 435.269 203.238 Q435.269 209.349 432.306 213.099 Q429.366 216.849 424.644 216.849 Q421.797 216.849 419.736 215.738 Q417.699 214.603 416.357 212.289 M430.847 203.238 Q430.847 198.539 428.903 195.877 Q426.982 193.192 423.602 193.192 Q420.223 193.192 418.278 195.877 Q416.357 198.539 416.357 203.238 Q416.357 207.937 418.278 210.622 Q420.223 213.284 423.602 213.284 Q426.982 213.284 428.903 210.622 Q430.847 207.937 430.847 203.238 Z" fill="#000000" fill-rule="nonzero" fill-opacity="1" /><path clip-path="url(#clip660)" d="M457.352 194.233 Q456.634 193.817 455.778 193.631 Q454.945 193.423 453.926 193.423 Q450.315 193.423 448.371 195.784 Q446.449 198.122 446.449 202.52 L446.449 216.178 L442.167 216.178 L442.167 190.252 L446.449 190.252 L446.449 194.28 Q447.792 191.918 449.945 190.784 Q452.097 189.627 455.176 189.627 Q455.616 189.627 456.148 189.696 Q456.681 189.743 457.329 189.858 L457.352 194.233 Z" fill="#000000" fill-rule="nonzero" fill-opacity="1" /><path clip-path="url(#clip660)" d="M482.954 202.15 L482.954 204.233 L463.37 204.233 Q463.648 208.631 466.009 210.946 Q468.394 213.238 472.63 213.238 Q475.083 213.238 477.375 212.636 Q479.69 212.034 481.958 210.83 L481.958 214.858 Q479.667 215.83 477.259 216.34 Q474.852 216.849 472.375 216.849 Q466.171 216.849 462.537 213.238 Q458.926 209.627 458.926 203.469 Q458.926 197.104 462.352 193.377 Q465.801 189.627 471.634 189.627 Q476.866 189.627 479.898 193.006 Q482.954 196.363 482.954 202.15 M478.694 200.9 Q478.648 197.405 476.727 195.321 Q474.829 193.238 471.681 193.238 Q468.116 193.238 465.963 195.252 Q463.833 197.266 463.509 200.923 L478.694 200.9 Z" fill="#000000" fill-rule="nonzero" fill-opacity="1" /><path clip-path="url(#clip660)" d="M507.004 194.187 L507.004 180.159 L511.264 180.159 L511.264 216.178 L507.004 216.178 L507.004 212.289 Q505.662 214.603 503.602 215.738 Q501.565 216.849 498.694 216.849 Q493.995 216.849 491.032 213.099 Q488.093 209.349 488.093 203.238 Q488.093 197.127 491.032 193.377 Q493.995 189.627 498.694 189.627 Q501.565 189.627 503.602 190.761 Q505.662 191.872 507.004 194.187 M492.491 203.238 Q492.491 207.937 494.412 210.622 Q496.356 213.284 499.736 213.284 Q503.116 213.284 505.06 210.622 Q507.004 207.937 507.004 203.238 Q507.004 198.539 505.06 195.877 Q503.116 193.192 499.736 193.192 Q496.356 193.192 494.412 195.877 Q492.491 198.539 492.491 203.238 Z" fill="#000000" fill-rule="nonzero" fill-opacity="1" /><path clip-path="url(#clip660)" d="M520.037 190.252 L524.296 190.252 L524.296 216.178 L520.037 216.178 L520.037 190.252 M520.037 180.159 L524.296 180.159 L524.296 185.553 L520.037 185.553 L520.037 180.159 Z" fill="#000000" fill-rule="nonzero" fill-opacity="1" /><path clip-path="url(#clip660)" d="M551.865 191.247 L551.865 195.229 Q550.06 194.233 548.231 193.747 Q546.426 193.238 544.574 193.238 Q540.43 193.238 538.139 195.877 Q535.847 198.492 535.847 203.238 Q535.847 207.983 538.139 210.622 Q540.43 213.238 544.574 213.238 Q546.426 213.238 548.231 212.752 Q550.06 212.242 551.865 211.247 L551.865 215.182 Q550.083 216.016 548.162 216.432 Q546.264 216.849 544.111 216.849 Q538.254 216.849 534.805 213.168 Q531.356 209.488 531.356 203.238 Q531.356 196.895 534.828 193.261 Q538.324 189.627 544.389 189.627 Q546.356 189.627 548.231 190.043 Q550.106 190.437 551.865 191.247 Z" fill="#000000" fill-rule="nonzero" fill-opacity="1" /><path clip-path="url(#clip660)" d="M563.486 182.891 L563.486 190.252 L572.259 190.252 L572.259 193.562 L563.486 193.562 L563.486 207.636 Q563.486 210.807 564.342 211.71 Q565.222 212.613 567.884 212.613 L572.259 212.613 L572.259 216.178 L567.884 216.178 Q562.953 216.178 561.078 214.349 Q559.203 212.497 559.203 207.636 L559.203 193.562 L556.078 193.562 L556.078 190.252 L559.203 190.252 L559.203 182.891 L563.486 182.891 Z" fill="#000000" fill-rule="nonzero" fill-opacity="1" /><path clip-path="url(#clip660)" d="M600.036 202.15 L600.036 204.233 L580.453 204.233 Q580.731 208.631 583.092 210.946 Q585.476 213.238 589.712 213.238 Q592.166 213.238 594.458 212.636 Q596.773 212.034 599.041 210.83 L599.041 214.858 Q596.749 215.83 594.342 216.34 Q591.935 216.849 589.458 216.849 Q583.254 216.849 579.62 213.238 Q576.009 209.627 576.009 203.469 Q576.009 197.104 579.435 193.377 Q582.884 189.627 588.717 189.627 Q593.948 189.627 596.981 193.006 Q600.036 196.363 600.036 202.15 M595.777 200.9 Q595.731 197.405 593.81 195.321 Q591.911 193.238 588.763 193.238 Q585.198 193.238 583.046 195.252 Q580.916 197.266 580.592 200.923 L595.777 200.9 Z" fill="#000000" fill-rule="nonzero" fill-opacity="1" /><path clip-path="url(#clip660)" d="M624.087 194.187 L624.087 180.159 L628.346 180.159 L628.346 216.178 L624.087 216.178 L624.087 212.289 Q622.745 214.603 620.684 215.738 Q618.647 216.849 615.777 216.849 Q611.078 216.849 608.115 213.099 Q605.175 209.349 605.175 203.238 Q605.175 197.127 608.115 193.377 Q611.078 189.627 615.777 189.627 Q618.647 189.627 620.684 190.761 Q622.745 191.872 624.087 194.187 M609.573 203.238 Q609.573 207.937 611.495 210.622 Q613.439 213.284 616.819 213.284 Q620.198 213.284 622.143 210.622 Q624.087 207.937 624.087 203.238 Q624.087 198.539 622.143 195.877 Q620.198 193.192 616.819 193.192 Q613.439 193.192 611.495 195.877 Q609.573 198.539 609.573 203.238 Z" fill="#000000" fill-rule="nonzero" fill-opacity="1" /></svg>
