<?xml version="1.0" encoding="utf-8"?>
<svg xmlns="http://www.w3.org/2000/svg" xmlns:xlink="http://www.w3.org/1999/xlink" width="600" height="400" viewBox="0 0 2400 1600">
<defs>
  <clipPath id="clip360">
    <rect x="0" y="0" width="2400" height="1600"/>
  </clipPath>
</defs>
<path clip-path="url(#clip360)" d="M0 1600 L2400 1600 L2400 0 L0 0  Z" fill="#ffffff" fill-rule="evenodd" fill-opacity="1"/>
<defs>
  <clipPath id="clip361">
    <rect x="170" y="47" width="2183" height="1440"/>
  </clipPath>
</defs>
<path clip-path="url(#clip361)" d="M2021.88 726.11 L2021.88 694.25 L2028.52 678.32 L2040.01 687.517 L2040.01 719.377 L2033.38 735.307 L2021.88 726.11  Z" fill="#ffffff" fill-rule="evenodd" fill-opacity="1"/>
<polyline clip-path="url(#clip361)" style="stroke:#000000; stroke-linecap:round; stroke-linejoin:round; stroke-width:2; stroke-opacity:0.1; fill:none" points="732.991,1213.86 1148.45,854.057 1148.45,134.456 "/>
<polyline clip-path="url(#clip361)" style="stroke:#000000; stroke-linecap:round; stroke-linejoin:round; stroke-width:2; stroke-opacity:0.1; fill:none" points="876.679,1255.34 1292.14,895.537 1292.14,175.935 "/>
<polyline clip-path="url(#clip361)" style="stroke:#000000; stroke-linecap:round; stroke-linejoin:round; stroke-width:2; stroke-opacity:0.1; fill:none" points="1020.37,1296.82 1435.83,937.016 1435.83,217.414 "/>
<polyline clip-path="url(#clip361)" style="stroke:#000000; stroke-linecap:round; stroke-linejoin:round; stroke-width:2; stroke-opacity:0.1; fill:none" points="1164.05,1338.3 1579.52,978.495 1579.52,258.893 "/>
<polyline clip-path="url(#clip361)" style="stroke:#000000; stroke-linecap:round; stroke-linejoin:round; stroke-width:2; stroke-opacity:0.1; fill:none" points="1307.74,1379.77 1723.2,1019.97 1723.2,300.372 "/>
<polyline clip-path="url(#clip361)" style="stroke:#000000; stroke-linecap:round; stroke-linejoin:round; stroke-width:2; stroke-opacity:0.1; fill:none" points="1454.99,1374.8 735.391,1167.07 735.391,447.472 "/>
<polyline clip-path="url(#clip361)" style="stroke:#000000; stroke-linecap:round; stroke-linejoin:round; stroke-width:2; stroke-opacity:0.1; fill:none" points="1546.97,1295.15 827.363,1087.42 827.363,367.822 "/>
<polyline clip-path="url(#clip361)" style="stroke:#000000; stroke-linecap:round; stroke-linejoin:round; stroke-width:2; stroke-opacity:0.1; fill:none" points="1638.94,1215.5 919.336,1007.77 919.336,288.171 "/>
<polyline clip-path="url(#clip361)" style="stroke:#000000; stroke-linecap:round; stroke-linejoin:round; stroke-width:2; stroke-opacity:0.1; fill:none" points="1730.91,1135.85 1011.31,928.123 1011.31,208.521 "/>
<polyline clip-path="url(#clip361)" style="stroke:#000000; stroke-linecap:round; stroke-linejoin:round; stroke-width:2; stroke-opacity:0.1; fill:none" points="1822.88,1056.2 1103.28,848.473 1103.28,128.871 "/>
<polyline clip-path="url(#clip361)" style="stroke:#000000; stroke-linecap:round; stroke-linejoin:round; stroke-width:2; stroke-opacity:0.1; fill:none" points="694.275,1197.75 1109.74,837.949 1829.34,1045.68 "/>
<polyline clip-path="url(#clip361)" style="stroke:#000000; stroke-linecap:round; stroke-linejoin:round; stroke-width:2; stroke-opacity:0.1; fill:none" points="694.275,980.06 1109.74,620.259 1829.34,827.99 "/>
<polyline clip-path="url(#clip361)" style="stroke:#000000; stroke-linecap:round; stroke-linejoin:round; stroke-width:2; stroke-opacity:0.1; fill:none" points="694.275,762.37 1109.74,402.569 1829.34,610.3 "/>
<polyline clip-path="url(#clip361)" style="stroke:#000000; stroke-linecap:round; stroke-linejoin:round; stroke-width:2; stroke-opacity:0.1; fill:none" points="694.275,544.679 1109.74,184.878 1829.34,392.61 "/>
<polyline clip-path="url(#clip360)" style="stroke:#000000; stroke-linecap:round; stroke-linejoin:round; stroke-width:4; stroke-opacity:1; fill:none" points="694.275,1202.68 1413.88,1410.41 "/>
<polyline clip-path="url(#clip360)" style="stroke:#000000; stroke-linecap:round; stroke-linejoin:round; stroke-width:4; stroke-opacity:1; fill:none" points="732.991,1213.86 737.977,1209.54 "/>
<polyline clip-path="url(#clip360)" style="stroke:#000000; stroke-linecap:round; stroke-linejoin:round; stroke-width:4; stroke-opacity:1; fill:none" points="876.679,1255.34 881.665,1251.02 "/>
<polyline clip-path="url(#clip360)" style="stroke:#000000; stroke-linecap:round; stroke-linejoin:round; stroke-width:4; stroke-opacity:1; fill:none" points="1020.37,1296.82 1025.35,1292.5 "/>
<polyline clip-path="url(#clip360)" style="stroke:#000000; stroke-linecap:round; stroke-linejoin:round; stroke-width:4; stroke-opacity:1; fill:none" points="1164.05,1338.3 1169.04,1333.98 "/>
<polyline clip-path="url(#clip360)" style="stroke:#000000; stroke-linecap:round; stroke-linejoin:round; stroke-width:4; stroke-opacity:1; fill:none" points="1307.74,1379.77 1312.73,1375.46 "/>
<path clip-path="url(#clip360)" d="M592.962 1236.8 L622.638 1236.8 L622.638 1240.73 L592.962 1240.73 L592.962 1236.8 Z" fill="#000000" fill-rule="nonzero" fill-opacity="1" /><path clip-path="url(#clip360)" d="M633.541 1249.69 L641.18 1249.69 L641.18 1223.33 L632.87 1224.99 L632.87 1220.73 L641.133 1219.07 L645.809 1219.07 L645.809 1249.69 L653.448 1249.69 L653.448 1253.63 L633.541 1253.63 L633.541 1249.69 Z" fill="#000000" fill-rule="nonzero" fill-opacity="1" /><path clip-path="url(#clip360)" d="M672.892 1222.14 Q669.281 1222.14 667.453 1225.71 Q665.647 1229.25 665.647 1236.38 Q665.647 1243.49 667.453 1247.05 Q669.281 1250.59 672.892 1250.59 Q676.527 1250.59 678.332 1247.05 Q680.161 1243.49 680.161 1236.38 Q680.161 1229.25 678.332 1225.71 Q676.527 1222.14 672.892 1222.14 M672.892 1218.44 Q678.703 1218.44 681.758 1223.05 Q684.837 1227.63 684.837 1236.38 Q684.837 1245.11 681.758 1249.71 Q678.703 1254.3 672.892 1254.3 Q667.082 1254.3 664.004 1249.71 Q660.948 1245.11 660.948 1236.38 Q660.948 1227.63 664.004 1223.05 Q667.082 1218.44 672.892 1218.44 Z" fill="#000000" fill-rule="nonzero" fill-opacity="1" /><path clip-path="url(#clip360)" d="M703.054 1222.14 Q699.443 1222.14 697.615 1225.71 Q695.809 1229.25 695.809 1236.38 Q695.809 1243.49 697.615 1247.05 Q699.443 1250.59 703.054 1250.59 Q706.689 1250.59 708.494 1247.05 Q710.323 1243.49 710.323 1236.38 Q710.323 1229.25 708.494 1225.71 Q706.689 1222.14 703.054 1222.14 M703.054 1218.44 Q708.864 1218.44 711.92 1223.05 Q714.999 1227.63 714.999 1236.38 Q714.999 1245.11 711.92 1249.71 Q708.864 1254.3 703.054 1254.3 Q697.244 1254.3 694.165 1249.71 Q691.11 1245.11 691.11 1236.38 Q691.11 1227.63 694.165 1223.05 Q697.244 1218.44 703.054 1218.44 Z" fill="#000000" fill-rule="nonzero" fill-opacity="1" /><path clip-path="url(#clip360)" d="M767.807 1278.28 L797.483 1278.28 L797.483 1282.21 L767.807 1282.21 L767.807 1278.28 Z" fill="#000000" fill-rule="nonzero" fill-opacity="1" /><path clip-path="url(#clip360)" d="M806.395 1260.55 L828.617 1260.55 L828.617 1262.54 L816.071 1295.11 L811.187 1295.11 L822.992 1264.48 L806.395 1264.48 L806.395 1260.55 Z" fill="#000000" fill-rule="nonzero" fill-opacity="1" /><path clip-path="url(#clip360)" d="M837.784 1260.55 L856.14 1260.55 L856.14 1264.48 L842.066 1264.48 L842.066 1272.95 Q843.085 1272.61 844.103 1272.44 Q845.122 1272.26 846.14 1272.26 Q851.927 1272.26 855.307 1275.43 Q858.687 1278.6 858.687 1284.02 Q858.687 1289.6 855.214 1292.7 Q851.742 1295.78 845.423 1295.78 Q843.247 1295.78 840.978 1295.41 Q838.733 1295.04 836.326 1294.3 L836.326 1289.6 Q838.409 1290.73 840.631 1291.29 Q842.853 1291.84 845.33 1291.84 Q849.335 1291.84 851.673 1289.74 Q854.011 1287.63 854.011 1284.02 Q854.011 1280.41 851.673 1278.3 Q849.335 1276.19 845.33 1276.19 Q843.455 1276.19 841.58 1276.61 Q839.728 1277.03 837.784 1277.91 L837.784 1260.55 Z" fill="#000000" fill-rule="nonzero" fill-opacity="1" /><path clip-path="url(#clip360)" d="M910.5 1319.76 L940.176 1319.76 L940.176 1323.69 L910.5 1323.69 L910.5 1319.76 Z" fill="#000000" fill-rule="nonzero" fill-opacity="1" /><path clip-path="url(#clip360)" d="M950.314 1302.02 L968.671 1302.02 L968.671 1305.96 L954.597 1305.96 L954.597 1314.43 Q955.615 1314.08 956.634 1313.92 Q957.652 1313.74 958.671 1313.74 Q964.458 1313.74 967.837 1316.91 Q971.217 1320.08 971.217 1325.5 Q971.217 1331.08 967.745 1334.18 Q964.273 1337.26 957.953 1337.26 Q955.777 1337.26 953.509 1336.89 Q951.263 1336.52 948.856 1335.77 L948.856 1331.08 Q950.939 1332.21 953.162 1332.77 Q955.384 1333.32 957.861 1333.32 Q961.865 1333.32 964.203 1331.21 Q966.541 1329.11 966.541 1325.5 Q966.541 1321.89 964.203 1319.78 Q961.865 1317.67 957.861 1317.67 Q955.986 1317.67 954.111 1318.09 Q952.259 1318.51 950.314 1319.39 L950.314 1302.02 Z" fill="#000000" fill-rule="nonzero" fill-opacity="1" /><path clip-path="url(#clip360)" d="M990.43 1305.1 Q986.819 1305.1 984.99 1308.67 Q983.185 1312.21 983.185 1319.34 Q983.185 1326.45 984.99 1330.01 Q986.819 1333.55 990.43 1333.55 Q994.064 1333.55 995.87 1330.01 Q997.698 1326.45 997.698 1319.34 Q997.698 1312.21 995.87 1308.67 Q994.064 1305.1 990.43 1305.1 M990.43 1301.4 Q996.24 1301.4 999.296 1306.01 Q1002.37 1310.59 1002.37 1319.34 Q1002.37 1328.07 999.296 1332.67 Q996.24 1337.26 990.43 1337.26 Q984.62 1337.26 981.541 1332.67 Q978.486 1328.07 978.486 1319.34 Q978.486 1310.59 981.541 1306.01 Q984.62 1301.4 990.43 1301.4 Z" fill="#000000" fill-rule="nonzero" fill-opacity="1" /><path clip-path="url(#clip360)" d="M1055.18 1361.23 L1084.86 1361.23 L1084.86 1365.17 L1055.18 1365.17 L1055.18 1361.23 Z" fill="#000000" fill-rule="nonzero" fill-opacity="1" /><path clip-path="url(#clip360)" d="M1098.98 1374.13 L1115.3 1374.13 L1115.3 1378.06 L1093.35 1378.06 L1093.35 1374.13 Q1096.02 1371.37 1100.6 1366.74 Q1105.21 1362.09 1106.39 1360.75 Q1108.63 1358.23 1109.51 1356.49 Q1110.41 1354.73 1110.41 1353.04 Q1110.41 1350.29 1108.47 1348.55 Q1106.55 1346.81 1103.45 1346.81 Q1101.25 1346.81 1098.79 1347.58 Q1096.36 1348.34 1093.59 1349.89 L1093.59 1345.17 Q1096.41 1344.04 1098.86 1343.46 Q1101.32 1342.88 1103.35 1342.88 Q1108.72 1342.88 1111.92 1345.56 Q1115.11 1348.25 1115.11 1352.74 Q1115.11 1354.87 1114.3 1356.79 Q1113.52 1358.69 1111.41 1361.28 Q1110.83 1361.95 1107.73 1365.17 Q1104.63 1368.36 1098.98 1374.13 Z" fill="#000000" fill-rule="nonzero" fill-opacity="1" /><path clip-path="url(#clip360)" d="M1125.16 1343.5 L1143.52 1343.5 L1143.52 1347.44 L1129.44 1347.44 L1129.44 1355.91 Q1130.46 1355.56 1131.48 1355.4 Q1132.5 1355.22 1133.52 1355.22 Q1139.3 1355.22 1142.68 1358.39 Q1146.06 1361.56 1146.06 1366.98 Q1146.06 1372.55 1142.59 1375.66 Q1139.12 1378.73 1132.8 1378.73 Q1130.62 1378.73 1128.35 1378.36 Q1126.11 1377.99 1123.7 1377.25 L1123.7 1372.55 Q1125.78 1373.69 1128.01 1374.24 Q1130.23 1374.8 1132.71 1374.8 Q1136.71 1374.8 1139.05 1372.69 Q1141.39 1370.59 1141.39 1366.98 Q1141.39 1363.36 1139.05 1361.26 Q1136.71 1359.15 1132.71 1359.15 Q1130.83 1359.15 1128.96 1359.57 Q1127.1 1359.98 1125.16 1360.86 L1125.16 1343.5 Z" fill="#000000" fill-rule="nonzero" fill-opacity="1" /><path clip-path="url(#clip360)" d="M1277.81 1388.06 Q1274.19 1388.06 1272.37 1391.63 Q1270.56 1395.17 1270.56 1402.3 Q1270.56 1409.4 1272.37 1412.97 Q1274.19 1416.51 1277.81 1416.51 Q1281.44 1416.51 1283.25 1412.97 Q1285.07 1409.4 1285.07 1402.3 Q1285.07 1395.17 1283.25 1391.63 Q1281.44 1388.06 1277.81 1388.06 M1277.81 1384.36 Q1283.62 1384.36 1286.67 1388.96 Q1289.75 1393.55 1289.75 1402.3 Q1289.75 1411.02 1286.67 1415.63 Q1283.62 1420.21 1277.81 1420.21 Q1272 1420.21 1268.92 1415.63 Q1265.86 1411.02 1265.86 1402.3 Q1265.86 1393.55 1268.92 1388.96 Q1272 1384.36 1277.81 1384.36 Z" fill="#000000" fill-rule="nonzero" fill-opacity="1" /><polyline clip-path="url(#clip360)" style="stroke:#000000; stroke-linecap:round; stroke-linejoin:round; stroke-width:4; stroke-opacity:1; fill:none" points="1413.88,1410.41 1829.34,1050.61 "/>
<polyline clip-path="url(#clip360)" style="stroke:#000000; stroke-linecap:round; stroke-linejoin:round; stroke-width:4; stroke-opacity:1; fill:none" points="1454.99,1374.8 1446.36,1372.31 "/>
<polyline clip-path="url(#clip360)" style="stroke:#000000; stroke-linecap:round; stroke-linejoin:round; stroke-width:4; stroke-opacity:1; fill:none" points="1546.97,1295.15 1538.33,1292.66 "/>
<polyline clip-path="url(#clip360)" style="stroke:#000000; stroke-linecap:round; stroke-linejoin:round; stroke-width:4; stroke-opacity:1; fill:none" points="1638.94,1215.5 1630.3,1213.01 "/>
<polyline clip-path="url(#clip360)" style="stroke:#000000; stroke-linecap:round; stroke-linejoin:round; stroke-width:4; stroke-opacity:1; fill:none" points="1730.91,1135.85 1722.27,1133.36 "/>
<polyline clip-path="url(#clip360)" style="stroke:#000000; stroke-linecap:round; stroke-linejoin:round; stroke-width:4; stroke-opacity:1; fill:none" points="1822.88,1056.2 1814.25,1053.71 "/>
<path clip-path="url(#clip360)" d="M1481.58 1386.33 L1511.25 1386.33 L1511.25 1390.27 L1481.58 1390.27 L1481.58 1386.33 Z" fill="#000000" fill-rule="nonzero" fill-opacity="1" /><path clip-path="url(#clip360)" d="M1525.37 1399.23 L1541.69 1399.23 L1541.69 1403.16 L1519.75 1403.16 L1519.75 1399.23 Q1522.41 1396.47 1526.99 1391.84 Q1531.6 1387.19 1532.78 1385.85 Q1535.03 1383.32 1535.91 1381.59 Q1536.81 1379.83 1536.81 1378.14 Q1536.81 1375.38 1534.87 1373.65 Q1532.94 1371.91 1529.84 1371.91 Q1527.64 1371.91 1525.19 1372.67 Q1522.76 1373.44 1519.98 1374.99 L1519.98 1370.27 Q1522.8 1369.13 1525.26 1368.55 Q1527.71 1367.98 1529.75 1367.98 Q1535.12 1367.98 1538.31 1370.66 Q1541.51 1373.35 1541.51 1377.84 Q1541.51 1379.97 1540.7 1381.89 Q1539.91 1383.79 1537.8 1386.38 Q1537.23 1387.05 1534.12 1390.27 Q1531.02 1393.46 1525.37 1399.23 Z" fill="#000000" fill-rule="nonzero" fill-opacity="1" /><path clip-path="url(#clip360)" d="M1561.51 1371.68 Q1557.9 1371.68 1556.07 1375.24 Q1554.26 1378.79 1554.26 1385.92 Q1554.26 1393.02 1556.07 1396.59 Q1557.9 1400.13 1561.51 1400.13 Q1565.14 1400.13 1566.95 1396.59 Q1568.78 1393.02 1568.78 1385.92 Q1568.78 1378.79 1566.95 1375.24 Q1565.14 1371.68 1561.51 1371.68 M1561.51 1367.98 Q1567.32 1367.98 1570.37 1372.58 Q1573.45 1377.17 1573.45 1385.92 Q1573.45 1394.64 1570.37 1399.25 Q1567.32 1403.83 1561.51 1403.83 Q1555.7 1403.83 1552.62 1399.25 Q1549.56 1394.64 1549.56 1385.92 Q1549.56 1377.17 1552.62 1372.58 Q1555.7 1367.98 1561.51 1367.98 Z" fill="#000000" fill-rule="nonzero" fill-opacity="1" /><path clip-path="url(#clip360)" d="M1573.55 1306.68 L1603.23 1306.68 L1603.23 1310.62 L1573.55 1310.62 L1573.55 1306.68 Z" fill="#000000" fill-rule="nonzero" fill-opacity="1" /><path clip-path="url(#clip360)" d="M1614.13 1319.58 L1621.77 1319.58 L1621.77 1293.21 L1613.46 1294.88 L1613.46 1290.62 L1621.72 1288.95 L1626.4 1288.95 L1626.4 1319.58 L1634.04 1319.58 L1634.04 1323.51 L1614.13 1323.51 L1614.13 1319.58 Z" fill="#000000" fill-rule="nonzero" fill-opacity="1" /><path clip-path="url(#clip360)" d="M1653.48 1292.03 Q1649.87 1292.03 1648.04 1295.59 Q1646.24 1299.14 1646.24 1306.26 Q1646.24 1313.37 1648.04 1316.94 Q1649.87 1320.48 1653.48 1320.48 Q1657.11 1320.48 1658.92 1316.94 Q1660.75 1313.37 1660.75 1306.26 Q1660.75 1299.14 1658.92 1295.59 Q1657.11 1292.03 1653.48 1292.03 M1653.48 1288.33 Q1659.29 1288.33 1662.35 1292.93 Q1665.43 1297.52 1665.43 1306.26 Q1665.43 1314.99 1662.35 1319.6 Q1659.29 1324.18 1653.48 1324.18 Q1647.67 1324.18 1644.59 1319.6 Q1641.54 1314.99 1641.54 1306.26 Q1641.54 1297.52 1644.59 1292.93 Q1647.67 1288.33 1653.48 1288.33 Z" fill="#000000" fill-rule="nonzero" fill-opacity="1" /><path clip-path="url(#clip360)" d="M1677.47 1212.38 Q1673.86 1212.38 1672.03 1215.94 Q1670.22 1219.49 1670.22 1226.61 Q1670.22 1233.72 1672.03 1237.29 Q1673.86 1240.83 1677.47 1240.83 Q1681.1 1240.83 1682.91 1237.29 Q1684.74 1233.72 1684.74 1226.61 Q1684.74 1219.49 1682.91 1215.94 Q1681.1 1212.38 1677.47 1212.38 M1677.47 1208.68 Q1683.28 1208.68 1686.33 1213.28 Q1689.41 1217.86 1689.41 1226.61 Q1689.41 1235.34 1686.33 1239.95 Q1683.28 1244.53 1677.47 1244.53 Q1671.66 1244.53 1668.58 1239.95 Q1665.52 1235.34 1665.52 1226.61 Q1665.52 1217.86 1668.58 1213.28 Q1671.66 1208.68 1677.47 1208.68 Z" fill="#000000" fill-rule="nonzero" fill-opacity="1" /><path clip-path="url(#clip360)" d="M1758.17 1160.27 L1765.81 1160.27 L1765.81 1133.91 L1757.49 1135.58 L1757.49 1131.32 L1765.76 1129.65 L1770.43 1129.65 L1770.43 1160.27 L1778.07 1160.27 L1778.07 1164.21 L1758.17 1164.21 L1758.17 1160.27 Z" fill="#000000" fill-rule="nonzero" fill-opacity="1" /><path clip-path="url(#clip360)" d="M1797.52 1132.73 Q1793.91 1132.73 1792.08 1136.29 Q1790.27 1139.83 1790.27 1146.96 Q1790.27 1154.07 1792.08 1157.64 Q1793.91 1161.18 1797.52 1161.18 Q1801.15 1161.18 1802.96 1157.64 Q1804.79 1154.07 1804.79 1146.96 Q1804.79 1139.83 1802.96 1136.29 Q1801.15 1132.73 1797.52 1132.73 M1797.52 1129.02 Q1803.33 1129.02 1806.38 1133.63 Q1809.46 1138.21 1809.46 1146.96 Q1809.46 1155.69 1806.38 1160.3 Q1803.33 1164.88 1797.52 1164.88 Q1791.71 1164.88 1788.63 1160.3 Q1785.57 1155.69 1785.57 1146.96 Q1785.57 1138.21 1788.63 1133.63 Q1791.71 1129.02 1797.52 1129.02 Z" fill="#000000" fill-rule="nonzero" fill-opacity="1" /><path clip-path="url(#clip360)" d="M1855.09 1080.62 L1871.41 1080.62 L1871.41 1084.56 L1849.47 1084.56 L1849.47 1080.62 Q1852.13 1077.87 1856.71 1073.24 Q1861.32 1068.59 1862.5 1067.24 Q1864.74 1064.72 1865.62 1062.99 Q1866.53 1061.23 1866.53 1059.54 Q1866.53 1056.78 1864.58 1055.05 Q1862.66 1053.31 1859.56 1053.31 Q1857.36 1053.31 1854.91 1054.07 Q1852.48 1054.84 1849.7 1056.39 L1849.7 1051.67 Q1852.52 1050.53 1854.98 1049.95 Q1857.43 1049.37 1859.47 1049.37 Q1864.84 1049.37 1868.03 1052.06 Q1871.23 1054.74 1871.23 1059.24 Q1871.23 1061.37 1870.42 1063.29 Q1869.63 1065.18 1867.52 1067.78 Q1866.94 1068.45 1863.84 1071.67 Q1860.74 1074.86 1855.09 1080.62 Z" fill="#000000" fill-rule="nonzero" fill-opacity="1" /><path clip-path="url(#clip360)" d="M1891.23 1053.08 Q1887.62 1053.08 1885.79 1056.64 Q1883.98 1060.18 1883.98 1067.31 Q1883.98 1074.42 1885.79 1077.99 Q1887.62 1081.53 1891.23 1081.53 Q1894.86 1081.53 1896.67 1077.99 Q1898.49 1074.42 1898.49 1067.31 Q1898.49 1060.18 1896.67 1056.64 Q1894.86 1053.08 1891.23 1053.08 M1891.23 1049.37 Q1897.04 1049.37 1900.09 1053.98 Q1903.17 1058.56 1903.17 1067.31 Q1903.17 1076.04 1900.09 1080.65 Q1897.04 1085.23 1891.23 1085.23 Q1885.42 1085.23 1882.34 1080.65 Q1879.28 1076.04 1879.28 1067.31 Q1879.28 1058.56 1882.34 1053.98 Q1885.42 1049.37 1891.23 1049.37 Z" fill="#000000" fill-rule="nonzero" fill-opacity="1" /><polyline clip-path="url(#clip360)" style="stroke:#000000; stroke-linecap:round; stroke-linejoin:round; stroke-width:4; stroke-opacity:1; fill:none" points="694.275,1202.68 694.275,483.08 "/>
<polyline clip-path="url(#clip360)" style="stroke:#000000; stroke-linecap:round; stroke-linejoin:round; stroke-width:4; stroke-opacity:1; fill:none" points="694.275,1197.75 699.26,1193.43 "/>
<polyline clip-path="url(#clip360)" style="stroke:#000000; stroke-linecap:round; stroke-linejoin:round; stroke-width:4; stroke-opacity:1; fill:none" points="694.275,980.06 699.26,975.742 "/>
<polyline clip-path="url(#clip360)" style="stroke:#000000; stroke-linecap:round; stroke-linejoin:round; stroke-width:4; stroke-opacity:1; fill:none" points="694.275,762.37 699.26,758.052 "/>
<polyline clip-path="url(#clip360)" style="stroke:#000000; stroke-linecap:round; stroke-linejoin:round; stroke-width:4; stroke-opacity:1; fill:none" points="694.275,544.679 699.26,540.362 "/>
<path clip-path="url(#clip360)" d="M653.53 1183.55 Q649.919 1183.55 648.09 1187.11 Q646.285 1190.66 646.285 1197.78 Q646.285 1204.89 648.09 1208.46 Q649.919 1212 653.53 1212 Q657.164 1212 658.97 1208.46 Q660.799 1204.89 660.799 1197.78 Q660.799 1190.66 658.97 1187.11 Q657.164 1183.55 653.53 1183.55 M653.53 1179.85 Q659.34 1179.85 662.396 1184.45 Q665.475 1189.04 665.475 1197.78 Q665.475 1206.51 662.396 1211.12 Q659.34 1215.7 653.53 1215.7 Q647.72 1215.7 644.641 1211.12 Q641.586 1206.51 641.586 1197.78 Q641.586 1189.04 644.641 1184.45 Q647.72 1179.85 653.53 1179.85 Z" fill="#000000" fill-rule="nonzero" fill-opacity="1" /><path clip-path="url(#clip360)" d="M584.017 993.405 L591.655 993.405 L591.655 967.039 L583.345 968.706 L583.345 964.447 L591.609 962.78 L596.285 962.78 L596.285 993.405 L603.924 993.405 L603.924 997.34 L584.017 997.34 L584.017 993.405 Z" fill="#000000" fill-rule="nonzero" fill-opacity="1" /><path clip-path="url(#clip360)" d="M623.368 965.859 Q619.757 965.859 617.929 969.423 Q616.123 972.965 616.123 980.095 Q616.123 987.201 617.929 990.766 Q619.757 994.308 623.368 994.308 Q627.003 994.308 628.808 990.766 Q630.637 987.201 630.637 980.095 Q630.637 972.965 628.808 969.423 Q627.003 965.859 623.368 965.859 M623.368 962.155 Q629.178 962.155 632.234 966.761 Q635.313 971.345 635.313 980.095 Q635.313 988.821 632.234 993.428 Q629.178 998.011 623.368 998.011 Q617.558 998.011 614.479 993.428 Q611.424 988.821 611.424 980.095 Q611.424 971.345 614.479 966.761 Q617.558 962.155 623.368 962.155 Z" fill="#000000" fill-rule="nonzero" fill-opacity="1" /><path clip-path="url(#clip360)" d="M653.53 965.859 Q649.919 965.859 648.09 969.423 Q646.285 972.965 646.285 980.095 Q646.285 987.201 648.09 990.766 Q649.919 994.308 653.53 994.308 Q657.164 994.308 658.97 990.766 Q660.799 987.201 660.799 980.095 Q660.799 972.965 658.97 969.423 Q657.164 965.859 653.53 965.859 M653.53 962.155 Q659.34 962.155 662.396 966.761 Q665.475 971.345 665.475 980.095 Q665.475 988.821 662.396 993.428 Q659.34 998.011 653.53 998.011 Q647.72 998.011 644.641 993.428 Q641.586 988.821 641.586 980.095 Q641.586 971.345 644.641 966.761 Q647.72 962.155 653.53 962.155 Z" fill="#000000" fill-rule="nonzero" fill-opacity="1" /><path clip-path="url(#clip360)" d="M587.234 775.715 L603.554 775.715 L603.554 779.65 L581.609 779.65 L581.609 775.715 Q584.271 772.96 588.855 768.33 Q593.461 763.678 594.642 762.335 Q596.887 759.812 597.767 758.076 Q598.669 756.316 598.669 754.627 Q598.669 751.872 596.725 750.136 Q594.804 748.4 591.702 748.4 Q589.503 748.4 587.049 749.164 Q584.618 749.928 581.841 751.479 L581.841 746.756 Q584.665 745.622 587.118 745.043 Q589.572 744.465 591.609 744.465 Q596.98 744.465 600.174 747.15 Q603.368 749.835 603.368 754.326 Q603.368 756.455 602.558 758.377 Q601.771 760.275 599.665 762.867 Q599.086 763.539 595.984 766.756 Q592.882 769.951 587.234 775.715 Z" fill="#000000" fill-rule="nonzero" fill-opacity="1" /><path clip-path="url(#clip360)" d="M623.368 748.168 Q619.757 748.168 617.929 751.733 Q616.123 755.275 616.123 762.404 Q616.123 769.511 617.929 773.076 Q619.757 776.617 623.368 776.617 Q627.003 776.617 628.808 773.076 Q630.637 769.511 630.637 762.404 Q630.637 755.275 628.808 751.733 Q627.003 748.168 623.368 748.168 M623.368 744.465 Q629.178 744.465 632.234 749.071 Q635.313 753.654 635.313 762.404 Q635.313 771.131 632.234 775.738 Q629.178 780.321 623.368 780.321 Q617.558 780.321 614.479 775.738 Q611.424 771.131 611.424 762.404 Q611.424 753.654 614.479 749.071 Q617.558 744.465 623.368 744.465 Z" fill="#000000" fill-rule="nonzero" fill-opacity="1" /><path clip-path="url(#clip360)" d="M653.53 748.168 Q649.919 748.168 648.09 751.733 Q646.285 755.275 646.285 762.404 Q646.285 769.511 648.09 773.076 Q649.919 776.617 653.53 776.617 Q657.164 776.617 658.97 773.076 Q660.799 769.511 660.799 762.404 Q660.799 755.275 658.97 751.733 Q657.164 748.168 653.53 748.168 M653.53 744.465 Q659.34 744.465 662.396 749.071 Q665.475 753.654 665.475 762.404 Q665.475 771.131 662.396 775.738 Q659.34 780.321 653.53 780.321 Q647.72 780.321 644.641 775.738 Q641.586 771.131 641.586 762.404 Q641.586 753.654 644.641 749.071 Q647.72 744.465 653.53 744.465 Z" fill="#000000" fill-rule="nonzero" fill-opacity="1" /><path clip-path="url(#clip360)" d="M597.373 543.325 Q600.73 544.043 602.605 546.311 Q604.503 548.58 604.503 551.913 Q604.503 557.029 600.984 559.83 Q597.466 562.631 590.984 562.631 Q588.808 562.631 586.493 562.191 Q584.202 561.774 581.748 560.918 L581.748 556.404 Q583.693 557.538 586.007 558.117 Q588.322 558.696 590.845 558.696 Q595.243 558.696 597.535 556.959 Q599.85 555.223 599.85 551.913 Q599.85 548.858 597.697 547.145 Q595.568 545.409 591.748 545.409 L587.72 545.409 L587.72 541.566 L591.933 541.566 Q595.382 541.566 597.211 540.2 Q599.04 538.811 599.04 536.219 Q599.04 533.557 597.142 532.145 Q595.267 530.71 591.748 530.71 Q589.827 530.71 587.628 531.126 Q585.429 531.543 582.79 532.423 L582.79 528.256 Q585.452 527.515 587.767 527.145 Q590.105 526.774 592.165 526.774 Q597.489 526.774 600.591 529.205 Q603.692 531.612 603.692 535.733 Q603.692 538.603 602.049 540.594 Q600.405 542.561 597.373 543.325 Z" fill="#000000" fill-rule="nonzero" fill-opacity="1" /><path clip-path="url(#clip360)" d="M623.368 530.478 Q619.757 530.478 617.929 534.043 Q616.123 537.585 616.123 544.714 Q616.123 551.821 617.929 555.385 Q619.757 558.927 623.368 558.927 Q627.003 558.927 628.808 555.385 Q630.637 551.821 630.637 544.714 Q630.637 537.585 628.808 534.043 Q627.003 530.478 623.368 530.478 M623.368 526.774 Q629.178 526.774 632.234 531.381 Q635.313 535.964 635.313 544.714 Q635.313 553.441 632.234 558.047 Q629.178 562.631 623.368 562.631 Q617.558 562.631 614.479 558.047 Q611.424 553.441 611.424 544.714 Q611.424 535.964 614.479 531.381 Q617.558 526.774 623.368 526.774 Z" fill="#000000" fill-rule="nonzero" fill-opacity="1" /><path clip-path="url(#clip360)" d="M653.53 530.478 Q649.919 530.478 648.09 534.043 Q646.285 537.585 646.285 544.714 Q646.285 551.821 648.09 555.385 Q649.919 558.927 653.53 558.927 Q657.164 558.927 658.97 555.385 Q660.799 551.821 660.799 544.714 Q660.799 537.585 658.97 534.043 Q657.164 530.478 653.53 530.478 M653.53 526.774 Q659.34 526.774 662.396 531.381 Q665.475 535.964 665.475 544.714 Q665.475 553.441 662.396 558.047 Q659.34 562.631 653.53 562.631 Q647.72 562.631 644.641 558.047 Q641.586 553.441 641.586 544.714 Q641.586 535.964 644.641 531.381 Q647.72 526.774 653.53 526.774 Z" fill="#000000" fill-rule="nonzero" fill-opacity="1" /><polyline clip-path="url(#clip361)" style="stroke:#009af9; stroke-linecap:round; stroke-linejoin:round; stroke-width:4; stroke-opacity:1; fill:none" points="1169.47,698.283 995.784,500.797 924.093,418.482 896.084,386.351 885.547,374.025 881.619,369.396 880.158,367.693 879.616,367.075 879.415,366.852 879.342,366.772 879.315,366.743 879.305,366.733 879.301,366.729 879.3,366.728 879.299,366.727 879.299,366.727 879.299,366.727 879.299,366.727 879.299,366.727 879.299,366.727 879.299,366.727 879.299,366.727 879.299,366.727 879.299,366.727 879.299,366.727 879.299,366.727 879.299,366.727 879.299,366.727 879.299,366.727 879.299,366.727 879.299,366.727 879.299,366.727 879.299,366.727 879.299,366.727 879.299,366.727 879.299,366.727 879.299,366.727 879.299,366.727 879.299,366.727 879.299,366.727 879.299,366.727 879.299,366.727 879.299,366.727 879.299,366.727 879.299,366.727 879.299,366.727 879.299,366.727 879.299,366.727 879.299,366.727 879.299,366.727 879.299,366.727 879.299,366.727 879.299,366.727 879.299,366.727 879.299,366.727 879.299,366.727 879.299,366.727 879.299,366.727 879.299,366.727 879.299,366.727 879.299,366.727 879.299,366.727 879.299,366.727 879.299,366.727 879.299,366.727 879.299,366.727 879.299,366.727 879.299,366.727 879.299,366.727 879.299,366.727 879.299,366.727 879.299,366.727 879.299,366.727 879.299,366.727 879.299,366.727 879.299,366.727 879.299,366.727 879.299,366.727 879.299,366.727 879.299,366.727 879.299,366.727 879.299,366.727 879.299,366.727 879.299,366.727 879.299,366.727 879.299,366.727 879.299,366.727 879.299,366.727 879.299,366.727 879.299,366.727 879.299,366.727 879.299,366.727 879.299,366.727 879.299,366.727 879.299,366.727 879.299,366.727 879.299,366.727 879.299,366.727 879.299,366.727 879.299,366.727 879.299,366.727 879.299,366.727 879.299,366.727 879.299,366.727 879.299,366.727 879.299,366.727 879.299,366.727 879.299,366.727 879.299,366.727 879.299,366.727 879.299,366.727 879.299,366.727 879.299,366.727 879.299,366.727 879.299,366.727 879.299,366.727 879.299,366.727 879.299,366.727 879.299,366.727 879.299,366.727 "/>
<polyline clip-path="url(#clip361)" style="stroke:#e26f46; stroke-linecap:round; stroke-linejoin:round; stroke-width:4; stroke-opacity:1; fill:none" points="1523.45,1143.87 1518.12,1145.32 1514.32,1146.46 1511.42,1147.66 1508.96,1149.13 1506.62,1150.95 1504.15,1153.19 1501.36,1155.87 1498.1,1158.97 1494.24,1162.49 1489.62,1166.47 1484.13,1170.92 1477.59,1175.88 1469.83,1181.41 1460.67,1187.54 1449.91,1194.32 1437.34,1201.78 1422.82,1209.89 1406.28,1218.52 1387.78,1227.44 1367.6,1236.18 1346.52,1243.96 1325.86,1249.69 1307.49,1252.03 1294.05,1249.32 1288.29,1240.22 1292.3,1224.38 1306.99,1202.8 1330.93,1177.9 1361.39,1152.57 1394.52,1130.08 1426.22,1112.97 1453.87,1101.9 1476.29,1096.41 1493.48,1095.27 1506.11,1097.17 1515.02,1100.96 1521.11,1105.72 1525.14,1110.85 1527.71,1115.95 1529.26,1120.82 1530.12,1125.33 1530.53,1129.44 1530.64,1133.17 1530.55,1136.55 1530.32,1139.63 1529.99,1142.46 1529.57,1145.07 1529.05,1147.52 1528.45,1149.84 1527.73,1152.07 1526.87,1154.24 1525.86,1156.4 1524.64,1158.57 1523.17,1160.79 1521.4,1163.11 1519.26,1165.56 1516.66,1168.21 1513.51,1171.12 1509.66,1174.35 1504.98,1178 1499.26,1182.18 1492.27,1187 1483.73,1192.61 1473.33,1199.14 1460.67,1206.79 1445.3,1215.71 1426.8,1226 1404.81,1237.64 1379.08,1250.47 1349.61,1263.94 1317.48,1276.77 1284.87,1286.89 1255.36,1291.43 1235.02,1286.12 1229.82,1268.02 1244.74,1236.33 1280.08,1194.45 1330.73,1149.07 1387.35,1108.66 1440.47,1079.11 1484.5,1061.87 1517.8,1054.99 1541.57,1055.23 1557.93,1059.56 1569.1,1065.69 1576.82,1072.23 1582.43,1078.3 1586.89,1083.48 1590.86,1087.56 1594.83,1090.49 1599.13,1092.28 1604.01,1092.94 1609.63,1092.51 1616.15,1091.01 1623.67,1088.47 1632.25,1084.88 1641.92,1080.28 1652.65,1074.7 1664.33,1068.2 1676.7,1060.95 1689.38,1053.19 1701.76,1045.31 1713.04,1037.86 1722.27,1031.51 1728.38,1027 1730.41,1025.07 1727.68,1026.25 1720.03,1030.68 1707.95,1038.1 1692.57,1047.7 1675.34,1058.45 1657.72,1069.33 1641.11,1079.35 1626.42,1087.93 1614.13,1094.84 1604.41,1100.08 1597.13,1103.84 1592.01,1106.4 1588.8,1107.99 1587.24,1108.81 1587.11,1109.01 1588.22,1108.69 1590.46,1107.89 1593.76,1106.62 1598.1,1104.85 1603.48,1102.51 1609.95,1099.53 1617.55,1095.84 1626.34,1091.36 1636.36,1086 1647.61,1079.72 1660.03,1072.51 1673.42,1064.44 1687.42,1055.73 1701.49,1046.66 1714.8,1037.79 1726.18,1029.91 1734.45,1023.87 1738.41,1020.51 1736.99,1020.68 1729.86,1024.68 1717.42,1032.27 1700.65,1042.76 1681.2,1054.99 1661.08,1067.51 1641.94,1079.16 1624.92,1089.19 1610.71,1097.2 1599.45,1103.23 1590.97,1107.55 1584.97,1110.45 1581.08,1112.28 1578.94,1113.33 1578.28,1113.76 1578.87,1113.71 1580.57,1113.25 1583.27,1112.37 1586.95,1111.07 1591.6,1109.29 1597.27,1106.95 1604.03,1103.95 1611.98,1100.17 1621.21,1095.53 1631.81,1089.91 1643.82,1083.23 1657.22,1075.46 1671.9,1066.61 1687.57,1056.83 1703.61,1046.48 1719.11,1036.12 1732.93,1026.51 1743.4,1018.84 1748.9,1014.28 1748.19,1013.79 1740.5,1018.03 1726.25,1026.73 1706.87,1038.95 1684.21,1053.35 1660.64,1068.17 1638.44,1081.74 1618.99,1093.18 1602.99,1102.11 1590.48,1108.67 1581.17,1113.25 1574.6,1116.28 1570.29,1118.17 1567.8,1119.31 1566.76,1119.9 1566.92,1120.11 1568.06,1120.01 1570.09,1119.61 1572.95,1118.9 1576.63,1117.85 1581.17,1116.37 1586.64,1114.36 1593.17,1111.67 1600.88,1108.22 1609.91,1103.86 1620.42,1098.45 1632.53,1091.87 1646.39,1083.97 1662.02,1074.69 1679.21,1064.08 1697.57,1052.34 1716.41,1039.85 1734.42,1027.46 1749.9,1016.35 1760.83,1007.97 1764.94,1003.97 1760.68,1005.66 1747.68,1013.34 1726.85,1026.45 1700.38,1043.46 1671.72,1061.79 1643.93,1079.18 1619.2,1094.07 1598.82,1105.6 1582.91,1113.96 1571.06,1119.66 1562.63,1123.33 1556.86,1125.68 1553.16,1127.15 1551.01,1128.1 1550.02,1128.76 1549.92,1129.28 1550.5,1129.7 1551.65,1130.04 1553.31,1130.27 1555.46,1130.32 1558.12,1130.16 1561.36,1129.7 1565.24,1128.85 1569.88,1127.52 1575.42,1125.59 1582.02,1122.95 1589.86,1119.45 1599.18,1114.91 1610.22,1109.17 1623.22,1102 1638.36,1093.27 1655.91,1082.69 1675.97,1070.14 1698.2,1055.76 1721.82,1039.93 1745.63,1023.37 1767.36,1007.61 1783.91,994.84 1791.99,987.508 1788.42,988.115 "/>
<path clip-path="url(#clip360)" d="M243.587 250.738 L678.049 250.738 L678.049 95.2176 L243.587 95.2176  Z" fill="#ffffff" fill-rule="evenodd" fill-opacity="1"/>
<polyline clip-path="url(#clip360)" style="stroke:#000000; stroke-linecap:round; stroke-linejoin:round; stroke-width:4; stroke-opacity:1; fill:none" points="243.587,250.738 678.049,250.738 678.049,95.2176 243.587,95.2176 243.587,250.738 "/>
<polyline clip-path="url(#clip360)" style="stroke:#009af9; stroke-linecap:round; stroke-linejoin:round; stroke-width:4; stroke-opacity:1; fill:none" points="267.831,147.058 413.291,147.058 "/>
<path clip-path="url(#clip360)" d="M441.816 160.449 L441.816 174.199 L437.534 174.199 L437.534 138.412 L441.816 138.412 L441.816 142.347 Q443.159 140.032 445.196 138.921 Q447.256 137.787 450.103 137.787 Q454.825 137.787 457.765 141.537 Q460.728 145.287 460.728 151.398 Q460.728 157.509 457.765 161.259 Q454.825 165.009 450.103 165.009 Q447.256 165.009 445.196 163.898 Q443.159 162.763 441.816 160.449 M456.307 151.398 Q456.307 146.699 454.363 144.037 Q452.441 141.352 449.062 141.352 Q445.682 141.352 443.738 144.037 Q441.816 146.699 441.816 151.398 Q441.816 156.097 443.738 158.782 Q445.682 161.444 449.062 161.444 Q452.441 161.444 454.363 158.782 Q456.307 156.097 456.307 151.398 Z" fill="#000000" fill-rule="nonzero" fill-opacity="1" /><path clip-path="url(#clip360)" d="M482.811 142.393 Q482.094 141.977 481.237 141.791 Q480.404 141.583 479.386 141.583 Q475.774 141.583 473.83 143.944 Q471.909 146.282 471.909 150.68 L471.909 164.338 L467.626 164.338 L467.626 138.412 L471.909 138.412 L471.909 142.44 Q473.251 140.078 475.404 138.944 Q477.557 137.787 480.636 137.787 Q481.075 137.787 481.608 137.856 Q482.14 137.903 482.788 138.018 L482.811 142.393 Z" fill="#000000" fill-rule="nonzero" fill-opacity="1" /><path clip-path="url(#clip360)" d="M508.413 150.31 L508.413 152.393 L488.83 152.393 Q489.108 156.791 491.469 159.106 Q493.853 161.398 498.089 161.398 Q500.543 161.398 502.834 160.796 Q505.149 160.194 507.418 158.99 L507.418 163.018 Q505.126 163.99 502.719 164.5 Q500.311 165.009 497.835 165.009 Q491.631 165.009 487.997 161.398 Q484.386 157.787 484.386 151.629 Q484.386 145.264 487.811 141.537 Q491.26 137.787 497.094 137.787 Q502.325 137.787 505.358 141.166 Q508.413 144.523 508.413 150.31 M504.154 149.06 Q504.108 145.565 502.186 143.481 Q500.288 141.398 497.14 141.398 Q493.575 141.398 491.422 143.412 Q489.293 145.426 488.969 149.083 L504.154 149.06 Z" fill="#000000" fill-rule="nonzero" fill-opacity="1" /><path clip-path="url(#clip360)" d="M532.464 142.347 L532.464 128.319 L536.723 128.319 L536.723 164.338 L532.464 164.338 L532.464 160.449 Q531.121 162.763 529.061 163.898 Q527.024 165.009 524.154 165.009 Q519.455 165.009 516.492 161.259 Q513.552 157.509 513.552 151.398 Q513.552 145.287 516.492 141.537 Q519.455 137.787 524.154 137.787 Q527.024 137.787 529.061 138.921 Q531.121 140.032 532.464 142.347 M517.95 151.398 Q517.95 156.097 519.871 158.782 Q521.816 161.444 525.195 161.444 Q528.575 161.444 530.52 158.782 Q532.464 156.097 532.464 151.398 Q532.464 146.699 530.52 144.037 Q528.575 141.352 525.195 141.352 Q521.816 141.352 519.871 144.037 Q517.95 146.699 517.95 151.398 Z" fill="#000000" fill-rule="nonzero" fill-opacity="1" /><path clip-path="url(#clip360)" d="M545.496 138.412 L549.756 138.412 L549.756 164.338 L545.496 164.338 L545.496 138.412 M545.496 128.319 L549.756 128.319 L549.756 133.713 L545.496 133.713 L545.496 128.319 Z" fill="#000000" fill-rule="nonzero" fill-opacity="1" /><path clip-path="url(#clip360)" d="M577.325 139.407 L577.325 143.389 Q575.519 142.393 573.691 141.907 Q571.885 141.398 570.033 141.398 Q565.89 141.398 563.598 144.037 Q561.306 146.652 561.306 151.398 Q561.306 156.143 563.598 158.782 Q565.89 161.398 570.033 161.398 Q571.885 161.398 573.691 160.912 Q575.519 160.402 577.325 159.407 L577.325 163.342 Q575.542 164.176 573.621 164.592 Q571.723 165.009 569.57 165.009 Q563.714 165.009 560.265 161.328 Q556.816 157.648 556.816 151.398 Q556.816 145.055 560.288 141.421 Q563.783 137.787 569.848 137.787 Q571.816 137.787 573.691 138.203 Q575.566 138.597 577.325 139.407 Z" fill="#000000" fill-rule="nonzero" fill-opacity="1" /><path clip-path="url(#clip360)" d="M588.945 131.051 L588.945 138.412 L597.718 138.412 L597.718 141.722 L588.945 141.722 L588.945 155.796 Q588.945 158.967 589.802 159.87 Q590.681 160.773 593.343 160.773 L597.718 160.773 L597.718 164.338 L593.343 164.338 Q588.413 164.338 586.538 162.509 Q584.663 160.657 584.663 155.796 L584.663 141.722 L581.538 141.722 L581.538 138.412 L584.663 138.412 L584.663 131.051 L588.945 131.051 Z" fill="#000000" fill-rule="nonzero" fill-opacity="1" /><path clip-path="url(#clip360)" d="M625.496 150.31 L625.496 152.393 L605.913 152.393 Q606.19 156.791 608.552 159.106 Q610.936 161.398 615.172 161.398 Q617.626 161.398 619.917 160.796 Q622.232 160.194 624.5 158.99 L624.5 163.018 Q622.209 163.99 619.801 164.5 Q617.394 165.009 614.917 165.009 Q608.714 165.009 605.079 161.398 Q601.468 157.787 601.468 151.629 Q601.468 145.264 604.894 141.537 Q608.343 137.787 614.176 137.787 Q619.408 137.787 622.44 141.166 Q625.496 144.523 625.496 150.31 M621.237 149.06 Q621.19 145.565 619.269 143.481 Q617.371 141.398 614.223 141.398 Q610.658 141.398 608.505 143.412 Q606.376 145.426 606.052 149.083 L621.237 149.06 Z" fill="#000000" fill-rule="nonzero" fill-opacity="1" /><path clip-path="url(#clip360)" d="M649.547 142.347 L649.547 128.319 L653.806 128.319 L653.806 164.338 L649.547 164.338 L649.547 160.449 Q648.204 162.763 646.144 163.898 Q644.107 165.009 641.237 165.009 Q636.537 165.009 633.575 161.259 Q630.635 157.509 630.635 151.398 Q630.635 145.287 633.575 141.537 Q636.537 137.787 641.237 137.787 Q644.107 137.787 646.144 138.921 Q648.204 140.032 649.547 142.347 M635.033 151.398 Q635.033 156.097 636.954 158.782 Q638.899 161.444 642.278 161.444 Q645.658 161.444 647.602 158.782 Q649.547 156.097 649.547 151.398 Q649.547 146.699 647.602 144.037 Q645.658 141.352 642.278 141.352 Q638.899 141.352 636.954 144.037 Q635.033 146.699 635.033 151.398 Z" fill="#000000" fill-rule="nonzero" fill-opacity="1" /><polyline clip-path="url(#clip360)" style="stroke:#e26f46; stroke-linecap:round; stroke-linejoin:round; stroke-width:4; stroke-opacity:1; fill:none" points="267.831,198.898 413.291,198.898 "/>
<path clip-path="url(#clip360)" d="M450.937 203.145 Q445.775 203.145 443.784 204.326 Q441.793 205.506 441.793 208.354 Q441.793 210.622 443.275 211.965 Q444.779 213.284 447.349 213.284 Q450.89 213.284 453.02 210.784 Q455.173 208.261 455.173 204.094 L455.173 203.145 L450.937 203.145 M459.432 201.386 L459.432 216.178 L455.173 216.178 L455.173 212.242 Q453.714 214.603 451.538 215.738 Q449.363 216.849 446.214 216.849 Q442.233 216.849 439.872 214.627 Q437.534 212.381 437.534 208.631 Q437.534 204.256 440.451 202.034 Q443.39 199.812 449.201 199.812 L455.173 199.812 L455.173 199.395 Q455.173 196.455 453.228 194.858 Q451.307 193.238 447.812 193.238 Q445.589 193.238 443.483 193.77 Q441.376 194.303 439.432 195.367 L439.432 191.432 Q441.77 190.53 443.969 190.09 Q446.168 189.627 448.251 189.627 Q453.876 189.627 456.654 192.543 Q459.432 195.46 459.432 201.386 Z" fill="#000000" fill-rule="nonzero" fill-opacity="1" /><path clip-path="url(#clip360)" d="M486.862 191.247 L486.862 195.229 Q485.057 194.233 483.228 193.747 Q481.423 193.238 479.571 193.238 Q475.427 193.238 473.136 195.877 Q470.844 198.492 470.844 203.238 Q470.844 207.983 473.136 210.622 Q475.427 213.238 479.571 213.238 Q481.423 213.238 483.228 212.752 Q485.057 212.242 486.862 211.247 L486.862 215.182 Q485.08 216.016 483.159 216.432 Q481.261 216.849 479.108 216.849 Q473.251 216.849 469.802 213.168 Q466.353 209.488 466.353 203.238 Q466.353 196.895 469.825 193.261 Q473.321 189.627 479.386 189.627 Q481.353 189.627 483.228 190.043 Q485.103 190.437 486.862 191.247 Z" fill="#000000" fill-rule="nonzero" fill-opacity="1" /><path clip-path="url(#clip360)" d="M498.483 182.891 L498.483 190.252 L507.256 190.252 L507.256 193.562 L498.483 193.562 L498.483 207.636 Q498.483 210.807 499.339 211.71 Q500.219 212.613 502.881 212.613 L507.256 212.613 L507.256 216.178 L502.881 216.178 Q497.95 216.178 496.075 214.349 Q494.2 212.497 494.2 207.636 L494.2 193.562 L491.075 193.562 L491.075 190.252 L494.2 190.252 L494.2 182.891 L498.483 182.891 Z" fill="#000000" fill-rule="nonzero" fill-opacity="1" /><path clip-path="url(#clip360)" d="M512.418 205.946 L512.418 190.252 L516.677 190.252 L516.677 205.784 Q516.677 209.465 518.112 211.316 Q519.547 213.145 522.418 213.145 Q525.867 213.145 527.857 210.946 Q529.871 208.747 529.871 204.951 L529.871 190.252 L534.131 190.252 L534.131 216.178 L529.871 216.178 L529.871 212.196 Q528.32 214.557 526.26 215.715 Q524.223 216.849 521.515 216.849 Q517.047 216.849 514.733 214.071 Q512.418 211.293 512.418 205.946 M523.135 189.627 L523.135 189.627 Z" fill="#000000" fill-rule="nonzero" fill-opacity="1" /><path clip-path="url(#clip360)" d="M554.686 203.145 Q549.524 203.145 547.533 204.326 Q545.543 205.506 545.543 208.354 Q545.543 210.622 547.024 211.965 Q548.529 213.284 551.098 213.284 Q554.64 213.284 556.769 210.784 Q558.922 208.261 558.922 204.094 L558.922 203.145 L554.686 203.145 M563.181 201.386 L563.181 216.178 L558.922 216.178 L558.922 212.242 Q557.464 214.603 555.288 215.738 Q553.112 216.849 549.964 216.849 Q545.982 216.849 543.621 214.627 Q541.283 212.381 541.283 208.631 Q541.283 204.256 544.2 202.034 Q547.14 199.812 552.95 199.812 L558.922 199.812 L558.922 199.395 Q558.922 196.455 556.978 194.858 Q555.056 193.238 551.561 193.238 Q549.339 193.238 547.232 193.77 Q545.126 194.303 543.181 195.367 L543.181 191.432 Q545.519 190.53 547.718 190.09 Q549.918 189.627 552.001 189.627 Q557.626 189.627 560.404 192.543 Q563.181 195.46 563.181 201.386 Z" fill="#000000" fill-rule="nonzero" fill-opacity="1" /><path clip-path="url(#clip360)" d="M571.954 180.159 L576.214 180.159 L576.214 216.178 L571.954 216.178 L571.954 180.159 Z" fill="#000000" fill-rule="nonzero" fill-opacity="1" /></svg>
