<?xml version="1.0" encoding="utf-8"?>
<svg xmlns="http://www.w3.org/2000/svg" xmlns:xlink="http://www.w3.org/1999/xlink" width="600" height="400" viewBox="0 0 2400 1600">
<defs>
  <clipPath id="clip890">
    <rect x="0" y="0" width="2400" height="1600"/>
  </clipPath>
</defs>
<path clip-path="url(#clip890)" d="M0 1600 L2400 1600 L2400 0 L0 0  Z" fill="#ffffff" fill-rule="evenodd" fill-opacity="1"/>
<defs>
  <clipPath id="clip891">
    <rect x="141" y="47" width="2212" height="1440"/>
  </clipPath>
</defs>
<path clip-path="url(#clip891)" d="M1078.85 787.572 L1078.85 758.462 L1098.35 743.907 L1132.11 752.31 L1132.11 781.42 L1112.62 795.975 L1078.85 787.572  Z" fill="#ffffff" fill-rule="evenodd" fill-opacity="1"/>
<polyline clip-path="url(#clip891)" style="stroke:#000000; stroke-linecap:round; stroke-linejoin:round; stroke-width:2; stroke-opacity:0.1; fill:none" points="824.607,1244.49 1240.07,884.691 1240.07,165.089 "/>
<polyline clip-path="url(#clip891)" style="stroke:#000000; stroke-linecap:round; stroke-linejoin:round; stroke-width:2; stroke-opacity:0.1; fill:none" points="993.413,1293.22 1408.88,933.421 1408.88,213.819 "/>
<polyline clip-path="url(#clip891)" style="stroke:#000000; stroke-linecap:round; stroke-linejoin:round; stroke-width:2; stroke-opacity:0.1; fill:none" points="1162.22,1341.95 1577.68,982.151 1577.68,262.549 "/>
<polyline clip-path="url(#clip891)" style="stroke:#000000; stroke-linecap:round; stroke-linejoin:round; stroke-width:2; stroke-opacity:0.1; fill:none" points="1331.03,1390.68 1746.49,1030.88 1746.49,311.279 "/>
<polyline clip-path="url(#clip891)" style="stroke:#000000; stroke-linecap:round; stroke-linejoin:round; stroke-width:2; stroke-opacity:0.1; fill:none" points="1438.14,1376.84 718.543,1169.11 718.543,449.504 "/>
<polyline clip-path="url(#clip891)" style="stroke:#000000; stroke-linecap:round; stroke-linejoin:round; stroke-width:2; stroke-opacity:0.1; fill:none" points="1522.18,1304.06 802.576,1096.33 802.576,376.729 "/>
<polyline clip-path="url(#clip891)" style="stroke:#000000; stroke-linecap:round; stroke-linejoin:round; stroke-width:2; stroke-opacity:0.1; fill:none" points="1606.21,1231.29 886.61,1023.56 886.61,303.953 "/>
<polyline clip-path="url(#clip891)" style="stroke:#000000; stroke-linecap:round; stroke-linejoin:round; stroke-width:2; stroke-opacity:0.1; fill:none" points="1690.25,1158.51 970.644,950.78 970.644,231.178 "/>
<polyline clip-path="url(#clip891)" style="stroke:#000000; stroke-linecap:round; stroke-linejoin:round; stroke-width:2; stroke-opacity:0.1; fill:none" points="1774.28,1085.74 1054.68,878.005 1054.68,158.403 "/>
<polyline clip-path="url(#clip891)" style="stroke:#000000; stroke-linecap:round; stroke-linejoin:round; stroke-width:2; stroke-opacity:0.1; fill:none" points="679.772,1120.17 1095.23,760.365 1814.84,968.096 "/>
<polyline clip-path="url(#clip891)" style="stroke:#000000; stroke-linecap:round; stroke-linejoin:round; stroke-width:2; stroke-opacity:0.1; fill:none" points="679.772,961.747 1095.23,601.946 1814.84,809.677 "/>
<polyline clip-path="url(#clip891)" style="stroke:#000000; stroke-linecap:round; stroke-linejoin:round; stroke-width:2; stroke-opacity:0.1; fill:none" points="679.772,803.328 1095.23,443.527 1814.84,651.258 "/>
<polyline clip-path="url(#clip891)" style="stroke:#000000; stroke-linecap:round; stroke-linejoin:round; stroke-width:2; stroke-opacity:0.1; fill:none" points="679.772,644.909 1095.23,285.109 1814.84,492.84 "/>
<polyline clip-path="url(#clip891)" style="stroke:#000000; stroke-linecap:round; stroke-linejoin:round; stroke-width:2; stroke-opacity:0.1; fill:none" points="679.772,486.491 1095.23,126.69 1814.84,334.421 "/>
<polyline clip-path="url(#clip890)" style="stroke:#000000; stroke-linecap:round; stroke-linejoin:round; stroke-width:4; stroke-opacity:1; fill:none" points="679.772,1202.68 1399.37,1410.41 "/>
<polyline clip-path="url(#clip890)" style="stroke:#000000; stroke-linecap:round; stroke-linejoin:round; stroke-width:4; stroke-opacity:1; fill:none" points="824.607,1244.49 829.592,1240.17 "/>
<polyline clip-path="url(#clip890)" style="stroke:#000000; stroke-linecap:round; stroke-linejoin:round; stroke-width:4; stroke-opacity:1; fill:none" points="993.413,1293.22 998.398,1288.9 "/>
<polyline clip-path="url(#clip890)" style="stroke:#000000; stroke-linecap:round; stroke-linejoin:round; stroke-width:4; stroke-opacity:1; fill:none" points="1162.22,1341.95 1167.2,1337.63 "/>
<polyline clip-path="url(#clip890)" style="stroke:#000000; stroke-linecap:round; stroke-linejoin:round; stroke-width:4; stroke-opacity:1; fill:none" points="1331.03,1390.68 1336.01,1386.36 "/>
<path clip-path="url(#clip890)" d="M725.776 1272.89 L755.452 1272.89 L755.452 1276.83 L725.776 1276.83 L725.776 1272.89 Z" fill="#000000" fill-rule="nonzero" fill-opacity="1" /><path clip-path="url(#clip890)" d="M766.354 1285.78 L773.993 1285.78 L773.993 1259.42 L765.683 1261.09 L765.683 1256.83 L773.947 1255.16 L778.623 1255.16 L778.623 1285.78 L786.262 1285.78 L786.262 1289.72 L766.354 1289.72 L766.354 1285.78 Z" fill="#000000" fill-rule="nonzero" fill-opacity="1" /><path clip-path="url(#clip890)" d="M805.706 1258.24 Q802.095 1258.24 800.266 1261.8 Q798.461 1265.34 798.461 1272.47 Q798.461 1279.58 800.266 1283.15 Q802.095 1286.69 805.706 1286.69 Q809.34 1286.69 811.146 1283.15 Q812.975 1279.58 812.975 1272.47 Q812.975 1265.34 811.146 1261.8 Q809.34 1258.24 805.706 1258.24 M805.706 1254.53 Q811.516 1254.53 814.572 1259.14 Q817.65 1263.72 817.65 1272.47 Q817.65 1281.2 814.572 1285.81 Q811.516 1290.39 805.706 1290.39 Q799.896 1290.39 796.817 1285.81 Q793.762 1281.2 793.762 1272.47 Q793.762 1263.72 796.817 1259.14 Q799.896 1254.53 805.706 1254.53 Z" fill="#000000" fill-rule="nonzero" fill-opacity="1" /><path clip-path="url(#clip890)" d="M974.512 1306.97 Q970.901 1306.97 969.072 1310.53 Q967.267 1314.07 967.267 1321.2 Q967.267 1328.31 969.072 1331.88 Q970.901 1335.42 974.512 1335.42 Q978.146 1335.42 979.952 1331.88 Q981.781 1328.31 981.781 1321.2 Q981.781 1314.07 979.952 1310.53 Q978.146 1306.97 974.512 1306.97 M974.512 1303.26 Q980.322 1303.26 983.378 1307.87 Q986.457 1312.45 986.457 1321.2 Q986.457 1329.93 983.378 1334.54 Q980.322 1339.12 974.512 1339.12 Q968.702 1339.12 965.623 1334.54 Q962.568 1329.93 962.568 1321.2 Q962.568 1312.45 965.623 1307.87 Q968.702 1303.26 974.512 1303.26 Z" fill="#000000" fill-rule="nonzero" fill-opacity="1" /><path clip-path="url(#clip890)" d="M1103.97 1383.24 L1111.61 1383.24 L1111.61 1356.88 L1103.3 1358.55 L1103.3 1354.29 L1111.56 1352.62 L1116.24 1352.62 L1116.24 1383.24 L1123.87 1383.24 L1123.87 1387.18 L1103.97 1387.18 L1103.97 1383.24 Z" fill="#000000" fill-rule="nonzero" fill-opacity="1" /><path clip-path="url(#clip890)" d="M1143.32 1355.7 Q1139.71 1355.7 1137.88 1359.26 Q1136.07 1362.8 1136.07 1369.93 Q1136.07 1377.04 1137.88 1380.61 Q1139.71 1384.15 1143.32 1384.15 Q1146.95 1384.15 1148.76 1380.61 Q1150.59 1377.04 1150.59 1369.93 Q1150.59 1362.8 1148.76 1359.26 Q1146.95 1355.7 1143.32 1355.7 M1143.32 1351.99 Q1149.13 1351.99 1152.18 1356.6 Q1155.26 1361.18 1155.26 1369.93 Q1155.26 1378.66 1152.18 1383.27 Q1149.13 1387.85 1143.32 1387.85 Q1137.51 1387.85 1134.43 1383.27 Q1131.37 1378.66 1131.37 1369.93 Q1131.37 1361.18 1134.43 1356.6 Q1137.51 1351.99 1143.32 1351.99 Z" fill="#000000" fill-rule="nonzero" fill-opacity="1" /><path clip-path="url(#clip890)" d="M1275.99 1431.97 L1292.31 1431.97 L1292.31 1435.91 L1270.37 1435.91 L1270.37 1431.97 Q1273.03 1429.22 1277.61 1424.59 Q1282.22 1419.94 1283.4 1418.59 Q1285.64 1416.07 1286.52 1414.34 Q1287.43 1412.58 1287.43 1410.89 Q1287.43 1408.13 1285.48 1406.4 Q1283.56 1404.66 1280.46 1404.66 Q1278.26 1404.66 1275.81 1405.42 Q1273.37 1406.19 1270.6 1407.74 L1270.6 1403.02 Q1273.42 1401.88 1275.87 1401.3 Q1278.33 1400.72 1280.37 1400.72 Q1285.74 1400.72 1288.93 1403.41 Q1292.12 1406.09 1292.12 1410.59 Q1292.12 1412.72 1291.31 1414.64 Q1290.53 1416.53 1288.42 1419.13 Q1287.84 1419.8 1284.74 1423.02 Q1281.64 1426.21 1275.99 1431.97 Z" fill="#000000" fill-rule="nonzero" fill-opacity="1" /><path clip-path="url(#clip890)" d="M1312.12 1404.43 Q1308.51 1404.43 1306.68 1407.99 Q1304.88 1411.53 1304.88 1418.66 Q1304.88 1425.77 1306.68 1429.34 Q1308.51 1432.88 1312.12 1432.88 Q1315.76 1432.88 1317.56 1429.34 Q1319.39 1425.77 1319.39 1418.66 Q1319.39 1411.53 1317.56 1407.99 Q1315.76 1404.43 1312.12 1404.43 M1312.12 1400.72 Q1317.93 1400.72 1320.99 1405.33 Q1324.07 1409.91 1324.07 1418.66 Q1324.07 1427.39 1320.99 1432 Q1317.93 1436.58 1312.12 1436.58 Q1306.31 1436.58 1303.24 1432 Q1300.18 1427.39 1300.18 1418.66 Q1300.18 1409.91 1303.24 1405.33 Q1306.31 1400.72 1312.12 1400.72 Z" fill="#000000" fill-rule="nonzero" fill-opacity="1" /><polyline clip-path="url(#clip890)" style="stroke:#000000; stroke-linecap:round; stroke-linejoin:round; stroke-width:4; stroke-opacity:1; fill:none" points="1399.37,1410.41 1814.84,1050.61 "/>
<polyline clip-path="url(#clip890)" style="stroke:#000000; stroke-linecap:round; stroke-linejoin:round; stroke-width:4; stroke-opacity:1; fill:none" points="1438.14,1376.84 1429.51,1374.34 "/>
<polyline clip-path="url(#clip890)" style="stroke:#000000; stroke-linecap:round; stroke-linejoin:round; stroke-width:4; stroke-opacity:1; fill:none" points="1522.18,1304.06 1513.54,1301.57 "/>
<polyline clip-path="url(#clip890)" style="stroke:#000000; stroke-linecap:round; stroke-linejoin:round; stroke-width:4; stroke-opacity:1; fill:none" points="1606.21,1231.29 1597.58,1228.79 "/>
<polyline clip-path="url(#clip890)" style="stroke:#000000; stroke-linecap:round; stroke-linejoin:round; stroke-width:4; stroke-opacity:1; fill:none" points="1690.25,1158.51 1681.61,1156.02 "/>
<polyline clip-path="url(#clip890)" style="stroke:#000000; stroke-linecap:round; stroke-linejoin:round; stroke-width:4; stroke-opacity:1; fill:none" points="1774.28,1085.74 1765.64,1083.24 "/>
<path clip-path="url(#clip890)" d="M1455.38 1400.36 L1485.05 1400.36 L1485.05 1404.3 L1455.38 1404.3 L1455.38 1400.36 Z" fill="#000000" fill-rule="nonzero" fill-opacity="1" /><path clip-path="url(#clip890)" d="M1499.17 1413.26 L1515.49 1413.26 L1515.49 1417.19 L1493.55 1417.19 L1493.55 1413.26 Q1496.21 1410.5 1500.79 1405.87 Q1505.4 1401.22 1506.58 1399.88 Q1508.82 1397.36 1509.7 1395.62 Q1510.61 1393.86 1510.61 1392.17 Q1510.61 1389.42 1508.66 1387.68 Q1506.74 1385.94 1503.64 1385.94 Q1501.44 1385.94 1498.99 1386.71 Q1496.56 1387.47 1493.78 1389.02 L1493.78 1384.3 Q1496.6 1383.17 1499.06 1382.59 Q1501.51 1382.01 1503.55 1382.01 Q1508.92 1382.01 1512.11 1384.69 Q1515.31 1387.38 1515.31 1391.87 Q1515.31 1394 1514.5 1395.92 Q1513.71 1397.82 1511.6 1400.41 Q1511.02 1401.08 1507.92 1404.3 Q1504.82 1407.49 1499.17 1413.26 Z" fill="#000000" fill-rule="nonzero" fill-opacity="1" /><path clip-path="url(#clip890)" d="M1535.31 1385.71 Q1531.7 1385.71 1529.87 1389.28 Q1528.06 1392.82 1528.06 1399.95 Q1528.06 1407.05 1529.87 1410.62 Q1531.7 1414.16 1535.31 1414.16 Q1538.94 1414.16 1540.75 1410.62 Q1542.57 1407.05 1542.57 1399.95 Q1542.57 1392.82 1540.75 1389.28 Q1538.94 1385.71 1535.31 1385.71 M1535.31 1382.01 Q1541.12 1382.01 1544.17 1386.61 Q1547.25 1391.2 1547.25 1399.95 Q1547.25 1408.67 1544.17 1413.28 Q1541.12 1417.86 1535.31 1417.86 Q1529.5 1417.86 1526.42 1413.28 Q1523.36 1408.67 1523.36 1399.95 Q1523.36 1391.2 1526.42 1386.61 Q1529.5 1382.01 1535.31 1382.01 Z" fill="#000000" fill-rule="nonzero" fill-opacity="1" /><path clip-path="url(#clip890)" d="M1539.41 1327.59 L1569.09 1327.59 L1569.09 1331.52 L1539.41 1331.52 L1539.41 1327.59 Z" fill="#000000" fill-rule="nonzero" fill-opacity="1" /><path clip-path="url(#clip890)" d="M1579.99 1340.48 L1587.63 1340.48 L1587.63 1314.12 L1579.32 1315.78 L1579.32 1311.52 L1587.58 1309.86 L1592.26 1309.86 L1592.26 1340.48 L1599.9 1340.48 L1599.9 1344.42 L1579.99 1344.42 L1579.99 1340.48 Z" fill="#000000" fill-rule="nonzero" fill-opacity="1" /><path clip-path="url(#clip890)" d="M1619.34 1312.94 Q1615.73 1312.94 1613.9 1316.5 Q1612.09 1320.04 1612.09 1327.17 Q1612.09 1334.28 1613.9 1337.84 Q1615.73 1341.39 1619.34 1341.39 Q1622.97 1341.39 1624.78 1337.84 Q1626.61 1334.28 1626.61 1327.17 Q1626.61 1320.04 1624.78 1316.5 Q1622.97 1312.94 1619.34 1312.94 M1619.34 1309.23 Q1625.15 1309.23 1628.21 1313.84 Q1631.28 1318.42 1631.28 1327.17 Q1631.28 1335.9 1628.21 1340.51 Q1625.15 1345.09 1619.34 1345.09 Q1613.53 1345.09 1610.45 1340.51 Q1607.4 1335.9 1607.4 1327.17 Q1607.4 1318.42 1610.45 1313.84 Q1613.53 1309.23 1619.34 1309.23 Z" fill="#000000" fill-rule="nonzero" fill-opacity="1" /><path clip-path="url(#clip890)" d="M1635.39 1240.16 Q1631.78 1240.16 1629.95 1243.73 Q1628.14 1247.27 1628.14 1254.4 Q1628.14 1261.5 1629.95 1265.07 Q1631.78 1268.61 1635.39 1268.61 Q1639.02 1268.61 1640.83 1265.07 Q1642.66 1261.5 1642.66 1254.4 Q1642.66 1247.27 1640.83 1243.73 Q1639.02 1240.16 1635.39 1240.16 M1635.39 1236.46 Q1641.2 1236.46 1644.25 1241.06 Q1647.33 1245.65 1647.33 1254.4 Q1647.33 1263.12 1644.25 1267.73 Q1641.2 1272.31 1635.39 1272.31 Q1629.58 1272.31 1626.5 1267.73 Q1623.44 1263.12 1623.44 1254.4 Q1623.44 1245.65 1626.5 1241.06 Q1629.58 1236.46 1635.39 1236.46 Z" fill="#000000" fill-rule="nonzero" fill-opacity="1" /><path clip-path="url(#clip890)" d="M1708.15 1194.93 L1715.79 1194.93 L1715.79 1168.57 L1707.48 1170.23 L1707.48 1165.97 L1715.74 1164.31 L1720.42 1164.31 L1720.42 1194.93 L1728.06 1194.93 L1728.06 1198.87 L1708.15 1198.87 L1708.15 1194.93 Z" fill="#000000" fill-rule="nonzero" fill-opacity="1" /><path clip-path="url(#clip890)" d="M1747.5 1167.39 Q1743.89 1167.39 1742.06 1170.95 Q1740.25 1174.49 1740.25 1181.62 Q1740.25 1188.73 1742.06 1192.29 Q1743.89 1195.83 1747.5 1195.83 Q1751.13 1195.83 1752.94 1192.29 Q1754.77 1188.73 1754.77 1181.62 Q1754.77 1174.49 1752.94 1170.95 Q1751.13 1167.39 1747.5 1167.39 M1747.5 1163.68 Q1753.31 1163.68 1756.37 1168.29 Q1759.44 1172.87 1759.44 1181.62 Q1759.44 1190.35 1756.37 1194.96 Q1753.31 1199.54 1747.5 1199.54 Q1741.69 1199.54 1738.61 1194.96 Q1735.56 1190.35 1735.56 1181.62 Q1735.56 1172.87 1738.61 1168.29 Q1741.69 1163.68 1747.5 1163.68 Z" fill="#000000" fill-rule="nonzero" fill-opacity="1" /><path clip-path="url(#clip890)" d="M1797.14 1122.16 L1813.46 1122.16 L1813.46 1126.09 L1791.51 1126.09 L1791.51 1122.16 Q1794.17 1119.4 1798.76 1114.77 Q1803.36 1110.12 1804.54 1108.78 Q1806.79 1106.25 1807.67 1104.52 Q1808.57 1102.76 1808.57 1101.07 Q1808.57 1098.31 1806.63 1096.58 Q1804.71 1094.84 1801.6 1094.84 Q1799.4 1094.84 1796.95 1095.61 Q1794.52 1096.37 1791.74 1097.92 L1791.74 1093.2 Q1794.57 1092.06 1797.02 1091.49 Q1799.47 1090.91 1801.51 1090.91 Q1806.88 1090.91 1810.08 1093.59 Q1813.27 1096.28 1813.27 1100.77 Q1813.27 1102.9 1812.46 1104.82 Q1811.67 1106.72 1809.57 1109.31 Q1808.99 1109.98 1805.89 1113.2 Q1802.78 1116.39 1797.14 1122.16 Z" fill="#000000" fill-rule="nonzero" fill-opacity="1" /><path clip-path="url(#clip890)" d="M1833.27 1094.61 Q1829.66 1094.61 1827.83 1098.18 Q1826.02 1101.72 1826.02 1108.85 Q1826.02 1115.95 1827.83 1119.52 Q1829.66 1123.06 1833.27 1123.06 Q1836.9 1123.06 1838.71 1119.52 Q1840.54 1115.95 1840.54 1108.85 Q1840.54 1101.72 1838.71 1098.18 Q1836.9 1094.61 1833.27 1094.61 M1833.27 1090.91 Q1839.08 1090.91 1842.14 1095.51 Q1845.21 1100.1 1845.21 1108.85 Q1845.21 1117.57 1842.14 1122.18 Q1839.08 1126.76 1833.27 1126.76 Q1827.46 1126.76 1824.38 1122.18 Q1821.33 1117.57 1821.33 1108.85 Q1821.33 1100.1 1824.38 1095.51 Q1827.46 1090.91 1833.27 1090.91 Z" fill="#000000" fill-rule="nonzero" fill-opacity="1" /><polyline clip-path="url(#clip890)" style="stroke:#000000; stroke-linecap:round; stroke-linejoin:round; stroke-width:4; stroke-opacity:1; fill:none" points="679.772,1202.68 679.772,483.08 "/>
<polyline clip-path="url(#clip890)" style="stroke:#000000; stroke-linecap:round; stroke-linejoin:round; stroke-width:4; stroke-opacity:1; fill:none" points="679.772,1120.17 684.758,1115.85 "/>
<polyline clip-path="url(#clip890)" style="stroke:#000000; stroke-linecap:round; stroke-linejoin:round; stroke-width:4; stroke-opacity:1; fill:none" points="679.772,961.747 684.758,957.429 "/>
<polyline clip-path="url(#clip890)" style="stroke:#000000; stroke-linecap:round; stroke-linejoin:round; stroke-width:4; stroke-opacity:1; fill:none" points="679.772,803.328 684.758,799.011 "/>
<polyline clip-path="url(#clip890)" style="stroke:#000000; stroke-linecap:round; stroke-linejoin:round; stroke-width:4; stroke-opacity:1; fill:none" points="679.772,644.909 684.758,640.592 "/>
<polyline clip-path="url(#clip890)" style="stroke:#000000; stroke-linecap:round; stroke-linejoin:round; stroke-width:4; stroke-opacity:1; fill:none" points="679.772,486.491 684.758,482.173 "/>
<path clip-path="url(#clip890)" d="M599.676 1133.51 L607.315 1133.51 L607.315 1107.14 L599.005 1108.81 L599.005 1104.55 L607.269 1102.89 L611.945 1102.89 L611.945 1133.51 L619.584 1133.51 L619.584 1137.45 L599.676 1137.45 L599.676 1133.51 Z" fill="#000000" fill-rule="nonzero" fill-opacity="1" /><path clip-path="url(#clip890)" d="M639.028 1105.96 Q635.417 1105.96 633.588 1109.53 Q631.783 1113.07 631.783 1120.2 Q631.783 1127.31 633.588 1130.87 Q635.417 1134.41 639.028 1134.41 Q642.662 1134.41 644.468 1130.87 Q646.296 1127.31 646.296 1120.2 Q646.296 1113.07 644.468 1109.53 Q642.662 1105.96 639.028 1105.96 M639.028 1102.26 Q644.838 1102.26 647.894 1106.87 Q650.972 1111.45 650.972 1120.2 Q650.972 1128.93 647.894 1133.53 Q644.838 1138.12 639.028 1138.12 Q633.218 1138.12 630.139 1133.53 Q627.084 1128.93 627.084 1120.2 Q627.084 1111.45 630.139 1106.87 Q633.218 1102.26 639.028 1102.26 Z" fill="#000000" fill-rule="nonzero" fill-opacity="1" /><path clip-path="url(#clip890)" d="M602.894 975.092 L619.213 975.092 L619.213 979.027 L597.269 979.027 L597.269 975.092 Q599.931 972.337 604.514 967.708 Q609.121 963.055 610.301 961.712 Q612.547 959.189 613.426 957.453 Q614.329 955.694 614.329 954.004 Q614.329 951.249 612.385 949.513 Q610.463 947.777 607.361 947.777 Q605.162 947.777 602.709 948.541 Q600.278 949.305 597.5 950.856 L597.5 946.134 Q600.324 944.999 602.778 944.421 Q605.232 943.842 607.269 943.842 Q612.639 943.842 615.834 946.527 Q619.028 949.212 619.028 953.703 Q619.028 955.833 618.218 957.754 Q617.431 959.652 615.324 962.245 Q614.746 962.916 611.644 966.134 Q608.542 969.328 602.894 975.092 Z" fill="#000000" fill-rule="nonzero" fill-opacity="1" /><path clip-path="url(#clip890)" d="M639.028 947.546 Q635.417 947.546 633.588 951.11 Q631.783 954.652 631.783 961.782 Q631.783 968.888 633.588 972.453 Q635.417 975.995 639.028 975.995 Q642.662 975.995 644.468 972.453 Q646.296 968.888 646.296 961.782 Q646.296 954.652 644.468 951.11 Q642.662 947.546 639.028 947.546 M639.028 943.842 Q644.838 943.842 647.894 948.448 Q650.972 953.032 650.972 961.782 Q650.972 970.508 647.894 975.115 Q644.838 979.698 639.028 979.698 Q633.218 979.698 630.139 975.115 Q627.084 970.508 627.084 961.782 Q627.084 953.032 630.139 948.448 Q633.218 943.842 639.028 943.842 Z" fill="#000000" fill-rule="nonzero" fill-opacity="1" /><path clip-path="url(#clip890)" d="M613.033 801.974 Q616.389 802.692 618.264 804.96 Q620.162 807.229 620.162 810.562 Q620.162 815.678 616.644 818.479 Q613.125 821.28 606.644 821.28 Q604.468 821.28 602.153 820.84 Q599.861 820.423 597.408 819.567 L597.408 815.053 Q599.352 816.187 601.667 816.766 Q603.982 817.344 606.505 817.344 Q610.903 817.344 613.195 815.608 Q615.51 813.872 615.51 810.562 Q615.51 807.506 613.357 805.793 Q611.227 804.057 607.408 804.057 L603.38 804.057 L603.38 800.215 L607.593 800.215 Q611.042 800.215 612.871 798.849 Q614.699 797.46 614.699 794.868 Q614.699 792.206 612.801 790.794 Q610.926 789.358 607.408 789.358 Q605.486 789.358 603.287 789.775 Q601.088 790.192 598.449 791.071 L598.449 786.905 Q601.111 786.164 603.426 785.794 Q605.764 785.423 607.824 785.423 Q613.148 785.423 616.25 787.854 Q619.352 790.261 619.352 794.382 Q619.352 797.252 617.709 799.243 Q616.065 801.21 613.033 801.974 Z" fill="#000000" fill-rule="nonzero" fill-opacity="1" /><path clip-path="url(#clip890)" d="M639.028 789.127 Q635.417 789.127 633.588 792.692 Q631.783 796.233 631.783 803.363 Q631.783 810.469 633.588 814.034 Q635.417 817.576 639.028 817.576 Q642.662 817.576 644.468 814.034 Q646.296 810.469 646.296 803.363 Q646.296 796.233 644.468 792.692 Q642.662 789.127 639.028 789.127 M639.028 785.423 Q644.838 785.423 647.894 790.03 Q650.972 794.613 650.972 803.363 Q650.972 812.09 647.894 816.696 Q644.838 821.28 639.028 821.28 Q633.218 821.28 630.139 816.696 Q627.084 812.09 627.084 803.363 Q627.084 794.613 630.139 790.03 Q633.218 785.423 639.028 785.423 Z" fill="#000000" fill-rule="nonzero" fill-opacity="1" /><path clip-path="url(#clip890)" d="M611.713 631.704 L599.908 650.153 L611.713 650.153 L611.713 631.704 M610.486 627.629 L616.366 627.629 L616.366 650.153 L621.297 650.153 L621.297 654.041 L616.366 654.041 L616.366 662.189 L611.713 662.189 L611.713 654.041 L596.111 654.041 L596.111 649.528 L610.486 627.629 Z" fill="#000000" fill-rule="nonzero" fill-opacity="1" /><path clip-path="url(#clip890)" d="M639.028 630.708 Q635.417 630.708 633.588 634.273 Q631.783 637.815 631.783 644.944 Q631.783 652.051 633.588 655.615 Q635.417 659.157 639.028 659.157 Q642.662 659.157 644.468 655.615 Q646.296 652.051 646.296 644.944 Q646.296 637.815 644.468 634.273 Q642.662 630.708 639.028 630.708 M639.028 627.004 Q644.838 627.004 647.894 631.611 Q650.972 636.194 650.972 644.944 Q650.972 653.671 647.894 658.277 Q644.838 662.861 639.028 662.861 Q633.218 662.861 630.139 658.277 Q627.084 653.671 627.084 644.944 Q627.084 636.194 630.139 631.611 Q633.218 627.004 639.028 627.004 Z" fill="#000000" fill-rule="nonzero" fill-opacity="1" /><path clip-path="url(#clip890)" d="M598.912 469.211 L617.269 469.211 L617.269 473.146 L603.195 473.146 L603.195 481.618 Q604.213 481.271 605.232 481.109 Q606.25 480.924 607.269 480.924 Q613.056 480.924 616.435 484.095 Q619.815 487.266 619.815 492.683 Q619.815 498.262 616.343 501.363 Q612.871 504.442 606.551 504.442 Q604.375 504.442 602.107 504.072 Q599.861 503.701 597.454 502.961 L597.454 498.262 Q599.537 499.396 601.76 499.951 Q603.982 500.507 606.459 500.507 Q610.463 500.507 612.801 498.4 Q615.139 496.294 615.139 492.683 Q615.139 489.072 612.801 486.965 Q610.463 484.859 606.459 484.859 Q604.584 484.859 602.709 485.275 Q600.857 485.692 598.912 486.572 L598.912 469.211 Z" fill="#000000" fill-rule="nonzero" fill-opacity="1" /><path clip-path="url(#clip890)" d="M639.028 472.289 Q635.417 472.289 633.588 475.854 Q631.783 479.396 631.783 486.525 Q631.783 493.632 633.588 497.197 Q635.417 500.738 639.028 500.738 Q642.662 500.738 644.468 497.197 Q646.296 493.632 646.296 486.525 Q646.296 479.396 644.468 475.854 Q642.662 472.289 639.028 472.289 M639.028 468.586 Q644.838 468.586 647.894 473.192 Q650.972 477.776 650.972 486.525 Q650.972 495.252 647.894 499.859 Q644.838 504.442 639.028 504.442 Q633.218 504.442 630.139 499.859 Q627.084 495.252 627.084 486.525 Q627.084 477.776 630.139 473.192 Q633.218 468.586 639.028 468.586 Z" fill="#000000" fill-rule="nonzero" fill-opacity="1" /><polyline clip-path="url(#clip891)" style="stroke:#009af9; stroke-linecap:round; stroke-linejoin:round; stroke-width:4; stroke-opacity:1; fill:none" points="1186.86,812.901 1191.61,834.716 1195.12,854.882 1197.74,873.547 1199.7,890.872 1201.22,907.022 1202.45,922.136 1203.52,936.307 1204.53,949.596 1205.54,962.045 1206.6,973.707 1207.77,984.638 1209.1,994.891 1210.67,1004.5 1212.56,1013.45 1214.84,1021.74 1217.59,1029.35 1220.91,1036.27 1224.92,1042.51 1229.79,1048.05 1235.74,1052.78 1243.02,1056.53 1251.92,1059.05 1262.78,1060.15 1276.05,1059.53 1292.24,1056.76 1311.96,1051.06 1335.86,1041.38 1364.56,1026.53 1398.59,1004.98 1438.29,974.701 1483.43,933.215 1532.49,878.336 1582.24,809.404 1626.77,729.331 1657.91,646.37 1667.16,572.507 1649.03,520.429 1603.97,501.325 1539.85,514.545 1467.78,550.171 1397.19,595.478 1334.39,641.517 1282.01,682.078 1239.82,715.52 1206.54,742.625 1180.62,765.069 1160.4,784.269 1144.41,801.468 1131.33,817.277 1120.14,832.118 1110.04,846.198 1100.33,859.518 1090.48,871.993 1080.05,883.457 1068.67,893.719 1056.06,902.507 1042.05,909.481 1026.51,914.213 1009.41,916.188 990.885,914.781 971.28,909.249 951.13,898.862 931.249,883.165 912.848,862.045 897.392,835.696 886.344,804.85 881.042,771.124 882.48,737.05 890.973,705.661 905.972,679.85 926.134,661.745 949.613,652.313 974.463,651.358 998.953,657.871 1021.73,670.325 1041.92,686.968 1059.07,706.222 1073.05,726.87 1083.91,748.013 1091.85,769.015 1097.1,789.446 1099.91,809.036 1100.48,827.617 1098.97,845.073 1095.5,861.323 1090.12,876.307 1082.87,889.962 1073.72,902.169 1062.63,912.713 1049.52,921.274 1034.34,927.46 1017.09,930.812 997.925,930.772 977.16,926.622 955.293,917.506 933.116,902.644 911.864,881.525 893.15,854.041 878.721,820.75 870.329,783.224 869.435,744.165 876.732,707.06 891.859,675.499 913.449,652.389 939.389,639.302 967.328,636.249 995.141,642.075 1021.16,654.966 1044.31,672.811 1064.03,693.69 1080.19,716.141 1092.88,739.107 1102.36,761.862 1108.94,783.934 1112.94,805.054 1114.63,825.083 1114.23,843.944 1111.9,861.596 1107.71,878.024 1101.7,893.221 1093.87,907.152 1084.15,919.701 1072.42,930.651 1058.55,939.705 1042.42,946.485 1023.97,950.502 1003.28,951.099 980.55,947.416 956.245,938.41 931.164,923.035 906.657,900.452 884.559,870.251 866.968,832.821 856.144,789.818 854.068,744.364 861.752,700.694 878.853,663.305 903.726,635.913 933.763,620.591 966.027,617.322 997.925,624.49 1027.51,639.675 1053.56,660.213 1075.58,683.813 1093.5,708.794 1107.55,733.989 1118.13,758.652 1125.65,782.336 1130.53,804.835 1133.12,826.082 1133.71,846.069 1132.49,864.821 1129.6,882.381 1125.08,898.8 1118.93,914.11 1111.1,928.292 1101.46,941.266 1089.84,952.877 1076.02,962.899 1059.8,971.018 1041.01,976.769 1019.51,979.461 995.319,978.183 968.683,971.766 940.212,958.84 911.068,937.987 883.088,908.03 858.706,868.528 840.908,820.406 832.684,766.524 836.15,711.728 851.852,662.076 878.351,623.232 912.61,598.971 950.772,590.275 989.199,595.391 1025.16,611.123 1056.96,633.86 1083.87,660.461 1105.84,688.632 1123.23,716.826 1136.59,744.164 1146.53,770.149 1153.63,794.596 1158.38,817.513 1161.2,838.961 1162.42,859.032 1162.29,877.833 1160.94,895.479 1158.45,912.088 1154.86,927.753 1150.13,942.54 1144.17,956.495 1136.85,969.643 1127.97,981.973 1117.28,993.422 1104.49,1003.86 1089.27,1013.09 1071.29,1020.76 1050.17,1026.28 1025.57,1028.78 997.306,1027.05 965.504,1019.54 930.779,1004.29 894.455,979.136 858.898,941.93 827.638,891.399 805.068,828.276 795.719,756.636 802.895,684.013 827.073,619.923 865.489,573.06 912.85,548.098 963.224,544.65 1011.67,558.356 1055.02,583.538 1091.9,614.854 1122.1,648.483 1146.17,681.788 1165,713.509 1179.52,743.07 1190.69,770.255 1199.28,795.193 1206,818.023 1211.4,838.909 1215.97,858.019 1220.05,875.52 1223.93,891.578 1227.87,906.32 1232.11,919.814 1236.86,932.078 1242.31,943.099 1248.65,952.842 1256.13,961.243 1264.99,968.186 1275.55,973.479 1288.15,976.822 1303.17,977.806 1321.01,975.918 1342.1,970.505 1366.85,960.693 1395.56,945.372 1428.27,923.286 1464.56,893.167 1503.25,854.009 1542.04,805.597 1577.33,749.38 1604.26,689.272 1617.5,631.933 1612.87,585.665 1589.07,557.959 1548.76,552.157 1497.77,566.258 1442.96,593.912 1390.12,627.899 1342.87,662.504 1302.83,694.593 1270.18,722.979 1244.17,747.883 1223.87,770.057 1208.09,790.178 1195.83,808.928 1186.16,826.735 1178.31,843.827 1171.67,860.411 1165.7,876.527 1159.98,892.133 1154.13,907.21 1147.84,921.766 1140.84,935.771 1132.87,949.141 1123.6,961.764 1112.74,973.525 1099.97,984.277 1085.01,993.764 1067.51,1001.57 1047.11,1007.11 1023.54,1009.58 996.738,1007.94 966.874,1000.85 934.546,986.624 901.02,963.262 868.406,928.965 839.802,882.82 819.078,825.734 810.036,761.225 815.49,695.626 836.052,637.033 869.561,592.94 911.69,567.76 957.338,561.813 1002.03,571.885 1042.71,593.306 1077.82,621.367 1106.91,652.468 1130.29,684.049 1148.64,714.667 1162.75,743.638 1173.44,770.615 1181.43,795.616 1187.33,818.749 1191.66,840.136 1194.84,859.922 1197.18,878.253 1198.91,895.294 1200.21,911.207 1201.23,926.121 1202.08,940.121 1202.86,953.262 1203.6,965.59 1204.35,977.162 1205.15,988.043 1206.06,998.289 1207.12,1007.93 1208.39,1016.97 1209.93,1025.39 1211.79,1033.18 1214.01,1040.38 1216.69,1047.02 1219.96,1053.14 1223.97,1058.67 1228.9,1063.47 1234.96,1067.36 1242.4,1070.25 1251.55,1072.09 1262.9,1072.64 1276.98,1071.3 1294.4,1067.18 1315.81,1059.57 1342.01,1048.06 1373.91,1031.97 1412.38,1010.1 1457.97,981.253 1510,945.423 1566.2,904.582 1624.76,861.746 1684.64,814.203 1741.17,741.127 1773.32,628.512 1752.38,524.943 1684.06,475.233 1585.79,463.407 1470.11,514.272 1369.91,595.277 1288.83,646.247 1220.19,694.645 1170.61,725.277 1133.4,747.638 1106.36,764.421 1086.01,775.081 1069.76,782.887 1056.91,789.563 1046.92,795.31 1038.98,800.238 1032.34,804.509 1026.39,808.227 1020.73,811.42 1015.13,814.001 1009.43,815.9 1003.61,817.065 997.69,817.432 991.748,816.898 985.87,815.338 980.175,812.658 974.82,808.832 969.994,803.913 965.901,798.037 962.736,791.415 960.665,784.324 959.809,777.094 960.229,770.085 961.914,763.66 964.78,758.151 968.674,753.841 973.387,750.932 978.671,749.542 984.26,749.695 989.887,751.333 995.301,754.323 1000.28,758.477 1004.64,763.575 1008.23,769.373 1010.95,775.628 1012.73,782.103 1013.52,788.57 1013.32,794.818 1012.15,800.652 1010.04,805.888 1007.07,810.358 1003.3,813.905 998.855,816.391 993.862,817.696 988.48,817.727 982.897,816.424 977.324,813.768 971.995,809.792 967.152,804.591 963.039,798.33 959.884,791.25 957.88,783.659 957.165,775.922 957.809,768.435 959.802,761.596 963.05,755.767 967.385,751.251 972.577,748.263 978.353,746.921 984.423,747.243 990.499,749.155 996.314,752.503 1001.63,757.076 1006.26,762.629 1010.06,768.9 1012.9,775.627 1014.74,782.556 1015.52,789.453 1015.26,796.096 1013.96,802.283 1011.67,807.825 1008.46,812.547 1004.42,816.287 999.653,818.899 994.308,820.255 988.55,820.254 982.575,818.831 976.611,815.961 970.905,811.674 965.722,806.07 961.326,799.322 957.964,791.69 955.846,783.508 955.126,775.175 955.876,767.125 958.085,759.791 961.646,753.569 966.37,748.786 972.002,745.668 978.243,744.336 984.776,744.799 991.289,746.965 997.496,750.658 1003.15,755.643 1008.05,761.649 1012.04,768.392 1015.02,775.594 1016.91,782.986 1017.69,790.324 1017.36,797.378 1015.94,803.939 1013.47,809.812 1010.03,814.814 1005.71,818.777 1000.62,821.546 994.917,822.985 988.764,822.983 982.374,821.466 975.987,818.401 969.869,813.815 964.305,807.807 959.581,800.559 955.969,792.347 953.7,783.534 952.942,774.554 953.777,765.883 956.191,757.995 960.065,751.323 965.189,746.221 971.283,742.932 978.016,741.58 985.043,742.165 992.027,744.576 998.661,748.615 1004.68,754.02 1009.88,760.492 1014.11,767.727 1017.24,775.425 1019.22,783.306 1020.02,791.111 1019.64,798.606 1018.11,805.574 1015.48,811.813 1011.82,817.135 1007.23,821.363 1001.81,824.332 995.737,825.896 989.175,825.935 982.345,824.361 975.502,821.134 968.931,816.272 962.936,809.869 957.832,802.115 953.915,793.3 951.442,783.816 950.601,774.133 951.485,764.773 954.081,756.258 958.26,749.064 963.791,743.575 970.364,740.057 977.617,738.638 985.174,739.311 992.668,741.95 999.77,746.327 1006.2,752.154 1011.74,759.104 1016.23,766.846 1019.56,775.062 1021.66,783.457 1022.51,791.761 1022.11,799.731 1020.5,807.144 1017.73,813.792 1013.87,819.481 1009.01,824.023 1003.28,827.247 996.834,828.993 989.85,829.128 982.558,827.553 975.224,824.211 968.152,819.111 961.671,812.339 956.121,804.084 951.829,794.651 949.082,784.456 948.093,774.01 948.973,763.884 951.712,754.652 956.175,746.841 962.109,740.877 969.175,737.049 976.976,735.496 985.1,736.207 993.15,739.037 1000.77,743.734 1007.66,749.977 1013.6,757.41 1018.4,765.674 1021.97,774.431 1024.23,783.367 1025.17,792.203 1024.8,800.687 1023.15,808.59 1020.26,815.697 1016.23,821.808 1011.13,826.728 1005.1,830.273 998.286,832.273 990.874,832.579 983.099,831.074 975.24,827.688 967.617,822.409 960.582,815.313 954.507,806.581 949.751,796.526 946.638,785.587 945.413,774.316 946.211,763.334 949.033,753.278 953.74,744.733 960.061,738.174 967.625,733.926 975.999,732.144 984.732,732.817 993.39,735.783 1001.59,740.764 1009,747.406 1015.39,755.32 1020.58,764.118 1024.45,773.435 1026.94,782.943 1028.03,792.348 1027.73,801.389 1026.08,809.832 1023.13,817.458 1018.96,824.058 1013.66,829.43 1007.36,833.38 1000.19,835.722 992.351,836.293 984.079,834.957 975.662,831.621 967.434,826.252 959.773,818.904 953.078,809.745 947.749,799.085 944.151,787.382 942.57,775.223 943.176,763.286 945.989,752.276 950.874,742.849 957.544,735.543 965.599,730.727 974.567,728.583 983.952,729.107 993.277,732.125 1002.12,737.333 1010.14,744.341 1017.07,752.723 1022.71,762.058 1026.96,771.955 1029.75,782.064 1031.06,792.078 1030.91,801.726 1029.33,810.767 1026.38,818.978 1022.14,826.144 1016.68,832.057 1010.14,836.511 1002.65,839.306 994.407,840.261 985.637,839.219 976.635,836.062 967.751,830.726 959.382,823.236 951.959,813.736 945.924,802.521 941.69,790.056 939.596,776.958 939.857,763.962 942.527,751.848 947.485,741.357 954.438,733.104 962.956,727.523 972.527,724.835 982.604,725.053 992.664,727.999 1002.24,733.343 1010.96,740.659 1018.52,749.482 1024.73,759.35 1029.46,769.841 1032.64,780.581 1034.27,791.246 1034.35,801.555 1032.93,811.259 1030.06,820.13 1025.82,827.951 1020.28,834.507 1013.57,839.581 1005.82,842.962 997.195,844.447 987.94,843.857 978.342,841.044 968.756,835.91 959.598,828.439 951.328,818.734 944.431,807.063 939.375,793.877 936.563,779.815 936.272,765.661 938.608,752.275 943.481,740.499 950.602,731.048 959.521,724.441 969.683,720.961 980.487,720.653 991.353,723.344 1001.76,728.688 1011.29,736.221 1019.61,745.431 1026.51,755.813 1031.85,766.904 1035.56,778.303 1037.62,789.663 1038.05,800.69 1036.9,811.128 1034.22,820.744 1030.08,829.318 1024.56,836.631 1017.76,842.461 1009.82,846.581 1000.89,848.772 991.189,848.827 981.006,846.568 970.693,841.858 960.674,834.627 951.434,824.924 943.5,812.965 937.4,799.168 933.612,784.165 932.494,768.779 934.229,753.951 938.781,740.634 945.888,729.672 955.09,721.701 965.793,717.093 977.34,715.951 989.081,718.126 1000.43,723.264 1010.91,730.868 1020.15,740.375 1027.9,751.226 1034.01,762.911 1038.4,774.989 1041.05,787.087 1041.98,798.894 1041.23,810.141 1038.87,820.593 1034.97,830.027 1029.59,838.224 1022.84,844.958 1014.82,849.994 1005.68,853.093 995.619,854.024 984.899,852.577 973.864,848.57 962.938,841.877 952.619,832.471 943.467,820.491 936.072,806.29 930.995,790.462 928.697,773.837 929.464,757.42 933.352,742.288 940.157,729.441 949.435,719.672 960.565,713.488 972.828,711.084 985.498,712.366 997.907,716.992 1009.5,724.44 1019.84,734.092 1028.64,745.327 1035.72,757.572 1040.99,770.337 1044.43,783.212 1046.04,795.859 1045.89,807.996 1044.03,819.38 1040.52,829.788 1035.46,839.002 1028.91,846.8 1020.97,852.942 1011.78,857.176 1001.48,859.248 990.332,858.915 978.637,855.956 966.807,850.179 955.337,841.472 944.806,829.869 935.855,815.616 929.131,799.223 925.216,781.477 924.532,763.412 927.27,746.214 933.335,731.064 942.341,718.964 953.665,710.614 966.537,706.361 980.144,706.209 993.717,709.863 1006.6,716.797 1018.27,726.345 1028.37,737.807 1036.68,750.535 1043.09,763.967 1047.55,777.644 1050.09,791.189 1050.76,804.298 1049.61,816.714 1046.73,828.214 1042.19,838.584 1036.05,847.608 1028.41,855.053 1019.36,860.663 1009.04,864.167 997.642,865.291 985.431,863.776 972.783,859.375 960.168,851.885 948.16,841.21 937.425,827.45 928.688,810.971 922.652,792.445 919.909,772.86 920.834,753.464 925.508,735.613 933.675,720.567 944.764,709.303 957.983,702.404 972.432,700.045 987.224,702.038 1001.56,707.895 1014.82,716.919 1026.53,728.331 1036.4,741.378 1044.27,755.408 1050.08,769.882 1053.85,784.369 1055.63,798.527 1055.48,812.079 1053.49,824.792 1049.74,836.456 1044.29,846.866 1037.21,855.807 1028.59,863.031 1018.53,868.264 1007.16,871.21 994.687,871.576 981.431,869.073 967.809,863.42 954.353,854.387 941.716,841.89 930.658,826.092 921.994,807.465 916.49,786.839 914.752,765.407 917.115,744.632 923.556,726.043 933.658,710.98 946.677,700.39 961.657,694.741 977.584,694.045 993.501,697.93 1008.6,705.725 1022.27,716.582 1034.1,729.629 1043.86,744.081 1051.45,759.286 1056.85,774.727 1060.12,789.998 1061.34,804.785 1060.59,818.834 1057.96,831.932 1053.53,843.884 1047.36,854.495 1039.52,863.548 1030.08,870.786 1019.13,875.911 1006.8,878.605 993.322,878.546 979.02,875.407 964.356,868.854 949.913,858.616 936.423,844.597 924.746,826.99 915.797,806.337 910.424,783.6 909.28,760.167 912.692,737.728 920.56,718.009 932.335,702.466 947.106,692.057 963.764,687.168 981.172,687.676 998.297,693.043 1014.3,702.427 1028.59,714.839 1040.78,729.321 1050.7,745.053 1058.28,761.378 1063.56,777.787 1066.62,793.894 1067.56,809.401 1066.49,824.077 1063.5,837.726 1058.66,850.17 1052.04,861.228 1043.69,870.69 1033.66,878.292 1022.02,883.718 1008.9,886.626 994.504,886.661 979.166,883.451 963.359,876.593 947.701,865.74 932.982,850.739 920.164,831.747 910.282,809.308 904.305,784.448 902.991,758.709 906.735,734.018 915.434,712.359 928.457,695.4 944.754,684.217 963.054,679.197 982.072,680.131 1000.66,686.35 1017.92,696.854 1033.23,710.506 1046.22,726.242 1056.73,743.184 1064.74,760.645 1070.31,778.103 1073.56,795.175 1074.63,811.575 1073.62,827.087 1070.64,841.531 1065.77,854.751 1059.07,866.588 1050.56,876.851 1040.3,885.289 1028.31,891.577 1014.68,895.351 999.568,896.226 983.286,893.783 966.28,887.549 949.155,877.056 932.719,862.018 918.009,842.458 906.197,818.802 898.423,791.998 895.65,763.633 898.471,735.834 906.921,710.921 920.411,690.954 937.808,677.334 957.675,670.632 978.528,670.666 999.038,676.698 1018.15,687.594 1035.15,702.042 1049.62,718.815 1061.41,736.918 1070.49,755.585 1076.97,774.249 1081,792.5 1082.74,810.05 1082.32,826.689 1079.88,842.254 1075.5,856.609 1069.22,869.628 1061.09,881.162 1051.12,890.998 1039.31,898.836 1025.69,904.306 1010.33,907 993.444,906.477 975.406,902.209 956.74,893.597 938.176,880.128 920.738,861.562 905.703,838.035 894.421,810.187 888.153,779.375 887.883,747.73 894.045,717.892 906.345,692.508 923.759,673.676 944.741,662.549 967.552,659.261 990.558,663.153 1012.41,673.036 1032.14,687.408 1049.2,704.772 1063.33,723.899 1074.51,743.849 1082.84,763.933 1088.49,783.665 1091.69,802.715 1092.62,820.866 1091.43,837.962 1088.25,853.886 1083.14,868.545 1076.13,881.848 1067.24,893.66 1056.44,903.758 1043.7,911.824 1029,917.463 1012.38,920.234 994.054,919.625 974.373,914.993 953.873,905.594 933.351,890.792 913.986,870.242 897.26,844.001 884.742,812.739 877.933,778.022 878.02,742.37 885.495,708.915 899.945,680.783 920.089,660.412 944.042,649.055 969.738,646.671 995.306,652.275 1019.26,664.311 1040.62,680.941 1058.87,700.462 1073.84,721.549 1085.57,743.228 1094.27,764.808 1100.18,785.825 1103.58,805.995 1104.7,825.147 1103.72,843.171 1100.76,859.994 1095.91,875.568 1089.18,889.849 1080.57,902.751 1070.03,914.098 1057.47,923.608 1042.79,930.919 1025.97,935.596 1007.07,937.105 986.309,934.755 964.103,927.674 941.107,914.955 918.404,895.886 897.553,870.097 880.358,837.795 868.713,800.134 864.393,759.499 868.544,719.326 881.248,683.504 901.444,655.528 927.136,637.712 955.835,630.692 985.143,633.587 1013.1,644.631 1038.35,661.61 1060.14,682.345 1078.22,705.124 1092.64,728.705 1103.64,752.228 1111.57,775.133 1116.76,797.094 1119.54,817.953 1120.17,837.636 1118.84,856.108 1115.67,873.364 1110.72,889.416 1104,904.265 1095.45,917.856 1084.99,930.045 1072.47,940.602 1057.71,949.219 1040.6,955.498 1021.09,958.885 999.217,958.63 975.233,953.767 949.65,943.15 923.413,925.654 898.067,900.383 875.624,866.969 858.412,826.035 848.912,779.685 849.103,731.606 859.769,686.565 880.168,649.349 908.197,623.62 940.85,611.04 974.982,610.989 1007.99,621.328 1038.02,639.251 1064.06,661.922 1085.76,687.093 1103.21,713.153 1116.75,739.042 1126.84,764.11 1133.96,788.001 1138.55,810.59 1140.96,831.86 1141.48,851.838 1140.32,870.58 1137.6,888.153 1133.37,904.626 1127.63,920.042 1120.3,934.407 1111.26,947.674 1100.33,959.737 1087.28,970.415 1071.86,979.448 1053.84,986.444 1033.03,990.792 1009.27,991.642 982.656,987.882 953.579,978.131 922.911,960.807 892.203,934.312 863.752,897.536 840.625,850.497 826.284,795.112 823.679,735.647 834.425,678.419 858.02,630.324 891.753,596.797 931.571,580.368 973.144,580.184 1012.98,593.03 1048.81,614.877 1079.48,641.885 1104.77,671.207 1124.98,700.827 1140.72,729.625 1152.66,756.989 1161.49,782.647 1167.79,806.605 1172.07,828.937 1174.75,849.748 1176.16,869.162 1176.5,887.308 1175.92,904.333 1174.52,920.375 1172.35,935.539 1169.41,949.899 1165.65,963.517 1160.96,976.456 1155.21,988.784 1148.22,1000.56 1139.79,1011.79 1129.65,1022.43 1117.46,1032.33 1102.83,1041.27 1085.33,1048.88 1064.46,1054.63 1039.77,1057.91 1010.99,1057.9 978.03,1052.98 941.006,1040.73 900.867,1018.03 859.828,981.704 821.614,929.855 791.363,862.494 774.89,782.438 777.03,697.167 799.78,618.318 840.813,557.915 894.025,523.441 951.869,515.449 1007.91,529.037 1058.03,556.615 1100.45,591.409 1135.01,628.482 1162.47,664.712 1183.97,698.619 1200.67,729.666 1213.75,757.697 1224.18,782.941 1232.78,805.588 1240.23,825.878 1247.11,844.028 1253.86,860.213 1260.89,874.545 1268.55,887.039 1277.16,897.63 1287.04,906.223 1298.46,912.696 1311.74,916.845 1327.18,918.319 1345.07,916.612 1365.65,911.119 1389.08,901.156 1415.33,885.963 1444,864.792 1474.3,837.106 1504.75,802.842 1533.13,762.855 1556.5,719.302 1571.54,675.821 1575.23,637.301 1565.89,608.69 1543.78,593.562 1511.36,592.896 1472.54,604.71 1431.54,625.326 1391.92,650.582 1356.08,677.088 1325.21,702.875 1299.67,726.935 1279.17,749.133 1263.17,769.588 1250.98,788.694 1242,806.694 1235.6,823.844 1231.27,840.287 1228.61,856.088 1227.3,871.234 1227.12,885.702 1227.89,899.477 1229.55,912.533 1232.07,924.815 1235.46,936.252 1239.77,946.767 1245.12,956.274 1251.65,964.666 1259.57,971.808 1269.1,977.501 1280.56,981.47 1294.3,983.362 1310.7,982.725 1330.21,978.962 1353.25,971.273 1380.22,958.618 1411.32,939.764 1446.44,913.363 1484.82,878.139 1524.73,833.343 1563.17,779.45 1595.68,719.14 1616.87,657.836 1621.48,603.678 1606.53,565.198 1572.68,548.444 1524.67,554.02 1469.47,576.937 1413.82,609.746 1362.55,645.475 1318.21,679.68 1281.52,710.173 1252.04,736.88 1228.89,760.293 1210.85,781.293 1196.83,800.552 1185.81,818.706 1176.93,836.024 1169.49,852.759 1162.91,869.03 1156.7,884.804 1150.44,900.023 1143.79,914.683 1136.43,928.774 1128.1,942.224 1118.49,954.892 1107.29,966.614 1094.15,977.219 1078.81,986.452 1060.97,993.867 1040.29,998.8 1016.55,1000.44 989.766,997.74 960.246,989.346 928.688,973.604 896.509,948.683 865.947,913.107 840.08,866.446 822.569,810.144 816.802,748.1 824.979,686.663 847.142,633.386 880.812,594.711 921.79,574.055 965.358,571.11 1007.55,582.626 1045.73,604.275 1078.56,631.787 1105.7,661.967 1127.45,692.533 1144.47,722.219 1157.48,750.375 1167.23,776.691 1174.36,801.179 1179.45,823.929 1182.95,845.055 1185.23,864.689 1186.56,882.97 1187.12,900.056 1187.06,916.102 1186.46,931.23 1185.38,945.525 "/>
<polyline clip-path="url(#clip891)" style="stroke:#e26f46; stroke-linecap:round; stroke-linejoin:round; stroke-width:4; stroke-opacity:1; fill:none" points="1180.43,789.292 1186.87,812.884 1191.62,834.68 1195.14,854.843 1197.74,873.537 1199.71,890.913 1201.23,907.103 1202.48,922.224 1203.55,936.372 1204.55,949.63 1205.55,962.066 1206.61,973.735 1207.79,984.68 1209.14,994.938 1210.74,1004.53 1212.63,1013.48 1214.9,1021.78 1217.64,1029.43 1220.97,1036.41 1225,1042.69 1229.91,1048.2 1235.9,1052.86 1243.22,1056.55 1252.16,1059.07 1263.09,1060.19 1276.46,1059.55 1292.78,1056.65 1312.67,1050.83 1336.78,1041.14 1365.82,1026.34 1400.38,1004.81 1440.75,974.544 1486.58,933.338 1536.31,879.263 1586.49,811.684 1631.26,732.876 1662.49,649.783 1671.55,574.466 1652.72,521.294 1606.67,500.661 1541.11,513.111 1467.36,549.271 1395.56,595.917 1331.91,642.403 1278.82,683.11 1236.19,716.568 1202.7,743.603 1176.64,765.821 1156.3,784.769 1140.18,801.612 1126.99,817.102 1115.69,831.651 1105.44,845.428 1095.57,858.436 1085.52,870.574 1074.87,881.664 1063.29,891.464 1050.51,899.677 1036.34,905.935 1020.72,909.8 1003.67,910.753 985.364,908.209 966.196,901.544 946.786,890.167 928.032,873.638 911.104,851.834 897.365,825.148 888.222,794.667 884.885,762.242 888.089,730.352 897.874,701.75 913.512,678.937 933.623,663.657 956.457,656.603 980.222,657.434 1003.36,665.039 1024.7,677.916 1043.49,694.507 1059.34,713.425 1072.14,733.556 1081.97,754.069 1088.99,774.385 1093.43,794.116 1095.5,813.009 1095.38,830.901 1093.21,847.681 1089.09,863.254 1083.07,877.524 1075.15,890.366 1065.32,901.615 1053.53,911.038 1039.75,918.321 1024,923.05 1006.34,924.703 987.005,922.644 966.386,916.158 945.155,904.517 924.296,887.108 905.128,863.633 889.245,834.365 878.347,800.396 873.95,763.775 877.036,727.398 887.749,694.575 905.271,668.366 927.966,650.906 953.736,643.005 980.454,644.178 1006.31,653.003 1029.98,667.626 1050.68,686.184 1068.03,707.073 1081.99,729.053 1092.72,751.24 1100.46,773.047 1105.5,794.107 1108.11,814.203 1108.51,833.216 1106.88,851.077 1103.34,867.74 1097.94,883.158 1090.68,897.259 1081.52,909.93 1070.38,921 1057.18,930.214 1041.83,937.217 1024.28,941.523 1004.6,942.506 982.984,939.392 959.889,931.287 936.092,917.265 912.778,896.531 891.565,868.691 874.422,834.099 863.43,794.195 860.382,751.675 866.309,710.277 881.098,674.129 903.416,646.788 930.997,630.393 961.184,625.299 991.496,630.311 1019.99,643.307 1045.42,661.903 1067.13,683.936 1084.97,707.691 1099.07,731.947 1109.74,755.902 1117.35,779.074 1122.28,801.202 1124.85,822.162 1125.33,841.914 1123.91,860.46 1120.73,877.815 1115.82,893.99 1109.19,908.973 1100.77,922.713 1090.45,935.109 1078.07,945.982 1063.48,955.058 1046.5,961.935 1027.01,966.05 1005.01,966.651 980.663,962.78 954.422,953.29 927.17,936.941 900.323,912.608 875.889,879.641 856.377,838.37 844.467,790.606 842.439,739.904 851.485,691.237 871.192,649.975 899.518,620.463 933.315,604.872 969.16,602.9 1004.1,612.364 1036.06,630.196 1063.88,653.342 1087.12,679.285 1105.88,706.203 1120.52,732.918 1131.55,758.741 1139.49,783.321 1144.82,806.518 1147.96,828.317 1149.22,848.766 1148.86,867.947 1147.02,885.949 1143.8,902.854 1139.22,918.729 1133.21,933.62 1125.69,947.539 1116.49,960.456 1105.41,972.284 1092.19,982.858 1076.56,991.903 1058.22,998.999 1036.91,1003.53 1012.46,1004.62 984.868,1001.11 954.47,991.489 922.118,973.994 889.386,946.812 858.733,908.547 833.479,858.967 817.418,799.904 813.985,735.886 825.121,673.859 850.353,621.63 886.698,585.458 929.559,568.106 974.14,568.481 1016.59,582.843 1054.48,606.556 1086.72,635.427 1113.15,666.322 1134.21,697.21 1150.61,726.936 1163.12,754.949 1172.49,781.058 1179.39,805.273 1184.38,827.701 1187.91,848.492 1190.33,867.804 1191.92,885.791 1192.87,902.59 1193.33,918.328 1193.4,933.112 1193.15,947.039 1192.61,960.19 1191.8,972.641 1190.72,984.455 1189.33,995.692 1187.61,1006.41 1185.49,1016.65 1182.9,1026.47 1179.75,1035.91 1175.92,1045.02 1171.25,1053.83 1165.56,1062.38 1158.63,1070.69 1150.17,1078.75 1139.84,1086.55 1127.23,1093.99 1111.87,1100.9 1093.16,1106.96 1070.49,1111.65 1043.18,1114.08 1010.62,1112.91 972.424,1106.08 928.736,1090.68 880.696,1062.88 831.073,1018.26 784.864,952.968 749.383,865.942 733.094,761.944 742.759,653.408 779.877,558.28 838.977,492.992 909.74,464.83 981.571,469.958 1047.09,497.956 1102.81,537.799 1148.12,581.209 1183.98,623.262 1211.96,661.641 1233.75,695.611 1250.91,725.226 1264.76,750.853 1276.41,772.915 1286.76,791.789 1296.53,807.763 1306.3,821.028 1316.54,831.679 1327.63,839.721 1339.88,845.075 1353.5,847.584 1368.65,847.026 1385.38,843.132 1403.61,835.617 1423.08,824.239 1443.31,808.874 1463.52,789.632 1482.66,766.988 1499.36,741.907 1512.1,715.91 1519.4,691.012 1520.09,669.473 1513.67,653.385 1500.44,644.196 1481.53,642.381 1458.67,647.385 1433.83,657.885 1408.85,672.214 1385.24,688.771 1364,706.276 1345.73,723.848 1330.65,740.965 1318.74,757.364 1309.84,772.93 1303.72,787.617 1300.14,801.396 1298.85,814.221 1299.69,826.015 1302.52,836.668 1307.27,846.032 1313.89,853.918 1322.41,860.099 1332.87,864.3 1345.34,866.198 1359.87,865.421 1376.47,861.554 1395.08,854.158 1415.47,842.81 1437.23,827.18 1459.64,807.139 1481.61,782.923 1501.7,755.301 1518.14,725.724 1529.06,696.348 1532.83,669.832 1528.44,648.885 1515.86,635.634 1496.13,631.072 1471.18,634.844 1443.36,645.476 1414.97,660.921 1387.87,679.14 1363.37,698.487 1342.19,717.854 1324.62,736.616 1310.6,754.496 1299.92,771.417 1292.27,787.392 1287.32,802.448 1284.77,816.593 1284.39,829.796 1285.97,841.988 1289.42,853.06 1294.67,862.864 1301.74,871.212 1310.67,877.872 1321.56,882.562 1334.53,884.941 1349.71,884.603 1367.19,881.075 1387.01,873.828 1409.04,862.312 1432.95,846.021 1458.07,824.619 1483.33,798.124 1507.13,767.144 1527.42,733.118 1541.87,698.442 1548.27,666.326 1545.09,640.268 1531.98,623.208 1510.03,616.685 1481.54,620.411 1449.43,632.53 1416.6,650.369 1385.37,671.28 1357.28,693.193 1333.14,714.79 1313.18,735.41 1297.27,754.839 1285.05,773.098 1276.11,790.301 1269.99,806.561 1266.31,821.953 1264.74,836.501 1265.05,850.182 1267.05,862.933 1270.66,874.654 1275.85,885.215 1282.67,894.45 1291.2,902.152 1301.6,908.065 1314.05,911.869 1328.77,913.169 1345.98,911.474 1365.87,906.196 1388.54,896.655 1413.92,882.11 1441.66,861.85 1470.97,835.364 1500.46,802.605 1528.03,764.358 1550.93,722.61 1566.04,680.736 1570.5,643.231 1562.59,614.791 1542.4,598.936 1512.09,596.814 1475.21,606.909 1435.77,625.846 1397.25,649.748 1362.06,675.368 1331.53,700.582 1306.09,724.343 1285.57,746.356 1269.51,766.738 1257.3,785.758 1248.3,803.686 1241.95,820.731 1237.77,837.023 1235.35,852.624 1234.4,867.547 1234.7,881.769 1236.11,895.245 1238.55,907.916 1242.03,919.709 1246.57,930.538 1252.27,940.297 1259.27,948.854 1267.76,956.04 1277.99,961.631 1290.24,965.335 1304.86,966.765 1322.21,965.413 1342.69,960.619 1366.65,951.551 1394.36,937.193 1425.84,916.383 1460.68,887.946 1497.75,850.969 1534.96,805.304 1568.97,752.267 1595.32,695.373 1609.12,640.6 1606.36,595.55 1585.62,567.214 1548.96,559.189 1501.49,570.142 1449.53,594.759 1398.65,626.407 1352.57,659.581 1313.09,690.95 1280.6,719.169 1254.62,744.181 1234.23,766.526 1218.43,786.884 1206.24,805.845 1196.77,823.837 1189.29,841.128 1183.17,857.866 1177.92,874.114 1173.12,889.891 1168.44,905.189 1163.58,919.991 1158.31,934.275 1152.36,948.019 1145.51,961.192 1137.5,973.755 1128.07,985.641 1116.91,996.748 1103.7,1006.91 1088.06,1015.85 1069.62,1023.19 1048,1028.31 1022.87,1030.35 994.071,1028.08 961.745,1019.87 926.545,1003.65 889.919,977.129 854.374,938.171 823.585,885.689 802.108,820.82 794.473,748.029 803.726,675.251 830.015,612.255 870.144,567.482 918.58,545.071 969.343,544.004 1017.64,559.619 1060.54,586.047 1096.79,618.071 1126.36,651.913 1149.85,685.241 1168.18,716.827 1182.32,746.152 1193.2,773.101 1201.61,797.758 1208.24,820.296 1213.63,840.907 1218.23,859.773 1222.42,877.055 1226.49,892.882 1230.69,907.351 1235.25,920.524 1240.38,932.433 1246.3,943.066 1253.22,952.376 1261.4,960.261 1271.11,966.565 1282.65,971.056 1296.39,973.407 1312.72,973.175 1332.04,969.767 1354.79,962.414 1381.29,950.149 1411.73,931.819 1445.93,906.168 1483.13,872.045 1521.65,828.822 1558.59,777.058 1589.77,719.322 1610.08,660.794 1614.69,608.973 1600.76,571.892 1568.92,555.147 1523.45,559.434 1470.78,580.459 1417.29,611.326 1367.65,645.527 1324.44,678.678 1288.48,708.708 1259.49,735.207 1236.63,758.629 1218.83,779.708 1205.05,799.132 1194.32,817.422 1185.82,834.921 1178.85,851.822 1172.85,868.219 1167.37,884.14 1162.01,899.58 1156.45,914.514 1150.4,928.91 1143.59,942.727 1135.76,955.912 1126.63,968.395 1115.92,980.067 1103.31,990.767 1088.45,1000.25 1071,1008.15 1050.62,1013.92 1027,1016.79 1000,1015.67 969.719,1009.14 936.693,995.378 902.139,972.357 868.175,938.141 837.95,891.58 815.455,833.294 804.85,766.657 809.285,698.147 829.614,636.3 863.749,589.242 907.19,561.951 954.521,554.912 1000.96,564.863 1043.24,586.759 1079.69,615.618 1109.86,647.522 1134.09,679.859 1153.11,711.117 1167.79,740.55 1178.97,767.888 1187.43,793.116 1193.82,816.348 1198.69,837.748 1202.47,857.489 1205.51,875.737 1208.08,892.638 1210.4,908.319 1212.64,922.881 1214.94,936.408 1217.45,948.961 1220.27,960.582 1223.53,971.294 1227.36,981.097 1231.92,989.971 1237.38,997.866 1243.93,1004.7 1251.83,1010.35 1261.35,1014.63 1272.85,1017.29 1286.74,1017.96 1303.47,1016.17 1323.57,1011.24 1347.6,1002.28 1376.07,988.145 1409.35,967.385 1447.46,938.333 1489.72,899.308 1534.34,849.121 1577.93,787.969 1615.21,718.681 1639.47,647.796 1644.14,585.371 1625.41,542.395 1584.46,526.176 1527.64,536.604 1463.83,566.519 1401.09,605.952 1344.68,646.569 1296.92,683.581 1258.07,715.363 1227.27,742.199 1203.18,765.155 1184.39,785.379 1169.59,803.794 1157.66,821.03 1147.64,837.455 1138.76,853.247 1130.37,868.452 1121.94,883.033 1113.04,896.9 1103.28,909.916 1092.33,921.903 1079.88,932.628 1065.66,941.785 1049.44,948.972 1031.05,953.662 1010.43,955.172 987.694,952.654 963.195,945.102 937.651,931.424 912.236,910.605 888.64,881.987 869.009,845.67 855.721,802.952 850.938,756.602 856.032,710.73 871.093,670.083 894.754,638.907 924.5,619.852 957.303,613.456 990.312,618.383 1021.32,632.177 1048.93,652.08 1072.45,675.62 1091.74,700.876 1107.02,726.513 1118.65,751.688 1127.09,775.916 1132.78,798.954 1136.1,820.713 1137.37,841.184 1136.82,860.408 1134.62,878.437 1130.83,895.325 1125.49,911.106 1118.53,925.791 1109.86,939.347 1099.31,951.687 1086.7,962.65 1071.79,971.973 1054.37,979.261 1034.23,983.941 1011.27,985.226 985.556,982.075 957.454,973.193 927.778,957.098 897.957,932.319 870.146,897.79 847.18,853.451 832.255,800.932 828.264,744.022 836.913,688.457 857.99,640.741 889.224,606.321 926.9,587.999 966.93,585.454 1005.83,595.988 1041.2,615.846 1071.78,641.369 1097.19,669.631 1117.62,698.597 1133.6,727.013 1145.73,754.198 1154.68,779.841 1161.01,803.859 1165.21,826.289 1167.69,847.23 1168.75,866.806 1168.61,885.146 1167.41,902.373 1165.23,918.598 1162.09,933.92 1157.95,948.419 1152.74,962.159 1146.31,975.181 1138.5,987.497 1129.08,999.084 1117.77,1009.86 1104.24,1019.69 1088.11,1028.29 1068.99,1035.26 1046.48,1039.96 1020.23,1041.44 990.058,1038.38 956.135,1028.97 919.197,1010.95 880.873,981.773 843.986,939.139 812.649,881.989 791.887,811.883 786.532,734.196 799.526,658.068 830.414,594.24 875.101,551.312 927.262,532.656 980.542,536.032 1030.19,555.731 1073.56,585.327 1109.73,619.489 1138.94,654.577 1162,688.481 1179.96,720.178 1193.86,749.307 1204.66,775.858 1213.2,799.98 1220.16,821.88 1226.11,841.762 1231.51,859.809 1236.75,876.166 1242.16,890.939 1248,904.189 1254.57,915.933 1262.1,926.137 1270.88,934.71 1281.18,941.495 1293.33,946.257 1307.64,948.664 1324.48,948.266 1344.21,944.476 1367.14,936.549 1393.48,923.588 1423.21,904.58 1455.92,878.522 1490.58,844.663 1525.3,802.931 1557.12,754.518 1582.15,702.47 1596.11,651.913 1595.4,609.398 1578.5,581.143 1546.83,570.742 1504.53,577.729 1457.05,598.047 1409.53,626.067 1365.65,656.724 1327.46,686.642 1295.61,714.201 1269.89,739.034 1249.62,761.438 1233.91,781.939 1221.9,801.046 1212.78,819.15 1205.85,836.51 1200.54,853.275 1196.37,869.517 1192.98,885.263 1190.08,900.512 1187.41,915.26 1184.81,929.499 1182.09,943.228 1179.11,956.452 1175.74,969.183 1171.82,981.437 1167.21,993.231 1161.73,1004.58 1155.18,1015.5 1147.31,1025.98 1137.85,1035.98 1126.47,1045.44 1112.77,1054.2 1096.31,1062.02 1076.58,1068.48 1053.08,1072.93 1025.3,1074.37 992.925,1071.33 955.94,1061.74 914.986,1042.86 871.748,1011.46 829.409,964.359 792.887,899.668 768.466,818.719 762.388,727.895 778.494,638.806 816.074,565.327 869.564,518.214 930.709,500.822 991.692,509.067 1047.17,534.933 1094.58,570.286 1133.41,608.952 1164.34,647.104 1188.58,682.785 1207.48,715.234 1222.3,744.333 1234.15,770.262 1243.96,793.292 1252.51,813.698 1260.45,831.709 1268.29,847.493 1276.48,861.15 1285.39,872.709 1295.38,882.125 1306.76,889.272 1319.82,893.941 1334.84,895.826 1352.06,894.528 1371.65,889.548 1393.68,880.314 1418.03,866.22 1444.26,846.727 1471.54,821.527 1498.51,790.789 1523.18,755.46 1543.09,717.538 1555.54,680.153 1558.22,647.236 1549.86,622.706 1530.75,609.363 1502.86,608.003 1469.3,617.273 1433.48,634.348 1398.42,655.993 1366.23,679.454 1338.15,702.862 1314.63,725.225 1295.61,746.188 1280.73,765.763 1269.5,784.116 1261.38,801.434 1255.91,817.864 1252.65,833.491 1251.28,848.344 1251.55,862.407 1253.29,875.625 1256.43,887.918 1260.93,899.178 1266.84,909.274 1274.27,918.04 1283.35,925.27 1294.31,930.704 1307.38,934.009 1322.85,934.76 1341.01,932.422 1362.12,926.332 1386.38,915.699 1413.78,899.633 1444.02,877.233 1476.29,847.78 1509.07,811.059 1539.96,767.833 1565.67,720.345 1582.44,672.628 1586.76,630.189 1576.56,598.803 1552.16,582.652 1516.38,582.75 1473.78,596.697 1429.17,619.959 1386.48,647.738 1348.25,676.334 1315.63,703.584 1288.83,728.627 1267.45,751.422 1250.78,772.308 1238.04,791.712 1228.49,810.01 1221.44,827.468 1216.34,844.252 1212.73,860.447 1210.24,876.087 1208.61,891.172 1207.61,905.691 1207.12,919.627 1207.02,932.963 1207.24,945.689 1207.74,957.797 1208.52,969.284 1209.57,980.147 1210.92,990.386 1212.59,1000 1214.65,1008.98 1217.17,1017.32 1220.23,1024.99 1223.97,1031.96 1228.51,1038.18 1234.05,1043.57 1240.79,1048.02 1249.03,1051.38 1259.08,1053.43 1271.35,1053.87 1286.32,1052.27 1304.54,1048.05 1326.64,1040.4 1353.31,1028.24 1385.15,1010.14 1422.61,984.3 1465.63,948.629 1513.26,901.077 1562.97,840.368 1610.08,767.331 1647.54,686.617 1666.9,607.878 1660.93,544.6 1627.25,509.352 1570.45,507.346 1500.48,533.455 1428.18,575.778 1361.46,622.354 1304.29,665.438 1257.59,701.889 1220.53,731.629 1191.59,755.96 1169.05,776.45 1151.35,794.41 1137.11,810.754 1125.21,826.026 1114.73,840.494 1104.91,854.232 1095.15,867.191 1084.98,879.233 1074.01,890.158 1061.92,899.705 1048.49,907.553 1033.54,913.303 1017.02,916.476 998.997,916.504 979.699,912.744 959.585,904.516 939.383,891.196 920.127,872.35 903.136,847.938 889.914,818.54 881.959,785.533 880.469,751.125 886.047,718.143 898.484,689.558 916.742,667.877 939.153,654.632 963.77,650.159 988.721,653.728 1012.48,663.913 1033.96,679.015 1052.54,697.399 1067.96,717.684 1080.2,738.811 1089.41,760.023 1095.83,780.813 1099.68,800.856 1101.21,819.952 1100.59,837.975 1097.97,854.844 1093.44,870.486 1087.01,884.819 1078.7,897.729 1068.45,909.051 1056.2,918.552 1041.9,925.908 1025.53,930.686 1007.15,932.328 986.969,930.153 965.379,923.376 943.073,911.187 921.088,892.881 900.839,868.084 884.053,837.039 872.59,800.897 868.116,761.885 871.702,723.18 883.478,688.428 902.503,660.965 926.938,643.058 954.465,635.469 982.778,637.528 1009.96,647.572 1034.66,663.529 1056.11,683.378 1073.98,705.426 1088.29,728.4 1099.25,751.419 1107.15,773.915 1112.33,795.552 1115.07,816.143 1115.64,835.599 1114.21,853.878 1110.91,870.961 1105.8,886.825 1098.87,901.427 1090.09,914.683 1079.35,926.453 1066.54,936.52 1051.53,944.562 1034.23,950.132 1014.61,952.627 992.779,951.278 969.052,945.148 944.071,933.197 918.894,914.41 895.07,888.049 874.614,854.02 859.83,813.294 852.927,768.235 855.484,722.583 867.924,680.906 889.26,647.574 917.272,625.641 949.068,616.173 981.765,618.296 1013.01,629.83 1041.21,648.102 1065.53,670.587 1085.68,695.247 1101.79,720.62 1114.18,745.749 1123.29,770.068 1129.55,793.276 1133.34,815.242 1134.99,835.934 1134.76,855.376 1132.81,873.613 1129.25,890.692 1124.09,906.646 1117.3,921.483 1108.78,935.172 1098.4,947.626 1085.97,958.688 1071.28,968.099 1054.1,975.473 1034.26,980.251 1011.65,981.667 986.361,978.712 958.738,970.132 929.58,954.498 900.273,930.394 872.897,896.796 850.191,853.635 835.243,802.457 830.871,746.874 838.776,692.374 858.838,645.24 888.948,610.816 925.568,591.971 964.736,588.574 1003.01,598.149 1038,617.11 1068.37,641.891 1093.7,669.591 1114.13,698.162 1130.12,726.318 1142.28,753.344 1151.22,778.903 1157.52,802.886 1161.64,825.316 1163.99,846.28 1164.86,865.893 1164.46,884.277 1162.92,901.55 1160.32,917.817 1156.67,933.171 1151.91,947.683 1145.96,961.406 1138.65,974.364 1129.8,986.545 1119.16,997.891 1106.42,1008.27 1091.25,1017.47 1073.28,1025.12 1052.12,1030.66 1027.43,1033.27 999.021,1031.78 966.951,1024.61 931.776,1009.71 894.807,984.755 858.401,947.466 826.119,896.458 802.522,832.41 792.344,759.284 799.056,684.708 823.33,618.597 862.368,570.038 910.733,544.031 962.245,540.209 1011.78,554.136 1056.07,579.815 1093.69,611.743 1124.46,645.861 1148.97,679.629 1168.14,711.689 1182.96,741.457 1194.38,768.787 1203.24,793.759 1210.24,816.544 1215.97,837.34 1220.9,856.334 1225.4,873.688 1229.81,889.533 1234.39,903.966 1239.39,917.044 1245.02,928.789 1251.51,939.181 1259.12,948.153 1268.09,955.584 1278.72,961.284 1291.34,964.983 1306.31,966.305 1324.02,964.744 1344.87,959.637 1369.23,950.14 1397.34,935.227 1429.19,913.734 1464.31,884.498 1501.5,846.663 1538.55,800.194 1571.99,746.6 1597.28,689.643 1609.56,635.526 1605.01,591.902 1582.52,565.536 1544.53,559.56 1496.35,572.16 1444.3,597.763 1393.79,629.762 1348.33,662.854 1309.57,693.931 1277.78,721.81 1252.4,746.522 1232.53,768.636 1217.14,788.83 1205.26,807.678 1196.03,825.591 1188.71,842.822 1182.71,859.508 1177.53,875.709 1172.76,891.439 1168.09,906.689 1163.22,921.44 1157.9,935.673 1151.89,949.362 1144.96,962.479 1136.85,974.982 1127.29,986.802 1115.97,997.832 1102.57,1007.9 1086.72,1016.73 1068.03,1023.91 1046.12,1028.81 1020.68,1030.55 991.573,1027.87 958.958,1019.08 923.549,1002.1 886.871,974.619 851.528,934.546 821.29,880.924 800.761,815.124 794.418,741.917 805.121,669.489 832.741,607.648 873.828,564.587 922.725,544.025 973.493,544.554 1021.47,561.309 1063.88,588.41 1099.6,620.735 1128.65,654.628 1151.69,687.864 1169.65,719.287 1183.5,748.423 1194.16,775.18 1202.41,799.655 1208.92,822.023 1214.25,842.477 1218.82,861.2 1223.01,878.347 1227.1,894.045 1231.35,908.389 1235.98,921.439 1241.22,933.219 1247.26,943.716 1254.34,952.875 1262.7,960.59 1272.63,966.695 1284.44,970.948 1298.49,973.009 1315.18,972.416 1334.92,968.559 1358.11,960.643 1385.1,947.678 1416.01,928.495 1450.62,901.841 1488.04,866.61 1526.47,822.292 1562.85,769.666 1592.83,711.612 1611.3,653.641 1613.6,603.428 1597.27,568.835 1563.44,554.908 1516.78,561.641 1463.8,584.26 1410.7,615.797 1361.88,649.98 1319.65,682.748 1284.67,712.288 1256.56,738.338 1234.44,761.411 1217.24,782.242 1203.92,801.498 1193.54,819.675 1185.3,837.092 1178.51,853.93 1172.64,870.269 1167.23,886.134 1161.91,901.516 1156.36,916.39 1150.29,930.724 1143.45,944.477 1135.57,957.598 1126.37,970.014 1115.56,981.616 1102.83,992.24 1087.83,1001.64 1070.21,1009.43 1049.63,1015.06 1025.79,1017.75 998.544,1016.39 968.009,1009.5 934.753,995.278 900.036,971.644 866.039,936.67 835.981,889.259 813.912,830.144 804.005,762.888 809.342,694.166 830.631,632.632 865.605,586.37 909.632,560.155 957.252,554.215 1003.73,565.086 1045.86,587.641 1082.07,616.902 1111.98,649.006 1135.96,681.404 1154.75,712.635 1169.25,741.995 1180.29,769.234 1188.66,794.353 1195,817.473 1199.85,838.76 1203.65,858.391 1206.74,876.528 1209.4,893.318 "/>
<path clip-path="url(#clip890)" d="M215.55 250.738 L652.912 250.738 L652.912 95.2176 L215.55 95.2176  Z" fill="#ffffff" fill-rule="evenodd" fill-opacity="1"/>
<polyline clip-path="url(#clip890)" style="stroke:#000000; stroke-linecap:round; stroke-linejoin:round; stroke-width:4; stroke-opacity:1; fill:none" points="215.55,250.738 652.912,250.738 652.912,95.2176 215.55,95.2176 215.55,250.738 "/>
<polyline clip-path="url(#clip890)" style="stroke:#009af9; stroke-linecap:round; stroke-linejoin:round; stroke-width:4; stroke-opacity:1; fill:none" points="240.115,147.058 387.509,147.058 "/>
<path clip-path="url(#clip890)" d="M416.357 160.449 L416.357 174.199 L412.074 174.199 L412.074 138.412 L416.357 138.412 L416.357 142.347 Q417.699 140.032 419.736 138.921 Q421.797 137.787 424.644 137.787 Q429.366 137.787 432.306 141.537 Q435.269 145.287 435.269 151.398 Q435.269 157.509 432.306 161.259 Q429.366 165.009 424.644 165.009 Q421.797 165.009 419.736 163.898 Q417.699 162.763 416.357 160.449 M430.847 151.398 Q430.847 146.699 428.903 144.037 Q426.982 141.352 423.602 141.352 Q420.223 141.352 418.278 144.037 Q416.357 146.699 416.357 151.398 Q416.357 156.097 418.278 158.782 Q420.223 161.444 423.602 161.444 Q426.982 161.444 428.903 158.782 Q430.847 156.097 430.847 151.398 Z" fill="#000000" fill-rule="nonzero" fill-opacity="1" /><path clip-path="url(#clip890)" d="M457.352 142.393 Q456.634 141.977 455.778 141.791 Q454.945 141.583 453.926 141.583 Q450.315 141.583 448.371 143.944 Q446.449 146.282 446.449 150.68 L446.449 164.338 L442.167 164.338 L442.167 138.412 L446.449 138.412 L446.449 142.44 Q447.792 140.078 449.945 138.944 Q452.097 137.787 455.176 137.787 Q455.616 137.787 456.148 137.856 Q456.681 137.903 457.329 138.018 L457.352 142.393 Z" fill="#000000" fill-rule="nonzero" fill-opacity="1" /><path clip-path="url(#clip890)" d="M482.954 150.31 L482.954 152.393 L463.37 152.393 Q463.648 156.791 466.009 159.106 Q468.394 161.398 472.63 161.398 Q475.083 161.398 477.375 160.796 Q479.69 160.194 481.958 158.99 L481.958 163.018 Q479.667 163.99 477.259 164.5 Q474.852 165.009 472.375 165.009 Q466.171 165.009 462.537 161.398 Q458.926 157.787 458.926 151.629 Q458.926 145.264 462.352 141.537 Q465.801 137.787 471.634 137.787 Q476.866 137.787 479.898 141.166 Q482.954 144.523 482.954 150.31 M478.694 149.06 Q478.648 145.565 476.727 143.481 Q474.829 141.398 471.681 141.398 Q468.116 141.398 465.963 143.412 Q463.833 145.426 463.509 149.083 L478.694 149.06 Z" fill="#000000" fill-rule="nonzero" fill-opacity="1" /><path clip-path="url(#clip890)" d="M507.004 142.347 L507.004 128.319 L511.264 128.319 L511.264 164.338 L507.004 164.338 L507.004 160.449 Q505.662 162.763 503.602 163.898 Q501.565 165.009 498.694 165.009 Q493.995 165.009 491.032 161.259 Q488.093 157.509 488.093 151.398 Q488.093 145.287 491.032 141.537 Q493.995 137.787 498.694 137.787 Q501.565 137.787 503.602 138.921 Q505.662 140.032 507.004 142.347 M492.491 151.398 Q492.491 156.097 494.412 158.782 Q496.356 161.444 499.736 161.444 Q503.116 161.444 505.06 158.782 Q507.004 156.097 507.004 151.398 Q507.004 146.699 505.06 144.037 Q503.116 141.352 499.736 141.352 Q496.356 141.352 494.412 144.037 Q492.491 146.699 492.491 151.398 Z" fill="#000000" fill-rule="nonzero" fill-opacity="1" /><path clip-path="url(#clip890)" d="M520.037 138.412 L524.296 138.412 L524.296 164.338 L520.037 164.338 L520.037 138.412 M520.037 128.319 L524.296 128.319 L524.296 133.713 L520.037 133.713 L520.037 128.319 Z" fill="#000000" fill-rule="nonzero" fill-opacity="1" /><path clip-path="url(#clip890)" d="M551.865 139.407 L551.865 143.389 Q550.06 142.393 548.231 141.907 Q546.426 141.398 544.574 141.398 Q540.43 141.398 538.139 144.037 Q535.847 146.652 535.847 151.398 Q535.847 156.143 538.139 158.782 Q540.43 161.398 544.574 161.398 Q546.426 161.398 548.231 160.912 Q550.06 160.402 551.865 159.407 L551.865 163.342 Q550.083 164.176 548.162 164.592 Q546.264 165.009 544.111 165.009 Q538.254 165.009 534.805 161.328 Q531.356 157.648 531.356 151.398 Q531.356 145.055 534.828 141.421 Q538.324 137.787 544.389 137.787 Q546.356 137.787 548.231 138.203 Q550.106 138.597 551.865 139.407 Z" fill="#000000" fill-rule="nonzero" fill-opacity="1" /><path clip-path="url(#clip890)" d="M563.486 131.051 L563.486 138.412 L572.259 138.412 L572.259 141.722 L563.486 141.722 L563.486 155.796 Q563.486 158.967 564.342 159.87 Q565.222 160.773 567.884 160.773 L572.259 160.773 L572.259 164.338 L567.884 164.338 Q562.953 164.338 561.078 162.509 Q559.203 160.657 559.203 155.796 L559.203 141.722 L556.078 141.722 L556.078 138.412 L559.203 138.412 L559.203 131.051 L563.486 131.051 Z" fill="#000000" fill-rule="nonzero" fill-opacity="1" /><path clip-path="url(#clip890)" d="M600.036 150.31 L600.036 152.393 L580.453 152.393 Q580.731 156.791 583.092 159.106 Q585.476 161.398 589.712 161.398 Q592.166 161.398 594.458 160.796 Q596.773 160.194 599.041 158.99 L599.041 163.018 Q596.749 163.99 594.342 164.5 Q591.935 165.009 589.458 165.009 Q583.254 165.009 579.62 161.398 Q576.009 157.787 576.009 151.629 Q576.009 145.264 579.435 141.537 Q582.884 137.787 588.717 137.787 Q593.948 137.787 596.981 141.166 Q600.036 144.523 600.036 150.31 M595.777 149.06 Q595.731 145.565 593.81 143.481 Q591.911 141.398 588.763 141.398 Q585.198 141.398 583.046 143.412 Q580.916 145.426 580.592 149.083 L595.777 149.06 Z" fill="#000000" fill-rule="nonzero" fill-opacity="1" /><path clip-path="url(#clip890)" d="M624.087 142.347 L624.087 128.319 L628.346 128.319 L628.346 164.338 L624.087 164.338 L624.087 160.449 Q622.745 162.763 620.684 163.898 Q618.647 165.009 615.777 165.009 Q611.078 165.009 608.115 161.259 Q605.175 157.509 605.175 151.398 Q605.175 145.287 608.115 141.537 Q611.078 137.787 615.777 137.787 Q618.647 137.787 620.684 138.921 Q622.745 140.032 624.087 142.347 M609.573 151.398 Q609.573 156.097 611.495 158.782 Q613.439 161.444 616.819 161.444 Q620.198 161.444 622.143 158.782 Q624.087 156.097 624.087 151.398 Q624.087 146.699 622.143 144.037 Q620.198 141.352 616.819 141.352 Q613.439 141.352 611.495 144.037 Q609.573 146.699 609.573 151.398 Z" fill="#000000" fill-rule="nonzero" fill-opacity="1" /><polyline clip-path="url(#clip890)" style="stroke:#e26f46; stroke-linecap:round; stroke-linejoin:round; stroke-width:4; stroke-opacity:1; fill:none" points="240.115,198.898 387.509,198.898 "/>
<path clip-path="url(#clip890)" d="M425.477 203.145 Q420.315 203.145 418.324 204.326 Q416.334 205.506 416.334 208.354 Q416.334 210.622 417.815 211.965 Q419.32 213.284 421.889 213.284 Q425.431 213.284 427.56 210.784 Q429.713 208.261 429.713 204.094 L429.713 203.145 L425.477 203.145 M433.972 201.386 L433.972 216.178 L429.713 216.178 L429.713 212.242 Q428.255 214.603 426.079 215.738 Q423.903 216.849 420.755 216.849 Q416.773 216.849 414.412 214.627 Q412.074 212.381 412.074 208.631 Q412.074 204.256 414.991 202.034 Q417.931 199.812 423.741 199.812 L429.713 199.812 L429.713 199.395 Q429.713 196.455 427.769 194.858 Q425.847 193.238 422.352 193.238 Q420.13 193.238 418.023 193.77 Q415.917 194.303 413.973 195.367 L413.973 191.432 Q416.311 190.53 418.51 190.09 Q420.709 189.627 422.792 189.627 Q428.417 189.627 431.195 192.543 Q433.972 195.46 433.972 201.386 Z" fill="#000000" fill-rule="nonzero" fill-opacity="1" /><path clip-path="url(#clip890)" d="M461.403 191.247 L461.403 195.229 Q459.597 194.233 457.769 193.747 Q455.963 193.238 454.111 193.238 Q449.968 193.238 447.676 195.877 Q445.384 198.492 445.384 203.238 Q445.384 207.983 447.676 210.622 Q449.968 213.238 454.111 213.238 Q455.963 213.238 457.769 212.752 Q459.597 212.242 461.403 211.247 L461.403 215.182 Q459.62 216.016 457.699 216.432 Q455.801 216.849 453.648 216.849 Q447.792 216.849 444.343 213.168 Q440.894 209.488 440.894 203.238 Q440.894 196.895 444.366 193.261 Q447.861 189.627 453.926 189.627 Q455.894 189.627 457.769 190.043 Q459.644 190.437 461.403 191.247 Z" fill="#000000" fill-rule="nonzero" fill-opacity="1" /><path clip-path="url(#clip890)" d="M473.023 182.891 L473.023 190.252 L481.796 190.252 L481.796 193.562 L473.023 193.562 L473.023 207.636 Q473.023 210.807 473.88 211.71 Q474.759 212.613 477.421 212.613 L481.796 212.613 L481.796 216.178 L477.421 216.178 Q472.491 216.178 470.616 214.349 Q468.741 212.497 468.741 207.636 L468.741 193.562 L465.616 193.562 L465.616 190.252 L468.741 190.252 L468.741 182.891 L473.023 182.891 Z" fill="#000000" fill-rule="nonzero" fill-opacity="1" /><path clip-path="url(#clip890)" d="M486.958 205.946 L486.958 190.252 L491.218 190.252 L491.218 205.784 Q491.218 209.465 492.653 211.316 Q494.088 213.145 496.958 213.145 Q500.407 213.145 502.398 210.946 Q504.412 208.747 504.412 204.951 L504.412 190.252 L508.671 190.252 L508.671 216.178 L504.412 216.178 L504.412 212.196 Q502.861 214.557 500.801 215.715 Q498.764 216.849 496.055 216.849 Q491.588 216.849 489.273 214.071 Q486.958 211.293 486.958 205.946 M497.676 189.627 L497.676 189.627 Z" fill="#000000" fill-rule="nonzero" fill-opacity="1" /><path clip-path="url(#clip890)" d="M529.227 203.145 Q524.065 203.145 522.074 204.326 Q520.083 205.506 520.083 208.354 Q520.083 210.622 521.565 211.965 Q523.069 213.284 525.639 213.284 Q529.18 213.284 531.31 210.784 Q533.463 208.261 533.463 204.094 L533.463 203.145 L529.227 203.145 M537.722 201.386 L537.722 216.178 L533.463 216.178 L533.463 212.242 Q532.004 214.603 529.828 215.738 Q527.653 216.849 524.504 216.849 Q520.523 216.849 518.162 214.627 Q515.824 212.381 515.824 208.631 Q515.824 204.256 518.741 202.034 Q521.68 199.812 527.49 199.812 L533.463 199.812 L533.463 199.395 Q533.463 196.455 531.518 194.858 Q529.597 193.238 526.102 193.238 Q523.879 193.238 521.773 193.77 Q519.666 194.303 517.722 195.367 L517.722 191.432 Q520.06 190.53 522.259 190.09 Q524.458 189.627 526.541 189.627 Q532.166 189.627 534.944 192.543 Q537.722 195.46 537.722 201.386 Z" fill="#000000" fill-rule="nonzero" fill-opacity="1" /><path clip-path="url(#clip890)" d="M546.495 180.159 L550.754 180.159 L550.754 216.178 L546.495 216.178 L546.495 180.159 Z" fill="#000000" fill-rule="nonzero" fill-opacity="1" /></svg>
